CrimsonPro-W1000.ufo
<glyph name="numbersign" format="2">
  <advance width="538.0"/>
  <unicode hex="0023"/>
  <note>
numbersign
</note>
  <outline>
    <contour>
      <point x="249.0" y="0.0" type="line"/>
      <point x="329.0" y="0.0" type="line"/>
      <point x="450.0" y="587.0" type="line"/>
      <point x="372.0" y="587.0" type="line"/>
    </contour>
    <contour>
      <point x="38.0" y="160.0" type="line"/>
      <point x="483.0" y="160.0" type="line"/>
      <point x="483.0" y="231.0" type="line"/>
      <point x="38.0" y="231.0" type="line"/>
    </contour>
    <contour>
      <point x="88.0" y="0.0" type="line"/>
      <point x="166.0" y="0.0" type="line"/>
      <point x="289.0" y="587.0" type="line"/>
      <point x="210.0" y="587.0" type="line"/>
    </contour>
    <contour>
      <point x="55.0" y="356.0" type="line"/>
      <point x="500.0" y="356.0" type="line"/>
      <point x="500.0" y="427.0" type="line"/>
      <point x="55.0" y="427.0" type="line"/>
    </contour>
  </outline>
</glyph>
<glyph name="percent" format="2">
  <advance width="819.0"/>
  <unicode hex="0025"/>
  <note>
percent
</note>
  <outline>
    <contour>
      <point x="229.0" y="-13.0" type="line"/>
      <point x="665.0" y="540.0" type="line"/>
      <point x="591.0" y="602.0" type="line"/>
      <point x="155.0" y="49.0" type="line"/>
    </contour>
    <contour>
      <point x="205.0" y="283.0" type="curve" smooth="yes"/>
      <point x="298.0" y="283.0"/>
      <point x="373.0" y="351.0"/>
      <point x="373.0" y="441.0" type="curve" smooth="yes"/>
      <point x="373.0" y="534.0"/>
      <point x="303.0" y="598.0"/>
      <point x="205.0" y="598.0" type="curve" smooth="yes"/>
      <point x="115.0" y="598.0"/>
      <point x="39.0" y="529.0"/>
      <point x="39.0" y="441.0" type="curve" smooth="yes"/>
      <point x="39.0" y="348.0"/>
      <point x="108.0" y="283.0"/>
    </contour>
    <contour>
      <point x="207.0" y="383.0" type="curve" smooth="yes"/>
      <point x="178.0" y="383.0"/>
      <point x="154.0" y="405.0"/>
      <point x="154.0" y="442.0" type="curve" smooth="yes"/>
      <point x="154.0" y="478.0"/>
      <point x="178.0" y="499.0"/>
      <point x="207.0" y="499.0" type="curve" smooth="yes"/>
      <point x="236.0" y="499.0"/>
      <point x="261.0" y="479.0"/>
      <point x="261.0" y="442.0" type="curve" smooth="yes"/>
      <point x="261.0" y="404.0"/>
      <point x="236.0" y="383.0"/>
    </contour>
    <contour>
      <point x="612.0" y="-10.0" type="curve" smooth="yes"/>
      <point x="705.0" y="-10.0"/>
      <point x="780.0" y="58.0"/>
      <point x="780.0" y="148.0" type="curve" smooth="yes"/>
      <point x="780.0" y="241.0"/>
      <point x="710.0" y="305.0"/>
      <point x="612.0" y="305.0" type="curve" smooth="yes"/>
      <point x="522.0" y="305.0"/>
      <point x="446.0" y="236.0"/>
      <point x="446.0" y="148.0" type="curve" smooth="yes"/>
      <point x="446.0" y="55.0"/>
      <point x="515.0" y="-10.0"/>
    </contour>
    <contour>
      <point x="614.0" y="90.0" type="curve" smooth="yes"/>
      <point x="585.0" y="90.0"/>
      <point x="561.0" y="112.0"/>
      <point x="561.0" y="149.0" type="curve" smooth="yes"/>
      <point x="561.0" y="185.0"/>
      <point x="585.0" y="206.0"/>
      <point x="614.0" y="206.0" type="curve" smooth="yes"/>
      <point x="643.0" y="206.0"/>
      <point x="668.0" y="186.0"/>
      <point x="668.0" y="149.0" type="curve" smooth="yes"/>
      <point x="668.0" y="111.0"/>
      <point x="643.0" y="90.0"/>
    </contour>
  </outline>
</glyph>
<glyph name="plus" format="2">
  <advance width="540.0"/>
  <unicode hex="002B"/>
  <outline>
    <contour>
      <point x="488.0" y="304.0" type="line"/>
      <point x="51.0" y="304.0" type="line"/>
      <point x="51.0" y="207.0" type="line"/>
      <point x="488.0" y="207.0" type="line"/>
    </contour>
    <contour>
      <point x="220.0" y="473.0" type="line"/>
      <point x="220.0" y="39.0" type="line"/>
      <point x="320.0" y="39.0" type="line"/>
      <point x="320.0" y="473.0" type="line"/>
    </contour>
  </outline>
</glyph>
<glyph name="one" format="2">
  <advance width="415.0"/>
  <unicode hex="0031"/>
  <note>
one
</note>
  <outline>
    <contour>
      <point x="307.0" y="234.0" type="curve" smooth="yes"/>
      <point x="307.0" y="327.0" type="line" smooth="yes"/>
      <point x="307.0" y="433.0"/>
      <point x="311.0" y="534.0"/>
      <point x="317.0" y="602.0" type="curve"/>
      <point x="31.0" y="495.0" type="line"/>
      <point x="35.0" y="424.0" type="line"/>
      <point x="135.0" y="445.0" type="line"/>
      <point x="138.0" y="429.0"/>
      <point x="140.0" y="362.0"/>
      <point x="140.0" y="299.0" type="curve" smooth="yes"/>
      <point x="140.0" y="234.0" type="line" smooth="yes"/>
      <point x="140.0" y="165.0"/>
      <point x="137.0" y="85.0"/>
      <point x="134.0" y="76.0" type="curve"/>
      <point x="46.0" y="57.0" type="line"/>
      <point x="49.0" y="0.0" type="line"/>
      <point x="400.0" y="0.0" type="line"/>
      <point x="403.0" y="57.0" type="line"/>
      <point x="315.0" y="76.0" type="line"/>
      <point x="311.0" y="87.0"/>
      <point x="307.0" y="171.0"/>
    </contour>
  </outline>
</glyph>
<glyph name="two" format="2">
  <advance width="550.0"/>
  <unicode hex="0032"/>
  <note>
two
</note>
  <outline>
    <contour>
      <point x="51.0" y="-4.0" type="line"/>
      <point x="78.0" y="-1.0"/>
      <point x="107.0" y="0.0"/>
      <point x="130.0" y="0.0" type="curve" smooth="yes"/>
      <point x="328.0" y="0.0" type="line" smooth="yes"/>
      <point x="350.0" y="0.0"/>
      <point x="445.0" y="-3.0"/>
      <point x="484.0" y="-6.0" type="curve"/>
      <point x="522.0" y="182.0" type="line"/>
      <point x="447.0" y="192.0" type="line"/>
      <point x="419.0" y="126.0" type="line"/>
      <point x="392.0" y="122.0"/>
      <point x="383.0" y="121.0"/>
      <point x="351.0" y="121.0" type="curve" smooth="yes"/>
      <point x="198.0" y="121.0" type="line"/>
      <point x="200.0" y="114.0" type="line"/>
      <point x="357.0" y="194.0"/>
      <point x="451.0" y="300.0"/>
      <point x="451.0" y="408.0" type="curve" smooth="yes"/>
      <point x="451.0" y="517.0"/>
      <point x="367.0" y="596.0"/>
      <point x="251.0" y="596.0" type="curve" smooth="yes"/>
      <point x="149.0" y="596.0"/>
      <point x="67.0" y="542.0"/>
      <point x="24.0" y="443.0" type="curve"/>
      <point x="78.0" y="405.0" type="line"/>
      <point x="105.0" y="452.0"/>
      <point x="143.0" y="475.0"/>
      <point x="188.0" y="475.0" type="curve" smooth="yes"/>
      <point x="244.0" y="475.0"/>
      <point x="281.0" y="437.0"/>
      <point x="281.0" y="380.0" type="curve" smooth="yes"/>
      <point x="281.0" y="283.0"/>
      <point x="211.0" y="184.0"/>
      <point x="49.0" y="62.0" type="curve"/>
    </contour>
  </outline>
</glyph>
<glyph name="three" format="2">
  <advance width="514.0"/>
  <unicode hex="0033"/>
  <note>
    three
  </note>
  <outline>
    <contour>
      <point x="206.0" y="-9.0" type="curve"/>
      <point x="380.0" y="-9.0"/>
      <point x="471.0" y="88.0"/>
      <point x="471.0" y="175.0" type="curve" smooth="yes"/>
      <point x="471.0" y="264.0"/>
      <point x="400.0" y="321.0"/>
      <point x="272.0" y="322.0" type="curve"/>
      <point x="240.0" y="298.0" type="line"/>
      <point x="354.0" y="322.0"/>
      <point x="437.0" y="373.0"/>
      <point x="437.0" y="461.0" type="curve" smooth="yes"/>
      <point x="437.0" y="534.0"/>
      <point x="372.0" y="596.0"/>
      <point x="260.0" y="596.0" type="curve" smooth="yes"/>
      <point x="166.0" y="596.0"/>
      <point x="86.0" y="543.0"/>
      <point x="46.0" y="463.0" type="curve"/>
      <point x="99.0" y="426.0" type="line"/>
      <point x="117.0" y="458.0"/>
      <point x="157.0" y="479.0"/>
      <point x="200.0" y="479.0" type="curve" smooth="yes"/>
      <point x="242.0" y="479.0"/>
      <point x="271.0" y="457.0"/>
      <point x="271.0" y="419.0" type="curve" smooth="yes"/>
      <point x="271.0" y="370.0"/>
      <point x="217.0" y="328.0"/>
      <point x="143.0" y="320.0" type="curve"/>
      <point x="150.0" y="252.0" type="line"/>
      <point x="162.0" y="253.0"/>
      <point x="175.0" y="254.0"/>
      <point x="192.0" y="254.0" type="curve" smooth="yes"/>
      <point x="261.0" y="254.0"/>
      <point x="305.0" y="219.0"/>
      <point x="305.0" y="159.0" type="curve" smooth="yes"/>
      <point x="305.0" y="93.0"/>
      <point x="268.4682965346343" y="64.27216383572045"/>
      <point x="236.86056193245827" y="64.27216383572045" type="curve" smooth="yes"/>
      <point x="232.82657737452746" y="64.27216383572045"/>
      <point x="225.7365418179279" y="64.78907480908038"/>
      <point x="218.64650626132834" y="66.56158369823015" type="curve"/>
      <point x="196.83220826591332" y="81.0707609940639"/>
      <point x="170.63009513938528" y="108.40776644315156"/>
      <point x="145.39390079351165" y="143.40756845003716" type="curve"/>
      <point x="128.3706507901627" y="150.371625269589"/>
      <point x="116.74500909242124" y="151.06122165154306"/>
      <point x="103.90885956262332" y="151.06122165154306" type="curve" smooth="yes"/>
      <point x="62.99363293639226" y="151.06122165154306"/>
      <point x="38.0" y="123.0"/>
      <point x="38.0" y="89.0" type="curve" smooth="yes"/>
      <point x="38.0" y="33.0"/>
      <point x="110.0" y="-9.0"/>
    </contour>
  </outline>
</glyph>
<glyph name="four" format="2">
  <advance width="575.0"/>
  <unicode hex="0034"/>
  <note>
four
</note>
  <outline>
    <contour>
      <point x="458.0" y="139.0" type="curve"/>
      <point x="457.0" y="411.0" type="line"/>
      <point x="457.0" y="477.0"/>
      <point x="459.0" y="543.0"/>
      <point x="463.0" y="591.0" type="curve"/>
      <point x="363.0" y="591.0" type="line"/>
      <point x="30.0" y="193.0" type="line"/>
      <point x="39.0" y="139.0" type="line"/>
      <point x="541.0" y="139.0" type="line"/>
      <point x="541.0" y="238.0" type="line"/>
      <point x="146.0" y="238.0" type="line"/>
      <point x="153.0" y="217.0" type="line"/>
      <point x="309.0" y="432.0" type="line"/>
      <point x="294.0" y="432.0" type="line"/>
      <point x="294.0" y="139.0" type="line"/>
      <point x="294.0" y="100.0"/>
      <point x="294.0" y="90.0"/>
      <point x="293.0" y="76.0" type="curve"/>
      <point x="205.0" y="57.0" type="line"/>
      <point x="208.0" y="0.0" type="line"/>
      <point x="524.0" y="0.0" type="line"/>
      <point x="527.0" y="57.0" type="line"/>
      <point x="459.0" y="76.0" type="line"/>
      <point x="458.0" y="90.0"/>
      <point x="458.0" y="100.0"/>
    </contour>
  </outline>
</glyph>
<glyph name="six" format="2">
  <advance width="588.0"/>
  <unicode hex="0036"/>
  <note>
six
</note>
  <outline>
    <contour>
      <point x="199.0" y="273.0" type="curve"/>
      <point x="198.0" y="221.0" type="line"/>
      <point x="210.0" y="232.0"/>
      <point x="252.0" y="265.0"/>
      <point x="295.0" y="265.0" type="curve" smooth="yes"/>
      <point x="342.0" y="265.0"/>
      <point x="370.0" y="222.0"/>
      <point x="370.0" y="151.0" type="curve" smooth="yes"/>
      <point x="370.0" y="102.0"/>
      <point x="342.0" y="61.0"/>
      <point x="307.0" y="61.0" type="curve" smooth="yes"/>
      <point x="264.0" y="61.0"/>
      <point x="226.0" y="134.0"/>
      <point x="226.0" y="215.0" type="curve" smooth="yes"/>
      <point x="226.0" y="403.0"/>
      <point x="302.0" y="493.0"/>
      <point x="491.0" y="534.0" type="curve"/>
      <point x="472.0" y="605.0" type="line"/>
      <point x="206.0" y="590.0"/>
      <point x="57.0" y="413.0"/>
      <point x="57.0" y="239.0" type="curve" smooth="yes"/>
      <point x="57.0" y="107.0"/>
      <point x="155.0" y="-9.0"/>
      <point x="295.0" y="-9.0" type="curve" smooth="yes"/>
      <point x="431.0" y="-9.0"/>
      <point x="529.0" y="82.0"/>
      <point x="529.0" y="201.0" type="curve" smooth="yes"/>
      <point x="529.0" y="299.0"/>
      <point x="455.0" y="377.0"/>
      <point x="362.0" y="377.0" type="curve" smooth="yes"/>
      <point x="311.0" y="377.0"/>
      <point x="250.0" y="330.0"/>
    </contour>
  </outline>
</glyph>
<glyph name="nine" format="2">
  <advance width="588.0"/>
  <unicode hex="0039"/>
  <note>
nine
</note>
  <outline>
    <contour>
      <point x="389.0" y="314.0" type="curve"/>
      <point x="391.0" y="369.0" type="line"/>
      <point x="379.0" y="355.0"/>
      <point x="337.0" y="322.0"/>
      <point x="293.0" y="322.0" type="curve" smooth="yes"/>
      <point x="246.0" y="322.0"/>
      <point x="218.0" y="365.0"/>
      <point x="218.0" y="436.0" type="curve" smooth="yes"/>
      <point x="218.0" y="485.0"/>
      <point x="246.0" y="526.0"/>
      <point x="282.0" y="526.0" type="curve" smooth="yes"/>
      <point x="324.0" y="526.0"/>
      <point x="363.0" y="453.0"/>
      <point x="363.0" y="372.0" type="curve" smooth="yes"/>
      <point x="363.0" y="183.0"/>
      <point x="286.0" y="93.0"/>
      <point x="97.0" y="52.0" type="curve"/>
      <point x="116.0" y="-19.0" type="line"/>
      <point x="382.0" y="-4.0"/>
      <point x="531.0" y="173.0"/>
      <point x="531.0" y="348.0" type="curve" smooth="yes"/>
      <point x="531.0" y="480.0"/>
      <point x="433.0" y="596.0"/>
      <point x="294.0" y="596.0" type="curve" smooth="yes"/>
      <point x="157.0" y="596.0"/>
      <point x="59.0" y="505.0"/>
      <point x="59.0" y="386.0" type="curve" smooth="yes"/>
      <point x="59.0" y="288.0"/>
      <point x="133.0" y="210.0"/>
      <point x="226.0" y="210.0" type="curve" smooth="yes"/>
      <point x="278.0" y="210.0"/>
      <point x="338.0" y="257.0"/>
    </contour>
  </outline>
</glyph>
<glyph name="A" format="2">
  <advance width="633.0"/>
  <unicode hex="0041"/>
  <note>
A
</note>
  <anchor x="270.0" y="0.0" name="bottom"/>
  <anchor x="588.0" y="0.0" name="ogonek"/>
  <anchor x="301.0" y="587.0" name="top"/>
  <outline>
    <contour>
      <point x="0.0" y="0.0" type="line"/>
      <point x="210.0" y="0.0" type="line"/>
      <point x="213.0" y="57.0" type="line"/>
      <point x="147.0" y="76.0" type="line"/>
      <point x="191.0" y="203.0" type="line"/>
      <point x="200.0" y="233.0" type="line"/>
      <point x="270.0" y="420.0" type="line"/>
      <point x="236.0" y="442.0" type="line"/>
      <point x="331.0" y="228.0" type="line"/>
      <point x="342.0" y="191.0" type="line"/>
      <point x="391.0" y="76.0" type="line"/>
      <point x="325.0" y="57.0" type="line"/>
      <point x="330.0" y="0.0" type="line"/>
      <point x="639.0" y="0.0" type="line"/>
      <point x="642.0" y="57.0" type="line"/>
      <point x="589.0" y="76.0" type="line"/>
      <point x="351.0" y="605.0" type="line"/>
      <point x="252.0" y="550.0" type="line"/>
      <point x="50.0" y="76.0" type="line"/>
      <point x="-3.0" y="57.0" type="line"/>
    </contour>
    <contour>
      <point x="162.0" y="160.0" type="line"/>
      <point x="172.0" y="161.0"/>
      <point x="199.0" y="163.0"/>
      <point x="264.0" y="163.0" type="curve" smooth="yes"/>
      <point x="327.0" y="163.0"/>
      <point x="356.0" y="161.0"/>
      <point x="367.0" y="161.0" type="curve"/>
      <point x="367.0" y="238.0" type="line"/>
      <point x="340.0" y="237.0"/>
      <point x="313.0" y="233.0"/>
      <point x="264.0" y="233.0" type="curve" smooth="yes"/>
      <point x="213.0" y="233.0"/>
      <point x="190.0" y="237.0"/>
      <point x="162.0" y="238.0" type="curve"/>
    </contour>
  </outline>
</glyph>
<glyph name="D" format="2">
  <advance width="727.0"/>
  <unicode hex="0044"/>
  <note>
D
</note>
  <anchor x="350.0" y="0.0" name="bottom"/>
  <anchor x="370.0" y="294.0" name="center"/>
  <anchor x="225.0" y="294.0" name="stroke"/>
  <anchor x="360.0" y="587.0" name="top"/>
  <outline>
    <contour>
      <point x="35.0" y="587.0" type="line"/>
      <point x="32.0" y="530.0" type="line"/>
      <point x="97.0" y="513.0" type="line"/>
      <point x="101.0" y="507.0"/>
      <point x="104.0" y="438.0"/>
      <point x="104.0" y="354.0" type="curve" smooth="yes"/>
      <point x="104.0" y="234.0" type="line" smooth="yes"/>
      <point x="104.0" y="147.0"/>
      <point x="101.0" y="81.0"/>
      <point x="97.0" y="76.0" type="curve"/>
      <point x="32.0" y="57.0" type="line"/>
      <point x="35.0" y="0.0" type="line"/>
      <point x="340.0" y="0.0" type="line" smooth="yes"/>
      <point x="537.0" y="0.0"/>
      <point x="679.0" y="127.0"/>
      <point x="679.0" y="302.0" type="curve" smooth="yes"/>
      <point x="679.0" y="481.0"/>
      <point x="550.0" y="587.0"/>
      <point x="332.0" y="587.0" type="curve" smooth="yes"/>
    </contour>
    <contour>
      <point x="273.0" y="512.0" type="curve"/>
      <point x="289.0" y="515.0"/>
      <point x="309.0" y="516.0"/>
      <point x="325.0" y="516.0" type="curve" smooth="yes"/>
      <point x="399.0" y="516.0"/>
      <point x="497.0" y="465.0"/>
      <point x="497.0" y="269.0" type="curve" smooth="yes"/>
      <point x="497.0" y="130.0"/>
      <point x="449.0" y="76.0"/>
      <point x="353.0" y="76.0" type="curve" smooth="yes"/>
      <point x="329.0" y="76.0"/>
      <point x="297.0" y="79.0"/>
      <point x="276.0" y="85.0" type="curve"/>
      <point x="273.0" y="113.0"/>
      <point x="271.0" y="186.0"/>
      <point x="271.0" y="234.0" type="curve" smooth="yes"/>
      <point x="271.0" y="354.0" type="line" smooth="yes"/>
      <point x="271.0" y="438.0"/>
      <point x="272.0" y="501.0"/>
    </contour>
  </outline>
</glyph>
<glyph name="G" format="2">
  <advance width="672.0"/>
  <unicode hex="0047"/>
  <note>
G
</note>
  <anchor x="353.0" y="0.0" name="bottom"/>
  <anchor x="353.0" y="587.0" name="top"/>
  <outline>
    <contour>
      <point x="371.0" y="-9.0" type="curve" smooth="yes"/>
      <point x="448.0" y="-9.0"/>
      <point x="525.0" y="7.0"/>
      <point x="586.0" y="44.0" type="curve"/>
      <point x="584.0" y="80.0"/>
      <point x="583.0" y="111.0"/>
      <point x="583.0" y="124.0" type="curve" smooth="yes"/>
      <point x="583.0" y="149.0"/>
      <point x="582.0" y="181.0"/>
      <point x="584.0" y="201.0" type="curve"/>
      <point x="637.0" y="221.0" type="line"/>
      <point x="634.0" y="278.0" type="line"/>
      <point x="346.0" y="278.0" type="line"/>
      <point x="343.0" y="219.0" type="line"/>
      <point x="416.0" y="200.0" type="line"/>
      <point x="418.0" y="182.0"/>
      <point x="421.0" y="146.0"/>
      <point x="421.0" y="128.0" type="curve" smooth="yes"/>
      <point x="421.0" y="21.0" type="line"/>
      <point x="444.0" y="74.0" type="line"/>
      <point x="432.0" y="72.0"/>
      <point x="414.0" y="70.0"/>
      <point x="406.0" y="70.0" type="curve" smooth="yes"/>
      <point x="312.0" y="70.0"/>
      <point x="235.0" y="164.0"/>
      <point x="235.0" y="309.0" type="curve" smooth="yes"/>
      <point x="235.0" y="449.0"/>
      <point x="302.0" y="520.0"/>
      <point x="396.0" y="520.0" type="curve" smooth="yes"/>
      <point x="419.0" y="520.0"/>
      <point x="444.0" y="517.0"/>
      <point x="469.0" y="505.0" type="curve"/>
      <point x="502.0" y="410.0" type="line"/>
      <point x="576.0" y="412.0" type="line"/>
      <point x="572.0" y="560.0" type="line"/>
      <point x="535.0" y="580.0"/>
      <point x="470.0" y="596.0"/>
      <point x="406.0" y="596.0" type="curve" smooth="yes"/>
      <point x="205.0" y="596.0"/>
      <point x="41.0" y="491.0"/>
      <point x="41.0" y="275.0" type="curve" smooth="yes"/>
      <point x="41.0" y="101.0"/>
      <point x="172.0" y="-9.0"/>
    </contour>
  </outline>
</glyph>
<glyph name="J" format="2">
  <advance width="374.0"/>
  <unicode hex="004A"/>
  <note>
    J
  </note>
  <anchor x="187.0" y="587.0" name="top"/>
  <outline>
    <contour>
      <point x="277.0" y="513.0" type="curve"/>
      <point x="342.0" y="530.0" type="line"/>
      <point x="339.0" y="587.0" type="line"/>
      <point x="26.0" y="587.0" type="line"/>
      <point x="23.0" y="530.0" type="line"/>
      <point x="95.0" y="515.0" type="line"/>
      <point x="99.0" y="504.0"/>
      <point x="103.0" y="425.0"/>
      <point x="103.0" y="360.0" type="curve"/>
      <point x="105.0" y="-18.0" type="line"/>
      <point x="105.0" y="-95.38506844617291"/>
      <point x="55.691322277773224" y="-151.67350166828714"/>
      <point x="-5.725755294947817" y="-176.9227446704058" type="curve"/>
      <point x="29.759667302624393" y="-230.83329053979446" type="line"/>
      <point x="187.46234462201915" y="-183.6267598934552"/>
      <point x="272.0" y="-109.1861681887367"/>
      <point x="272.0" y="35.0" type="curve"/>
      <point x="270.0" y="357.0" type="line"/>
      <point x="270.0" y="430.0"/>
      <point x="273.0" y="504.0"/>
    </contour>
  </outline>
</glyph>
<glyph name="K" format="2">
  <advance width="704.0"/>
  <unicode hex="004B"/>
  <note>
K
</note>
  <anchor x="345.0" y="0.0" name="bottom"/>
  <anchor x="345.0" y="587.0" name="top"/>
  <outline>
    <contour>
      <point x="379.0" y="0.0" type="line"/>
      <point x="717.0" y="0.0" type="line"/>
      <point x="717.0" y="58.0" type="line"/>
      <point x="664.0" y="64.0" type="line"/>
      <point x="657.0" y="72.0"/>
      <point x="644.0" y="83.0"/>
      <point x="589.0" y="151.0" type="curve" smooth="yes"/>
      <point x="395.0" y="392.0" type="line"/>
      <point x="403.0" y="340.0" type="line"/>
      <point x="608.0" y="517.0" type="line"/>
      <point x="681.0" y="528.0" type="line"/>
      <point x="678.0" y="587.0" type="line"/>
      <point x="428.0" y="587.0" type="line"/>
      <point x="425.0" y="530.0" type="line"/>
      <point x="490.0" y="519.0" type="line"/>
      <point x="284.0" y="309.0" type="line"/>
      <point x="250.0" y="303.0" type="line"/>
      <point x="250.0" y="250.0" type="line"/>
      <point x="286.0" y="250.0" type="line"/>
      <point x="391.0" y="115.0" type="line" smooth="yes"/>
      <point x="411.0" y="88.0"/>
      <point x="414.0" y="82.0"/>
      <point x="421.0" y="67.0" type="curve"/>
      <point x="374.0" y="57.0" type="line"/>
    </contour>
    <contour>
      <point x="37.0" y="0.0" type="line"/>
      <point x="319.0" y="0.0" type="line"/>
      <point x="322.0" y="57.0" type="line"/>
      <point x="276.0" y="76.0" type="line"/>
      <point x="273.0" y="83.0"/>
      <point x="271.0" y="152.0"/>
      <point x="271.0" y="234.0" type="curve" smooth="yes"/>
      <point x="271.0" y="354.0" type="line" smooth="yes"/>
      <point x="271.0" y="423.0"/>
      <point x="274.0" y="501.0"/>
      <point x="278.0" y="511.0" type="curve"/>
      <point x="343.0" y="530.0" type="line"/>
      <point x="340.0" y="587.0" type="line"/>
      <point x="34.0" y="587.0" type="line"/>
      <point x="31.0" y="530.0" type="line"/>
      <point x="96.0" y="511.0" type="line"/>
      <point x="100.0" y="505.0"/>
      <point x="104.0" y="431.0"/>
      <point x="104.0" y="354.0" type="curve" smooth="yes"/>
      <point x="104.0" y="234.0" type="line" smooth="yes"/>
      <point x="104.0" y="152.0"/>
      <point x="102.0" y="83.0"/>
      <point x="99.0" y="76.0" type="curve"/>
      <point x="34.0" y="57.0" type="line"/>
    </contour>
  </outline>
</glyph>
<glyph name="N" format="2">
  <advance width="719.0"/>
  <unicode hex="004E"/>
  <note>
N
</note>
  <anchor x="358.0" y="0.0" name="bottom"/>
  <anchor x="358.0" y="587.0" name="top"/>
  <outline>
    <contour>
      <point x="530.0" y="210.0" type="line"/>
      <point x="585.0" y="210.0" type="line"/>
      <point x="207.0" y="587.0" type="line"/>
      <point x="35.0" y="587.0" type="line"/>
      <point x="32.0" y="530.0" type="line"/>
      <point x="97.0" y="511.0" type="line"/>
      <point x="99.0" y="494.0"/>
      <point x="104.0" y="417.0"/>
      <point x="104.0" y="394.0" type="curve" smooth="yes"/>
      <point x="104.0" y="286.0" type="line" smooth="yes"/>
      <point x="104.0" y="196.0"/>
      <point x="101.0" y="89.0"/>
      <point x="97.0" y="76.0" type="curve"/>
      <point x="32.0" y="57.0" type="line"/>
      <point x="35.0" y="0.0" type="line"/>
      <point x="268.0" y="0.0" type="line"/>
      <point x="271.0" y="57.0" type="line"/>
      <point x="200.0" y="76.0" type="line"/>
      <point x="193.0" y="90.0"/>
      <point x="192.0" y="185.0"/>
      <point x="192.0" y="286.0" type="curve" smooth="yes"/>
      <point x="192.0" y="442.0" type="line"/>
      <point x="118.0" y="442.0" type="line"/>
      <point x="542.0" y="-6.0" type="line"/>
      <point x="613.0" y="-6.0" type="line"/>
      <point x="613.0" y="41.0"/>
      <point x="614.0" y="85.0"/>
      <point x="614.0" y="159.0" type="curve" smooth="yes"/>
      <point x="614.0" y="320.0" type="line" smooth="yes"/>
      <point x="614.0" y="405.0"/>
      <point x="616.0" y="501.0"/>
      <point x="621.0" y="511.0" type="curve"/>
      <point x="686.0" y="530.0" type="line"/>
      <point x="683.0" y="587.0" type="line"/>
      <point x="455.0" y="587.0" type="line"/>
      <point x="452.0" y="530.0" type="line"/>
      <point x="523.0" y="511.0" type="line"/>
      <point x="528.0" y="501.0"/>
      <point x="530.0" y="404.0"/>
      <point x="530.0" y="320.0" type="curve" smooth="yes"/>
    </contour>
  </outline>
</glyph>
<glyph name="P" format="2">
  <advance width="611.0"/>
  <unicode hex="0050"/>
  <note>
P
</note>
  <anchor x="188.0" y="0.0" name="bottom"/>
  <anchor x="312.0" y="587.0" name="top"/>
  <outline>
    <contour>
      <point x="37.0" y="0.0" type="line"/>
      <point x="357.0" y="0.0" type="line"/>
      <point x="360.0" y="59.0" type="line"/>
      <point x="279.0" y="75.0" type="line"/>
      <point x="277.0" y="84.0"/>
      <point x="272.0" y="163.0"/>
      <point x="272.0" y="229.0" type="curve"/>
      <point x="271.0" y="362.0" type="line"/>
      <point x="271.0" y="468.0"/>
      <point x="271.0" y="506.0"/>
      <point x="272.0" y="524.0" type="curve"/>
      <point x="284.0" y="524.0" type="line" smooth="yes"/>
      <point x="363.0" y="524.0"/>
      <point x="403.0" y="486.0"/>
      <point x="403.0" y="399.0" type="curve" smooth="yes"/>
      <point x="403.0" y="328.0"/>
      <point x="373.0" y="286.0"/>
      <point x="319.0" y="286.0" type="curve" smooth="yes"/>
      <point x="287.0" y="286.0"/>
      <point x="265.0" y="292.0"/>
      <point x="258.0" y="296.0" type="curve"/>
      <point x="258.0" y="218.0" type="line"/>
      <point x="277.0" y="214.0"/>
      <point x="300.0" y="211.0"/>
      <point x="317.0" y="211.0" type="curve" smooth="yes"/>
      <point x="494.0" y="211.0"/>
      <point x="581.0" y="303.0"/>
      <point x="581.0" y="413.0" type="curve" smooth="yes"/>
      <point x="581.0" y="525.0"/>
      <point x="498.0" y="587.0"/>
      <point x="314.0" y="587.0" type="curve" smooth="yes"/>
      <point x="34.0" y="587.0" type="line"/>
      <point x="31.0" y="530.0" type="line"/>
      <point x="96.0" y="517.0" type="line"/>
      <point x="101.0" y="509.0"/>
      <point x="104.0" y="425.0"/>
      <point x="104.0" y="362.0" type="curve"/>
      <point x="103.0" y="229.0" type="line"/>
      <point x="103.0" y="163.0"/>
      <point x="100.0" y="84.0"/>
      <point x="95.0" y="76.0" type="curve"/>
      <point x="34.0" y="57.0" type="line"/>
    </contour>
  </outline>
</glyph>
<glyph name="Q" format="2">
  <advance width="726.0"/>
  <unicode hex="0051"/>
  <note>
Q
</note>
  <anchor x="363.0" y="587.0" name="top"/>
  <outline>
    <contour>
      <point x="370.0" y="-6.0" type="curve"/>
      <point x="385.0" y="-3.0" type="line"/>
      <point x="497.0" y="-3.0"/>
      <point x="684.0" y="81.0"/>
      <point x="684.0" y="304.0" type="curve" smooth="yes"/>
      <point x="684.0" y="476.0"/>
      <point x="554.0" y="596.0"/>
      <point x="369.0" y="596.0" type="curve" smooth="yes"/>
      <point x="178.0" y="596.0"/>
      <point x="41.0" y="464.0"/>
      <point x="41.0" y="283.0" type="curve" smooth="yes"/>
      <point x="41.0" y="114.0"/>
      <point x="180.0" y="-6.0"/>
    </contour>
    <contour>
      <point x="618.0" y="-155.0" type="curve" smooth="yes"/>
      <point x="682.0" y="-155.0"/>
      <point x="736.0" y="-136.0"/>
      <point x="771.0" y="-111.0" type="curve"/>
      <point x="754.0" y="-49.0" type="line"/>
      <point x="727.0" y="-56.0"/>
      <point x="705.0" y="-58.0"/>
      <point x="691.0" y="-58.0" type="curve" smooth="yes"/>
      <point x="659.0" y="-58.0"/>
      <point x="638.0" y="-50.0"/>
      <point x="579.0" y="-17.0" type="curve" smooth="yes"/>
      <point x="545.0" y="2.0"/>
      <point x="489.0" y="15.0"/>
      <point x="438.0" y="15.0" type="curve"/>
      <point x="258.0" y="15.0" type="line"/>
      <point x="290.0" y="-3.0"/>
      <point x="302.0" y="-11.0"/>
      <point x="347.0" y="-56.0" type="curve" smooth="yes"/>
      <point x="394.0" y="-103.0"/>
      <point x="474.0" y="-155.0"/>
    </contour>
    <contour>
      <point x="376.0" y="78.0" type="curve" smooth="yes"/>
      <point x="291.0" y="78.0"/>
      <point x="234.0" y="177.0"/>
      <point x="234.0" y="319.0" type="curve" smooth="yes"/>
      <point x="234.0" y="445.0"/>
      <point x="281.0" y="519.0"/>
      <point x="357.0" y="519.0" type="curve" smooth="yes"/>
      <point x="440.0" y="519.0"/>
      <point x="492.0" y="426.0"/>
      <point x="492.0" y="277.0" type="curve" smooth="yes"/>
      <point x="492.0" y="143.0"/>
      <point x="456.0" y="78.0"/>
    </contour>
  </outline>
</glyph>
<glyph name="R" format="2">
  <advance width="648.6673822343944"/>
  <unicode hex="0052"/>
  <note>
    R
  </note>
  <anchor x="354.0" y="0.0" name="bottom"/>
  <anchor x="326.0" y="587.0" name="top"/>
  <outline>
    <contour>
      <point x="39.0" y="0.0" type="line"/>
      <point x="323.0" y="0.0" type="line"/>
      <point x="326.0" y="57.0" type="line"/>
      <point x="272.0" y="75.0" type="line"/>
      <point x="272.0" y="111.0"/>
      <point x="270.0" y="201.0"/>
      <point x="270.0" y="234.0" type="curve" smooth="yes"/>
      <point x="270.0" y="356.0" type="line" smooth="yes"/>
      <point x="270.0" y="407.0"/>
      <point x="271.0" y="514.0"/>
      <point x="272.0" y="524.0" type="curve"/>
      <point x="298.0" y="524.0" type="line" smooth="yes"/>
      <point x="356.0" y="524.0"/>
      <point x="388.0" y="492.0"/>
      <point x="388.0" y="435.0" type="curve" smooth="yes"/>
      <point x="388.0" y="371.0"/>
      <point x="346.0" y="326.0"/>
      <point x="289.0" y="326.0" type="curve" smooth="yes"/>
      <point x="244.0" y="326.0" type="line"/>
      <point x="244.0" y="260.0" type="line"/>
      <point x="317.0" y="260.0" type="line" smooth="yes"/>
      <point x="460.0" y="260.0"/>
      <point x="563.0" y="331.0"/>
      <point x="563.0" y="430.0" type="curve" smooth="yes"/>
      <point x="563.0" y="540.0"/>
      <point x="487.0" y="587.0"/>
      <point x="317.0" y="587.0" type="curve" smooth="yes"/>
      <point x="34.0" y="587.0" type="line"/>
      <point x="31.0" y="530.0" type="line"/>
      <point x="96.0" y="511.0" type="line"/>
      <point x="100.0" y="505.0"/>
      <point x="104.0" y="431.0"/>
      <point x="104.0" y="354.0" type="curve" smooth="yes"/>
      <point x="104.0" y="234.0" type="line" smooth="yes"/>
      <point x="104.0" y="188.0"/>
      <point x="102.0" y="90.0"/>
      <point x="101.0" y="75.0" type="curve"/>
      <point x="36.0" y="57.0" type="line"/>
    </contour>
    <contour>
      <point x="454.7086169263707" y="0.2690606199789727" type="curve"/>
      <point x="644.6946897470825" y="0.0653488049608768" type="line"/>
      <point x="648.6673822343944" y="56.22746154891365" type="line"/>
      <point x="603.9745917521366" y="67.15236588902098"/>
      <point x="580.4060065800695" y="77.91135633040382"/>
      <point x="553.1638548394183" y="121.49879911544599" type="curve" smooth="yes"/>
      <point x="445.90115768199985" y="305.99063822620565" type="line"/>
      <point x="291.44287377531737" y="271.66657513583164" type="line"/>
      <point x="390.0113334242544" y="78.84697939854527" type="line" smooth="yes"/>
      <point x="407.2094367762939" y="45.20405398813395"/>
      <point x="431.18233201651014" y="13.169434025184728"/>
    </contour>
  </outline>
</glyph>
<glyph name="S" format="2">
  <advance width="542.0"/>
  <unicode hex="0053"/>
  <note>
S
</note>
  <anchor x="279.0" y="0.0" name="bottom"/>
  <anchor x="279.0" y="587.0" name="top"/>
  <outline>
    <contour>
      <point x="245.0" y="-9.0" type="curve" smooth="yes"/>
      <point x="410.0" y="-9.0"/>
      <point x="518.0" y="69.0"/>
      <point x="518.0" y="177.0" type="curve" smooth="yes"/>
      <point x="518.0" y="374.0"/>
      <point x="227.0" y="331.0"/>
      <point x="227.0" y="454.0" type="curve" smooth="yes"/>
      <point x="227.0" y="502.0"/>
      <point x="266.0" y="525.0"/>
      <point x="310.0" y="525.0" type="curve" smooth="yes"/>
      <point x="334.0" y="525.0"/>
      <point x="355.0" y="521.0"/>
      <point x="374.0" y="513.0" type="curve"/>
      <point x="409.0" y="406.0" type="line"/>
      <point x="485.0" y="410.0" type="line"/>
      <point x="470.0" y="569.0" type="line"/>
      <point x="432.0" y="586.0"/>
      <point x="362.0" y="599.0"/>
      <point x="320.0" y="599.0" type="curve" smooth="yes"/>
      <point x="158.0" y="599.0"/>
      <point x="53.0" y="522.0"/>
      <point x="53.0" y="408.0" type="curve" smooth="yes"/>
      <point x="53.0" y="197.0"/>
      <point x="339.0" y="258.0"/>
      <point x="339.0" y="125.0" type="curve" smooth="yes"/>
      <point x="339.0" y="88.0"/>
      <point x="312.0" y="66.0"/>
      <point x="257.0" y="66.0" type="curve" smooth="yes"/>
      <point x="226.0" y="66.0"/>
      <point x="188.0" y="76.0"/>
      <point x="167.0" y="90.0" type="curve"/>
      <point x="130.0" y="202.0" type="line"/>
      <point x="52.0" y="198.0" type="line"/>
      <point x="56.0" y="39.0" type="line"/>
      <point x="110.0" y="9.0"/>
      <point x="189.0" y="-9.0"/>
    </contour>
  </outline>
</glyph>
<glyph name="T" format="2">
  <advance width="653.0"/>
  <unicode hex="0054"/>
  <note>
T
</note>
  <anchor x="325.0" y="0.0" name="bottom"/>
  <anchor x="326.0" y="303.0" name="stroke"/>
  <anchor x="326.0" y="587.0" name="top"/>
  <outline>
    <contour>
      <point x="609.0" y="593.0" type="line"/>
      <point x="583.0" y="592.0"/>
      <point x="480.0" y="587.0"/>
      <point x="441.0" y="587.0" type="curve" smooth="yes"/>
      <point x="207.0" y="587.0" type="line" smooth="yes"/>
      <point x="167.0" y="587.0"/>
      <point x="65.0" y="592.0"/>
      <point x="38.0" y="593.0" type="curve"/>
      <point x="18.0" y="404.0" type="line"/>
      <point x="91.0" y="398.0" type="line"/>
      <point x="126.0" y="518.0" type="line"/>
      <point x="138.0" y="520.0"/>
      <point x="160.0" y="521.0"/>
      <point x="181.0" y="521.0" type="curve" smooth="yes"/>
      <point x="213.0" y="521.0" type="line" smooth="yes"/>
      <point x="223.0" y="521.0"/>
      <point x="236.0" y="520.0"/>
      <point x="239.0" y="519.0" type="curve"/>
      <point x="240.0" y="507.0"/>
      <point x="242.0" y="406.0"/>
      <point x="242.0" y="309.0" type="curve" smooth="yes"/>
      <point x="242.0" y="242.0" type="line" smooth="yes"/>
      <point x="242.0" y="174.0"/>
      <point x="240.0" y="112.0"/>
      <point x="238.0" y="76.0" type="curve"/>
      <point x="149.0" y="59.0" type="line"/>
      <point x="152.0" y="0.0" type="line"/>
      <point x="500.0" y="0.0" type="line"/>
      <point x="503.0" y="59.0" type="line"/>
      <point x="414.0" y="76.0" type="line"/>
      <point x="412.0" y="112.0"/>
      <point x="410.0" y="174.0"/>
      <point x="410.0" y="242.0" type="curve" smooth="yes"/>
      <point x="410.0" y="309.0" type="line" smooth="yes"/>
      <point x="410.0" y="406.0"/>
      <point x="412.0" y="507.0"/>
      <point x="413.0" y="519.0" type="curve"/>
      <point x="416.0" y="520.0"/>
      <point x="428.0" y="521.0"/>
      <point x="439.0" y="521.0" type="curve" smooth="yes"/>
      <point x="470.0" y="521.0" type="line" smooth="yes"/>
      <point x="492.0" y="521.0"/>
      <point x="509.0" y="520.0"/>
      <point x="521.0" y="518.0" type="curve"/>
      <point x="560.0" y="400.0" type="line"/>
      <point x="633.0" y="405.0" type="line"/>
    </contour>
  </outline>
</glyph>
<glyph name="U" format="2">
  <advance width="733.0"/>
  <unicode hex="0055"/>
  <note>
U
</note>
  <anchor x="403.0" y="0.0" name="bottom"/>
  <anchor x="454.0" y="0.0" name="ogonek"/>
  <anchor x="402.0" y="587.0" name="top"/>
  <anchor x="690.0" y="587.0" name="topright"/>
  <outline>
    <contour>
      <point x="32.0" y="587.0" type="line"/>
      <point x="29.0" y="530.0" type="line"/>
      <point x="94.0" y="512.0" type="line"/>
      <point x="98.0" y="504.0"/>
      <point x="101.0" y="421.0"/>
      <point x="101.0" y="354.0" type="curve" smooth="yes"/>
      <point x="101.0" y="262.0" type="line" smooth="yes"/>
      <point x="101.0" y="88.0"/>
      <point x="199.0" y="-9.0"/>
      <point x="379.0" y="-9.0" type="curve" smooth="yes"/>
      <point x="541.0" y="-9.0"/>
      <point x="632.0" y="102.0"/>
      <point x="632.0" y="255.0" type="curve" smooth="yes"/>
      <point x="632.0" y="336.0" type="line" smooth="yes"/>
      <point x="632.0" y="405.0"/>
      <point x="635.0" y="506.0"/>
      <point x="640.0" y="512.0" type="curve"/>
      <point x="705.0" y="530.0" type="line"/>
      <point x="702.0" y="587.0" type="line"/>
      <point x="462.0" y="587.0" type="line"/>
      <point x="459.0" y="530.0" type="line"/>
      <point x="529.0" y="512.0" type="line"/>
      <point x="533.0" y="506.0"/>
      <point x="536.0" y="405.0"/>
      <point x="536.0" y="336.0" type="curve" smooth="yes"/>
      <point x="536.0" y="279.0" type="line" smooth="yes"/>
      <point x="536.0" y="166.0"/>
      <point x="498.0" y="103.0"/>
      <point x="403.0" y="103.0" type="curve" smooth="yes"/>
      <point x="308.0" y="103.0"/>
      <point x="268.0" y="170.0"/>
      <point x="269.0" y="282.0" type="curve"/>
      <point x="269.0" y="354.0" type="line"/>
      <point x="269.0" y="414.0"/>
      <point x="272.0" y="483.0"/>
      <point x="275.0" y="512.0" type="curve"/>
      <point x="340.0" y="530.0" type="line"/>
      <point x="337.0" y="587.0" type="line"/>
    </contour>
  </outline>
</glyph>
<glyph name="W" format="2">
  <advance width="1007.0"/>
  <unicode hex="0057"/>
  <note>
W
</note>
  <anchor x="513.0" y="0.0" name="bottom"/>
  <anchor x="513.0" y="587.0" name="top"/>
  <outline>
    <contour>
      <point x="514.0" y="382.0" type="line"/>
      <point x="461.0" y="476.0" type="line"/>
      <point x="331.0" y="154.0" type="line"/>
      <point x="396.0" y="154.0" type="line"/>
      <point x="241.0" y="511.0" type="line"/>
      <point x="290.0" y="530.0" type="line"/>
      <point x="287.0" y="587.0" type="line"/>
      <point x="-1.0" y="587.0" type="line"/>
      <point x="-4.0" y="530.0" type="line"/>
      <point x="49.0" y="511.0" type="line"/>
      <point x="285.0" y="-3.0" type="line"/>
      <point x="345.0" y="-3.0" type="line"/>
    </contour>
    <contour>
      <point x="662.0" y="-3.0" type="line"/>
      <point x="722.0" y="-3.0" type="line"/>
      <point x="956.0" y="511.0" type="line"/>
      <point x="1009.0" y="530.0" type="line"/>
      <point x="1006.0" y="587.0" type="line"/>
      <point x="787.0" y="587.0" type="line"/>
      <point x="784.0" y="530.0" type="line"/>
      <point x="851.0" y="511.0" type="line"/>
      <point x="713.0" y="154.0" type="line"/>
      <point x="766.0" y="154.0" type="line"/>
      <point x="608.0" y="511.0" type="line"/>
      <point x="673.0" y="530.0" type="line"/>
      <point x="670.0" y="587.0" type="line"/>
      <point x="375.0" y="587.0" type="line"/>
      <point x="372.0" y="530.0" type="line"/>
      <point x="421.0" y="511.0" type="line"/>
    </contour>
  </outline>
</glyph>
<glyph name="Z" format="2">
  <advance width="570.0"/>
  <unicode hex="005A"/>
  <note>
Z
</note>
  <anchor x="281.0" y="0.0" name="bottom"/>
  <anchor x="281.0" y="587.0" name="top"/>
  <outline>
    <contour>
      <point x="521.0" y="-6.0" type="curve"/>
      <point x="555.0" y="182.0" type="line"/>
      <point x="482.0" y="192.0" type="line"/>
      <point x="441.0" y="76.0" type="line"/>
      <point x="419.0" y="72.0"/>
      <point x="408.0" y="71.0"/>
      <point x="370.0" y="71.0" type="curve" smooth="yes"/>
      <point x="221.0" y="71.0" type="line"/>
      <point x="221.0" y="26.0" type="line"/>
      <point x="521.0" y="526.0" type="line"/>
      <point x="521.0" y="589.0" type="line"/>
      <point x="494.0" y="588.0"/>
      <point x="466.0" y="587.0"/>
      <point x="440.0" y="587.0" type="curve" smooth="yes"/>
      <point x="147.0" y="587.0" type="line" smooth="yes"/>
      <point x="122.0" y="587.0"/>
      <point x="72.0" y="587.0"/>
      <point x="39.0" y="590.0" type="curve"/>
      <point x="41.0" y="412.0" type="line"/>
      <point x="116.0" y="412.0" type="line"/>
      <point x="138.0" y="516.0" type="line"/>
      <point x="161.0" y="519.0"/>
      <point x="183.0" y="522.0"/>
      <point x="231.0" y="522.0" type="curve" smooth="yes"/>
      <point x="365.0" y="522.0" type="line"/>
      <point x="365.0" y="570.0" type="line"/>
      <point x="57.0" y="59.0" type="line"/>
      <point x="57.0" y="-4.0" type="line"/>
      <point x="84.0" y="-1.0"/>
      <point x="114.0" y="0.0"/>
      <point x="143.0" y="0.0" type="curve" smooth="yes"/>
      <point x="363.0" y="0.0" type="line" smooth="yes"/>
      <point x="402.0" y="0.0"/>
      <point x="496.0" y="-5.0"/>
    </contour>
  </outline>
</glyph>
<glyph name="backslash" format="2">
  <advance width="448.0"/>
  <unicode hex="005C"/>
  <note>
backslash
</note>
  <outline>
    <contour>
      <point x="412.0" y="-180.0" type="line"/>
      <point x="111.0" y="728.0" type="line"/>
      <point x="-4.0" y="728.0" type="line"/>
      <point x="297.0" y="-180.0" type="line"/>
    </contour>
  </outline>
</glyph>
<glyph name="asciicircum" format="2">
  <advance width="540.0"/>
  <unicode hex="005E"/>
  <outline>
    <contour>
      <point x="323.0" y="562.0" type="line"/>
      <point x="215.0" y="562.0" type="line"/>
      <point x="43.0" y="128.0" type="line"/>
      <point x="149.0" y="128.0" type="line"/>
      <point x="305.0" y="523.0" type="line"/>
      <point x="234.0" y="523.0" type="line"/>
      <point x="390.0" y="128.0" type="line"/>
      <point x="498.0" y="128.0" type="line"/>
    </contour>
  </outline>
</glyph>
<glyph name="underscore" format="2">
  <advance width="529.0"/>
  <unicode hex="005F"/>
  <note>
underscore
</note>
  <outline>
    <contour>
      <point x="35.0" y="-83.0" type="line"/>
      <point x="494.0" y="-83.0" type="line"/>
      <point x="494.0" y="0.0" type="line"/>
      <point x="35.0" y="0.0" type="line"/>
    </contour>
  </outline>
</glyph>
<glyph name="d" format="2">
  <advance width="577.0"/>
  <unicode hex="0064"/>
  <note>
d
</note>
  <anchor x="308.0" y="0.0" name="bottom"/>
  <anchor x="288.0" y="223.0" name="center"/>
  <anchor x="367.0" y="517.0" name="stroke"/>
  <anchor x="288.0" y="660.0" name="top"/>
  <anchor x="540.0" y="688.0" name="topright"/>
  <outline>
    <contour>
      <point x="379.0" y="-14.0" type="line"/>
      <point x="573.0" y="40.0" type="line"/>
      <point x="573.0" y="90.0" type="line"/>
      <point x="505.0" y="103.0" type="line"/>
      <point x="502.0" y="146.0"/>
      <point x="499.0" y="171.0"/>
      <point x="499.0" y="233.0" type="curve"/>
      <point x="500.0" y="467.0" type="line" smooth="yes"/>
      <point x="500.0" y="537.0"/>
      <point x="506.0" y="597.0"/>
      <point x="510.0" y="680.0" type="curve"/>
      <point x="477.0" y="700.0" type="line"/>
      <point x="260.0" y="645.0" type="line"/>
      <point x="262.0" y="595.0" type="line"/>
      <point x="334.0" y="587.0" type="line"/>
      <point x="336.0" y="554.0"/>
      <point x="338.0" y="502.0"/>
      <point x="338.0" y="445.0" type="curve"/>
      <point x="326.0" y="449.0"/>
      <point x="305.0" y="452.0"/>
      <point x="287.0" y="452.0" type="curve" smooth="yes"/>
      <point x="160.0" y="452.0"/>
      <point x="31.0" y="359.0"/>
      <point x="31.0" y="208.0" type="curve" smooth="yes"/>
      <point x="31.0" y="75.0"/>
      <point x="126.0" y="-11.0"/>
      <point x="227.0" y="-11.0" type="curve" smooth="yes"/>
      <point x="269.0" y="-11.0"/>
      <point x="312.0" y="10.0"/>
      <point x="342.0" y="71.0" type="curve"/>
      <point x="345.0" y="69.0" type="line"/>
      <point x="344.0" y="2.0" type="line"/>
    </contour>
    <contour>
      <point x="290.0" y="105.0" type="curve" smooth="yes"/>
      <point x="243.0" y="105.0"/>
      <point x="202.0" y="155.0"/>
      <point x="202.0" y="250.0" type="curve" smooth="yes"/>
      <point x="202.0" y="333.0"/>
      <point x="241.0" y="383.0"/>
      <point x="292.0" y="383.0" type="curve" smooth="yes"/>
      <point x="310.0" y="383.0"/>
      <point x="326.0" y="379.0"/>
      <point x="340.0" y="368.0" type="curve"/>
      <point x="340.0" y="138.0" type="line"/>
      <point x="330.0" y="115.0"/>
      <point x="300.0" y="105.0"/>
    </contour>
  </outline>
</glyph>
<glyph name="h" format="2">
  <advance width="614.0"/>
  <unicode hex="0068"/>
  <note>
h
</note>
  <anchor x="310.0" y="0.0" name="bottom"/>
  <anchor x="207.0" y="517.0" name="stroke"/>
  <anchor x="159.0" y="660.0" name="top"/>
  <outline>
    <contour>
      <point x="12.0" y="0.0" type="line"/>
      <point x="298.0" y="0.0" type="line"/>
      <point x="301.0" y="52.0" type="line"/>
      <point x="243.0" y="70.0" type="line"/>
      <point x="241.0" y="80.0"/>
      <point x="239.0" y="121.0"/>
      <point x="239.0" y="163.0" type="curve" smooth="yes"/>
      <point x="239.0" y="308.0" type="line"/>
      <point x="258.0" y="330.0"/>
      <point x="282.0" y="341.0"/>
      <point x="308.0" y="341.0" type="curve" smooth="yes"/>
      <point x="351.0" y="341.0"/>
      <point x="381.0" y="312.0"/>
      <point x="381.0" y="242.0" type="curve" smooth="yes"/>
      <point x="381.0" y="173.0" type="line" smooth="yes"/>
      <point x="381.0" y="148.0"/>
      <point x="379.0" y="95.0"/>
      <point x="376.0" y="70.0" type="curve"/>
      <point x="322.0" y="52.0" type="line"/>
      <point x="325.0" y="0.0" type="line"/>
      <point x="605.0" y="0.0" type="line"/>
      <point x="608.0" y="52.0" type="line"/>
      <point x="546.0" y="70.0" type="line"/>
      <point x="543.0" y="79.0"/>
      <point x="542.0" y="126.0"/>
      <point x="542.0" y="169.0" type="curve" smooth="yes"/>
      <point x="542.0" y="270.0" type="line" smooth="yes"/>
      <point x="542.0" y="382.0"/>
      <point x="480.0" y="454.0"/>
      <point x="388.0" y="454.0" type="curve" smooth="yes"/>
      <point x="330.0" y="454.0"/>
      <point x="276.0" y="425.0"/>
      <point x="238.0" y="369.0" type="curve"/>
      <point x="235.0" y="370.0" type="line"/>
      <point x="238.0" y="545.0"/>
      <point x="241.0" y="600.0"/>
      <point x="247.0" y="680.0" type="curve"/>
      <point x="214.0" y="700.0" type="line"/>
      <point x="-5.0" y="645.0" type="line"/>
      <point x="-3.0" y="594.0" type="line"/>
      <point x="71.0" y="584.0" type="line"/>
      <point x="75.0" y="527.0"/>
      <point x="77.0" y="452.0"/>
      <point x="77.0" y="360.0" type="curve" smooth="yes"/>
      <point x="77.0" y="232.0" type="line" smooth="yes"/>
      <point x="77.0" y="193.0"/>
      <point x="73.0" y="99.0"/>
      <point x="71.0" y="70.0" type="curve"/>
      <point x="9.0" y="52.0" type="line"/>
    </contour>
  </outline>
</glyph>
<glyph name="k" format="2">
  <advance width="602.0"/>
  <unicode hex="006B"/>
  <note>
k
</note>
  <anchor x="305.0" y="0.0" name="bottom"/>
  <anchor x="159.0" y="660.0" name="top"/>
  <outline>
    <contour>
      <point x="17.0" y="0.0" type="line"/>
      <point x="301.0" y="0.0" type="line"/>
      <point x="304.0" y="52.0" type="line"/>
      <point x="242.0" y="70.0" type="line"/>
      <point x="239.0" y="85.0"/>
      <point x="240.0" y="139.0"/>
      <point x="240.0" y="172.0" type="curve"/>
      <point x="241.0" y="385.0" type="line"/>
      <point x="241.0" y="566.0"/>
      <point x="242.0" y="612.0"/>
      <point x="248.0" y="680.0" type="curve"/>
      <point x="215.0" y="700.0" type="line"/>
      <point x="-4.0" y="645.0" type="line"/>
      <point x="-2.0" y="594.0" type="line"/>
      <point x="72.0" y="584.0" type="line"/>
      <point x="75.0" y="528.0"/>
      <point x="77.0" y="452.0"/>
      <point x="77.0" y="360.0" type="curve" smooth="yes"/>
      <point x="77.0" y="243.0" type="line" smooth="yes"/>
      <point x="77.0" y="194.0"/>
      <point x="74.0" y="107.0"/>
      <point x="71.0" y="70.0" type="curve"/>
      <point x="14.0" y="52.0" type="line"/>
    </contour>
    <contour>
      <point x="606.0" y="0.0" type="line"/>
      <point x="610.0" y="51.0" type="line"/>
      <point x="578.0" y="58.0" type="line"/>
      <point x="570.0" y="63.0"/>
      <point x="556.0" y="81.0"/>
      <point x="526.0" y="118.0" type="curve" smooth="yes"/>
      <point x="370.0" y="309.0" type="line"/>
      <point x="357.0" y="258.0" type="line"/>
      <point x="513.0" y="381.0" type="line"/>
      <point x="579.0" y="393.0" type="line"/>
      <point x="576.0" y="446.0" type="line"/>
      <point x="339.0" y="446.0" type="line"/>
      <point x="336.0" y="393.0" type="line"/>
      <point x="402.0" y="382.0" type="line"/>
      <point x="253.0" y="241.0" type="line"/>
      <point x="228.0" y="237.0" type="line"/>
      <point x="228.0" y="191.0" type="line"/>
      <point x="250.0" y="191.0" type="line"/>
      <point x="350.0" y="72.0" type="line" smooth="yes"/>
      <point x="370.0" y="48.0"/>
      <point x="386.0" y="24.0"/>
      <point x="402.0" y="0.0" type="curve"/>
    </contour>
  </outline>
</glyph>
<glyph name="l" format="2">
  <advance width="319.0"/>
  <unicode hex="006C"/>
  <note>
l
</note>
  <anchor x="160.0" y="0.0" name="bottom"/>
  <anchor x="160.0" y="334.0" name="center"/>
  <anchor x="362.0" y="334.0" name="dotacc"/>
  <anchor x="160.0" y="660.0" name="top"/>
  <anchor x="283.0" y="688.0" name="topright"/>
  <outline>
    <contour>
      <point x="9.0" y="0.0" type="line"/>
      <point x="308.0" y="0.0" type="line"/>
      <point x="311.0" y="54.0" type="line"/>
      <point x="246.0" y="70.0" type="line"/>
      <point x="243.0" y="86.0"/>
      <point x="242.0" y="151.0"/>
      <point x="242.0" y="254.0" type="curve"/>
      <point x="243.0" y="391.0" type="line" smooth="yes"/>
      <point x="244.0" y="537.0"/>
      <point x="242.0" y="598.0"/>
      <point x="249.0" y="680.0" type="curve"/>
      <point x="216.0" y="700.0" type="line"/>
      <point x="-5.0" y="645.0" type="line"/>
      <point x="-3.0" y="594.0" type="line"/>
      <point x="71.0" y="584.0" type="line"/>
      <point x="75.0" y="526.0"/>
      <point x="77.0" y="447.0"/>
      <point x="77.0" y="360.0" type="curve" smooth="yes"/>
      <point x="77.0" y="232.0" type="line" smooth="yes"/>
      <point x="77.0" y="193.0"/>
      <point x="73.0" y="99.0"/>
      <point x="71.0" y="70.0" type="curve"/>
      <point x="6.0" y="54.0" type="line"/>
    </contour>
  </outline>
</glyph>
<glyph name="m" format="2">
  <advance width="898.0"/>
  <unicode hex="006D"/>
  <note>
m
</note>
  <anchor x="453.0" y="0.0" name="bottom"/>
  <anchor x="453.0" y="446.0" name="top"/>
  <outline>
    <contour>
      <point x="13.0" y="0.0" type="line"/>
      <point x="293.0" y="0.0" type="line"/>
      <point x="296.0" y="52.0" type="line"/>
      <point x="244.0" y="70.0" type="line"/>
      <point x="242.0" y="81.0"/>
      <point x="240.0" y="129.0"/>
      <point x="240.0" y="163.0" type="curve" smooth="yes"/>
      <point x="240.0" y="308.0" type="line"/>
      <point x="254.0" y="327.0"/>
      <point x="282.0" y="341.0"/>
      <point x="305.0" y="341.0" type="curve" smooth="yes"/>
      <point x="346.0" y="341.0"/>
      <point x="372.0" y="319.0"/>
      <point x="372.0" y="257.0" type="curve"/>
      <point x="374.0" y="173.0" type="line"/>
      <point x="374.0" y="148.0"/>
      <point x="372.0" y="95.0"/>
      <point x="369.0" y="70.0" type="curve"/>
      <point x="321.0" y="52.0" type="line"/>
      <point x="324.0" y="0.0" type="line"/>
      <point x="586.0" y="0.0" type="line"/>
      <point x="589.0" y="52.0" type="line"/>
      <point x="539.0" y="70.0" type="line"/>
      <point x="536.0" y="79.0"/>
      <point x="535.0" y="127.0"/>
      <point x="535.0" y="169.0" type="curve"/>
      <point x="533.0" y="272.0" type="line"/>
      <point x="533.0" y="396.0"/>
      <point x="465.0" y="454.0"/>
      <point x="382.0" y="454.0" type="curve" smooth="yes"/>
      <point x="329.0" y="454.0"/>
      <point x="280.0" y="428.0"/>
      <point x="238.0" y="371.0" type="curve"/>
      <point x="235.0" y="372.0" type="line"/>
      <point x="241.0" y="434.0" type="line"/>
      <point x="207.0" y="452.0" type="line"/>
      <point x="6.0" y="401.0" type="line"/>
      <point x="6.0" y="349.0" type="line"/>
      <point x="70.0" y="335.0" type="line"/>
      <point x="77.0" y="293.0"/>
      <point x="77.0" y="277.0"/>
      <point x="78.0" y="241.0" type="curve"/>
      <point x="77.0" y="167.0" type="line" smooth="yes"/>
      <point x="76.0" y="135.0"/>
      <point x="73.0" y="80.0"/>
      <point x="72.0" y="70.0" type="curve"/>
      <point x="10.0" y="52.0" type="line"/>
    </contour>
    <contour>
      <point x="617.0" y="0.0" type="line"/>
      <point x="890.0" y="0.0" type="line"/>
      <point x="893.0" y="52.0" type="line"/>
      <point x="831.0" y="70.0" type="line"/>
      <point x="828.0" y="79.0"/>
      <point x="827.0" y="127.0"/>
      <point x="827.0" y="169.0" type="curve"/>
      <point x="824.0" y="269.0" type="line"/>
      <point x="824.0" y="392.0"/>
      <point x="754.0" y="454.0"/>
      <point x="656.0" y="454.0" type="curve" smooth="yes"/>
      <point x="591.0" y="454.0"/>
      <point x="536.0" y="418.0"/>
      <point x="487.0" y="349.0" type="curve"/>
      <point x="524.0" y="315.0" type="line"/>
      <point x="537.0" y="330.0"/>
      <point x="566.0" y="341.0"/>
      <point x="590.0" y="341.0" type="curve" smooth="yes"/>
      <point x="636.0" y="341.0"/>
      <point x="663.0" y="315.0"/>
      <point x="663.0" y="241.0" type="curve"/>
      <point x="666.0" y="173.0" type="line"/>
      <point x="666.0" y="150.0"/>
      <point x="664.0" y="95.0"/>
      <point x="661.0" y="70.0" type="curve"/>
      <point x="614.0" y="52.0" type="line"/>
    </contour>
  </outline>
</glyph>
<glyph name="p" format="2">
  <advance width="583.0"/>
  <unicode hex="0070"/>
  <note>
p
</note>
  <anchor x="295.0" y="446.0" name="top"/>
  <outline>
    <contour>
      <point x="9.0" y="-220.0" type="line"/>
      <point x="320.0" y="-220.0" type="line"/>
      <point x="323.0" y="-168.0" type="line"/>
      <point x="241.0" y="-150.0" type="line"/>
      <point x="238.0" y="-139.0"/>
      <point x="236.0" y="-94.0"/>
      <point x="236.0" y="-54.0" type="curve" smooth="yes"/>
      <point x="236.0" y="1.0" type="line"/>
      <point x="258.0" y="-5.0"/>
      <point x="276.0" y="-7.0"/>
      <point x="292.0" y="-7.0" type="curve" smooth="yes"/>
      <point x="456.0" y="-7.0"/>
      <point x="551.0" y="117.0"/>
      <point x="551.0" y="245.0" type="curve" smooth="yes"/>
      <point x="551.0" y="385.0"/>
      <point x="458.0" y="454.0"/>
      <point x="370.0" y="454.0" type="curve" smooth="yes"/>
      <point x="316.0" y="454.0"/>
      <point x="262.0" y="418.0"/>
      <point x="234.0" y="365.0" type="curve"/>
      <point x="231.0" y="367.0" type="line"/>
      <point x="239.0" y="434.0" type="line"/>
      <point x="205.0" y="452.0" type="line"/>
      <point x="4.0" y="401.0" type="line"/>
      <point x="4.0" y="349.0" type="line"/>
      <point x="68.0" y="335.0" type="line"/>
      <point x="75.0" y="295.0"/>
      <point x="76.0" y="277.0"/>
      <point x="76.0" y="238.0" type="curve" smooth="yes"/>
      <point x="74.0" y="69.0" type="line" smooth="yes"/>
      <point x="73.0" y="4.0"/>
      <point x="69.0" y="-127.0"/>
      <point x="68.0" y="-150.0" type="curve"/>
      <point x="6.0" y="-168.0" type="line"/>
    </contour>
    <contour>
      <point x="292.0" y="78.0" type="curve" smooth="yes"/>
      <point x="273.0" y="78.0"/>
      <point x="253.0" y="84.0"/>
      <point x="236.0" y="92.0" type="curve"/>
      <point x="236.0" y="312.0" type="line"/>
      <point x="250.0" y="328.0"/>
      <point x="273.0" y="340.0"/>
      <point x="293.0" y="340.0" type="curve" smooth="yes"/>
      <point x="331.0" y="340.0"/>
      <point x="378.0" y="316.0"/>
      <point x="378.0" y="207.0" type="curve" smooth="yes"/>
      <point x="379.0" y="106.0"/>
      <point x="339.0" y="78.0"/>
    </contour>
  </outline>
</glyph>
<glyph name="t" format="2">
  <advance width="388.0"/>
  <unicode hex="0074"/>
  <note>
    t
  </note>
  <anchor x="203.0" y="0.0" name="bottom"/>
  <anchor x="146.0" y="270.0" name="stroke"/>
  <anchor x="186.0" y="563.0" name="top"/>
  <anchor x="270.0" y="688.0" name="topright"/>
  <outline>
    <contour>
      <point x="392.17458466207836" y="82.55624291912545" type="curve"/>
      <point x="366.2934256242427" y="123.50255423271597" type="line"/>
      <point x="351.6145593042763" y="110.75511769169248"/>
      <point x="317.9208114496623" y="101.48425475276645"/>
      <point x="297.9208114496623" y="101.48425475276645" type="curve" smooth="yes"/>
      <point x="254.92081144966232" y="101.48425475276645"/>
      <point x="228.0" y="122.0"/>
      <point x="228.0" y="169.0" type="curve"/>
      <point x="230.0" y="401.0" type="line"/>
      <point x="232.0" y="559.0" type="line"/>
      <point x="197.0" y="559.0" type="line"/>
      <point x="-4.0" y="409.0" type="line"/>
      <point x="-4.0" y="373.0" type="line"/>
      <point x="66.0" y="373.0" type="line"/>
      <point x="63.0" y="159.0" type="line"/>
      <point x="63.0" y="45.0"/>
      <point x="133.0000000000013" y="-11.0"/>
      <point x="233.0" y="-11.0" type="curve" smooth="yes"/>
      <point x="300.2385271843939" y="-11.0"/>
      <point x="361.6579941547798" y="28.08992315293426"/>
    </contour>
    <contour>
      <point x="182.0" y="373.0" type="line"/>
      <point x="364.0" y="373.0" type="line"/>
      <point x="364.0" y="445.0" type="line"/>
      <point x="182.0" y="445.0" type="line"/>
    </contour>
  </outline>
</glyph>
<glyph name="z" format="2">
  <advance width="492.0"/>
  <unicode hex="007A"/>
  <note>
z
</note>
  <anchor x="246.0" y="0.0" name="bottom"/>
  <anchor x="246.0" y="446.0" name="top"/>
  <outline>
    <contour>
      <point x="213.0" y="19.0" type="line"/>
      <point x="450.0" y="391.0" type="line"/>
      <point x="450.0" y="448.0" type="line"/>
      <point x="421.0" y="447.0"/>
      <point x="390.0" y="446.0"/>
      <point x="361.0" y="446.0" type="curve" smooth="yes"/>
      <point x="143.0" y="446.0" type="line" smooth="yes"/>
      <point x="115.0" y="446.0"/>
      <point x="64.0" y="446.0"/>
      <point x="28.0" y="448.0" type="curve"/>
      <point x="31.0" y="287.0" type="line"/>
      <point x="105.0" y="287.0" type="line"/>
      <point x="119.0" y="374.0" type="line"/>
      <point x="140.0" y="376.0"/>
      <point x="165.0" y="379.0"/>
      <point x="210.0" y="379.0" type="curve" smooth="yes"/>
      <point x="291.0" y="379.0" type="line"/>
      <point x="290.0" y="427.0" type="line"/>
      <point x="45.0" y="54.0" type="line"/>
      <point x="45.0" y="-4.0" type="line"/>
      <point x="74.0" y="-1.0"/>
      <point x="105.0" y="0.0"/>
      <point x="134.0" y="0.0" type="curve" smooth="yes"/>
      <point x="349.0" y="0.0" type="line" smooth="yes"/>
      <point x="378.0" y="0.0"/>
      <point x="429.0" y="0.0"/>
      <point x="464.0" y="-3.0" type="curve"/>
      <point x="485.0" y="164.0" type="line"/>
      <point x="409.0" y="164.0" type="line"/>
      <point x="381.0" y="74.0" type="line"/>
      <point x="359.0" y="72.0"/>
      <point x="337.0" y="70.0"/>
      <point x="307.0" y="70.0" type="curve" smooth="yes"/>
      <point x="204.0" y="70.0" type="line"/>
    </contour>
  </outline>
</glyph>
<glyph name="braceleft" format="2">
  <advance width="388.0"/>
  <unicode hex="007B"/>
  <note>
braceleft
</note>
  <outline>
    <contour>
      <point x="270.0" y="-74.0" type="curve" smooth="yes"/>
      <point x="270.0" y="-9.0"/>
      <point x="308.0" y="35.0"/>
      <point x="308.0" y="115.0" type="curve" smooth="yes"/>
      <point x="308.0" y="195.0"/>
      <point x="244.0" y="256.0"/>
      <point x="158.0" y="266.0" type="curve"/>
      <point x="158.0" y="252.0" type="line"/>
      <point x="242.0" y="260.0"/>
      <point x="308.0" y="306.0"/>
      <point x="308.0" y="387.0" type="curve" smooth="yes"/>
      <point x="308.0" y="467.0"/>
      <point x="270.0" y="511.0"/>
      <point x="270.0" y="576.0" type="curve" smooth="yes"/>
      <point x="270.0" y="642.0"/>
      <point x="315.0" y="667.0"/>
      <point x="364.0" y="670.0" type="curve"/>
      <point x="347.0" y="730.0" type="line"/>
      <point x="190.0" y="714.0"/>
      <point x="81.0" y="667.0"/>
      <point x="81.0" y="556.0" type="curve" smooth="yes"/>
      <point x="81.0" y="482.0"/>
      <point x="139.0" y="416.0"/>
      <point x="139.0" y="358.0" type="curve" smooth="yes"/>
      <point x="139.0" y="315.0"/>
      <point x="128.0" y="292.0"/>
      <point x="39.0" y="289.0" type="curve"/>
      <point x="39.0" y="213.0" type="line"/>
      <point x="128.0" y="210.0"/>
      <point x="139.0" y="187.0"/>
      <point x="139.0" y="144.0" type="curve" smooth="yes"/>
      <point x="139.0" y="86.0"/>
      <point x="81.0" y="20.0"/>
      <point x="81.0" y="-54.0" type="curve" smooth="yes"/>
      <point x="81.0" y="-165.0"/>
      <point x="190.0" y="-212.0"/>
      <point x="347.0" y="-228.0" type="curve"/>
      <point x="364.0" y="-168.0" type="line"/>
      <point x="315.0" y="-165.0"/>
      <point x="270.0" y="-140.0"/>
    </contour>
  </outline>
</glyph>
<glyph name="asciitilde" format="2">
  <advance width="540.0"/>
  <unicode hex="007E"/>
  <outline>
    <contour>
      <point x="438.0" y="316.0" type="line"/>
      <point x="423.0" y="289.0"/>
      <point x="403.0" y="274.0"/>
      <point x="378.0" y="274.0" type="curve" smooth="yes"/>
      <point x="335.0" y="274.0"/>
      <point x="246.0" y="334.0"/>
      <point x="175.0" y="334.0" type="curve" smooth="yes"/>
      <point x="120.0" y="334.0"/>
      <point x="72.0" y="294.0"/>
      <point x="53.0" y="228.0" type="curve"/>
      <point x="102.0" y="195.0" type="line"/>
      <point x="119.0" y="225.0"/>
      <point x="139.0" y="240.0"/>
      <point x="162.0" y="240.0" type="curve" smooth="yes"/>
      <point x="205.0" y="240.0"/>
      <point x="294.0" y="178.0"/>
      <point x="365.0" y="178.0" type="curve" smooth="yes"/>
      <point x="420.0" y="178.0"/>
      <point x="468.0" y="220.0"/>
      <point x="487.0" y="284.0" type="curve"/>
    </contour>
  </outline>
</glyph>
<glyph name="currency" format="2">
  <advance width="540.0"/>
  <unicode hex="00A4"/>
  <note>
currency
</note>
  <outline>
    <contour>
      <point x="266.0" y="103.0" type="curve" smooth="yes"/>
      <point x="389.0" y="103.0"/>
      <point x="487.0" y="205.0"/>
      <point x="487.0" y="328.0" type="curve" smooth="yes"/>
      <point x="487.0" y="453.0"/>
      <point x="389.0" y="555.0"/>
      <point x="266.0" y="555.0" type="curve" smooth="yes"/>
      <point x="142.0" y="555.0"/>
      <point x="44.0" y="453.0"/>
      <point x="44.0" y="328.0" type="curve" smooth="yes"/>
      <point x="44.0" y="205.0"/>
      <point x="142.0" y="103.0"/>
    </contour>
    <contour>
      <point x="70.0" y="63.0" type="line"/>
      <point x="202.0" y="197.0" type="line"/>
      <point x="138.0" y="257.0" type="line"/>
      <point x="8.0" y="123.0" type="line"/>
    </contour>
    <contour>
      <point x="468.0" y="64.0" type="line"/>
      <point x="529.0" y="123.0" type="line"/>
      <point x="379.0" y="276.0" type="line"/>
      <point x="326.0" y="209.0" type="line"/>
    </contour>
    <contour>
      <point x="266.0" y="169.0" type="curve" smooth="yes"/>
      <point x="229.0" y="169.0"/>
      <point x="201.0" y="242.0"/>
      <point x="201.0" y="330.0" type="curve" smooth="yes"/>
      <point x="201.0" y="419.0"/>
      <point x="231.0" y="491.0"/>
      <point x="266.0" y="490.0" type="curve" smooth="yes"/>
      <point x="301.0" y="488.0"/>
      <point x="330.0" y="419.0"/>
      <point x="330.0" y="330.0" type="curve" smooth="yes"/>
      <point x="330.0" y="242.0"/>
      <point x="301.0" y="169.0"/>
    </contour>
    <contour>
      <point x="116.0" y="423.0" type="line"/>
      <point x="184.0" y="480.0" type="line"/>
      <point x="70.0" y="596.0" type="line"/>
      <point x="8.0" y="534.0" type="line"/>
    </contour>
    <contour>
      <point x="408.0" y="406.0" type="line"/>
      <point x="530.0" y="531.0" type="line"/>
      <point x="463.0" y="599.0" type="line"/>
      <point x="339.0" y="470.0" type="line"/>
    </contour>
  </outline>
</glyph>
<glyph name="ordfeminine" format="2">
  <advance width="446.0"/>
  <unicode hex="00AA"/>
  <note>
ordfeminine
</note>
  <outline>
    <contour>
      <point x="150.0" y="217.0" type="curve" smooth="yes"/>
      <point x="183.0" y="217.0"/>
      <point x="221.0" y="237.0"/>
      <point x="255.0" y="289.0" type="curve"/>
      <point x="237.0" y="294.0" type="line"/>
      <point x="258.0" y="258.0" type="line" smooth="yes"/>
      <point x="273.0" y="232.0"/>
      <point x="287.0" y="217.0"/>
      <point x="316.0" y="217.0" type="curve" smooth="yes"/>
      <point x="332.0" y="217.0"/>
      <point x="345.0" y="220.0"/>
      <point x="371.0" y="232.0" type="curve" smooth="yes"/>
      <point x="446.0" y="266.0" type="line"/>
      <point x="446.0" y="311.0" type="line"/>
      <point x="390.0" y="325.0" type="line"/>
      <point x="384.0" y="342.0"/>
      <point x="382.0" y="363.0"/>
      <point x="382.0" y="389.0" type="curve"/>
      <point x="382.0" y="463.0" type="line"/>
      <point x="383.0" y="544.0"/>
      <point x="322.0" y="595.0"/>
      <point x="202.0" y="595.0" type="curve"/>
      <point x="171.0" y="593.0"/>
      <point x="34.0" y="535.0"/>
      <point x="34.0" y="477.0" type="curve" smooth="yes"/>
      <point x="34.0" y="453.0"/>
      <point x="76.0" y="425.0"/>
      <point x="147.0" y="436.0" type="curve"/>
      <point x="152.0" y="497.0" type="line" smooth="yes"/>
      <point x="153.0" y="509.0"/>
      <point x="158.0" y="515.0"/>
      <point x="169.0" y="515.0" type="curve" smooth="yes"/>
      <point x="200.0" y="515.0"/>
      <point x="230.0" y="494.0"/>
      <point x="230.0" y="452.0" type="curve" smooth="yes"/>
      <point x="230.0" y="440.0" type="line"/>
      <point x="91.0" y="410.0" type="line" smooth="yes"/>
      <point x="44.0" y="400.0"/>
      <point x="26.0" y="368.0"/>
      <point x="26.0" y="330.0" type="curve" smooth="yes"/>
      <point x="26.0" y="279.0"/>
      <point x="76.0" y="217.0"/>
    </contour>
    <contour>
      <point x="224.0" y="311.0" type="curve" smooth="yes"/>
      <point x="186.0" y="311.0"/>
      <point x="175.0" y="329.0"/>
      <point x="175.0" y="350.0" type="curve" smooth="yes"/>
      <point x="175.0" y="371.0"/>
      <point x="188.0" y="383.0"/>
      <point x="207.0" y="386.0" type="curve" smooth="yes"/>
      <point x="232.0" y="390.0" type="line"/>
      <point x="232.0" y="313.0" type="line"/>
      <point x="228.0" y="311.0"/>
      <point x="226.0" y="311.0"/>
    </contour>
  </outline>
</glyph>
<glyph name="registered" format="2">
  <advance width="822.0"/>
  <unicode hex="00AE"/>
  <outline>
    <contour>
      <point x="210.0" y="204.0" type="line"/>
      <point x="213.0" y="157.0" type="line"/>
      <point x="427.0" y="157.0" type="line"/>
      <point x="430.0" y="204.0" type="line"/>
      <point x="403.0" y="218.0" type="line"/>
      <point x="403.0" y="231.0"/>
      <point x="401.0" y="296.0"/>
      <point x="401.0" y="329.0" type="curve" smooth="yes"/>
      <point x="401.0" y="505.0" type="line"/>
      <point x="411.0" y="505.0" type="line" smooth="yes"/>
      <point x="440.0" y="505.0"/>
      <point x="464.0" y="492.0"/>
      <point x="464.0" y="440.0" type="curve" smooth="yes"/>
      <point x="464.0" y="395.0"/>
      <point x="436.0" y="375.0"/>
      <point x="407.0" y="375.0" type="curve" smooth="yes"/>
      <point x="405.0" y="375.0"/>
      <point x="400.0" y="375.0"/>
      <point x="398.0" y="375.0" type="curve"/>
      <point x="398.0" y="330.0" type="line"/>
      <point x="435.0" y="330.0" type="line" smooth="yes"/>
      <point x="539.0" y="330.0"/>
      <point x="617.0" y="377.0"/>
      <point x="617.0" y="442.0" type="curve" smooth="yes"/>
      <point x="617.0" y="531.0"/>
      <point x="541.0" y="554.0"/>
      <point x="426.0" y="554.0" type="curve"/>
      <point x="208.0" y="554.0" type="line"/>
      <point x="205.0" y="507.0" type="line"/>
      <point x="250.0" y="494.0" type="line"/>
      <point x="255.0" y="488.0"/>
      <point x="257.0" y="419.0"/>
      <point x="257.0" y="384.0" type="curve" smooth="yes"/>
      <point x="257.0" y="329.0" type="line" smooth="yes"/>
      <point x="257.0" y="296.0"/>
      <point x="256.0" y="224.0"/>
      <point x="255.0" y="218.0" type="curve"/>
    </contour>
    <contour>
      <point x="588.0" y="152.0" type="curve" smooth="yes"/>
      <point x="609.0" y="152.0"/>
      <point x="625.0" y="153.0"/>
      <point x="645.0" y="158.0" type="curve"/>
      <point x="654.0" y="200.0" type="line"/>
      <point x="621.0" y="215.0"/>
      <point x="603.0" y="237.0"/>
      <point x="596.0" y="250.0" type="curve" smooth="yes"/>
      <point x="529.0" y="365.0" type="line"/>
      <point x="409.0" y="340.0" type="line"/>
      <point x="440.0" y="259.0" type="line" smooth="yes"/>
      <point x="469.0" y="183.0"/>
      <point x="496.0" y="152.0"/>
    </contour>
    <contour>
      <point x="412.0" y="-13.0" type="curve" smooth="yes"/>
      <point x="619.0" y="-13.0"/>
      <point x="780.0" y="144.0"/>
      <point x="780.0" y="349.0" type="curve" smooth="yes"/>
      <point x="780.0" y="555.0"/>
      <point x="619.0" y="711.0"/>
      <point x="412.0" y="711.0" type="curve" smooth="yes"/>
      <point x="203.0" y="711.0"/>
      <point x="41.0" y="555.0"/>
      <point x="41.0" y="349.0" type="curve" smooth="yes"/>
      <point x="41.0" y="144.0"/>
      <point x="204.0" y="-13.0"/>
    </contour>
    <contour>
      <point x="412.0" y="43.0" type="curve" smooth="yes"/>
      <point x="239.0" y="43.0"/>
      <point x="106.0" y="176.0"/>
      <point x="106.0" y="350.0" type="curve" smooth="yes"/>
      <point x="106.0" y="523.0"/>
      <point x="239.0" y="655.0"/>
      <point x="412.0" y="655.0" type="curve" smooth="yes"/>
      <point x="583.0" y="655.0"/>
      <point x="718.0" y="523.0"/>
      <point x="718.0" y="350.0" type="curve" smooth="yes"/>
      <point x="718.0" y="176.0"/>
      <point x="583.0" y="43.0"/>
    </contour>
  </outline>
</glyph>
<glyph name="degree" format="2">
  <advance width="424.0"/>
  <unicode hex="00B0"/>
  <note>
degree
</note>
  <outline>
    <contour>
      <point x="211.0" y="302.0" type="curve" smooth="yes"/>
      <point x="298.0" y="302.0"/>
      <point x="365.0" y="364.0"/>
      <point x="365.0" y="449.0" type="curve" smooth="yes"/>
      <point x="365.0" y="536.0"/>
      <point x="298.0" y="598.0"/>
      <point x="211.0" y="598.0" type="curve" smooth="yes"/>
      <point x="126.0" y="598.0"/>
      <point x="59.0" y="536.0"/>
      <point x="59.0" y="449.0" type="curve" smooth="yes"/>
      <point x="59.0" y="364.0"/>
      <point x="126.0" y="302.0"/>
    </contour>
    <contour>
      <point x="211.0" y="376.0" type="curve" smooth="yes"/>
      <point x="171.0" y="376.0"/>
      <point x="140.0" y="406.0"/>
      <point x="140.0" y="449.0" type="curve" smooth="yes"/>
      <point x="140.0" y="494.0"/>
      <point x="171.0" y="524.0"/>
      <point x="211.0" y="524.0" type="curve" smooth="yes"/>
      <point x="253.0" y="524.0"/>
      <point x="284.0" y="494.0"/>
      <point x="284.0" y="449.0" type="curve" smooth="yes"/>
      <point x="284.0" y="406.0"/>
      <point x="253.0" y="376.0"/>
    </contour>
  </outline>
</glyph>
<glyph name="paragraph" format="2">
  <advance width="616.0"/>
  <unicode hex="00B6"/>
  <note>
paragraph
</note>
  <outline>
    <contour>
      <point x="585.0" y="0.0" type="line"/>
      <point x="588.0" y="57.0" type="line"/>
      <point x="523.0" y="76.0" type="line"/>
      <point x="520.0" y="85.0"/>
      <point x="517.0" y="165.0"/>
      <point x="517.0" y="234.0" type="curve" smooth="yes"/>
      <point x="517.0" y="354.0" type="line" smooth="yes"/>
      <point x="517.0" y="425.0"/>
      <point x="520.0" y="503.0"/>
      <point x="523.0" y="512.0" type="curve"/>
      <point x="588.0" y="530.0" type="line"/>
      <point x="585.0" y="587.0" type="line"/>
      <point x="282.0" y="587.0" type="line" smooth="yes"/>
      <point x="135.0" y="587.0"/>
      <point x="21.0" y="512.0"/>
      <point x="21.0" y="398.0" type="curve" smooth="yes"/>
      <point x="21.0" y="273.0"/>
      <point x="124.0" y="205.0"/>
      <point x="309.0" y="205.0" type="curve" smooth="yes"/>
      <point x="360.0" y="205.0"/>
      <point x="396.0" y="210.0"/>
      <point x="479.0" y="229.0" type="curve"/>
      <point x="479.0" y="312.0" type="line"/>
      <point x="416.0" y="294.0"/>
      <point x="372.0" y="287.0"/>
      <point x="315.0" y="287.0" type="curve" smooth="yes"/>
      <point x="240.0" y="287.0"/>
      <point x="197.0" y="336.0"/>
      <point x="197.0" y="422.0" type="curve" smooth="yes"/>
      <point x="197.0" y="489.0"/>
      <point x="245.0" y="524.0"/>
      <point x="306.0" y="524.0" type="curve" smooth="yes"/>
      <point x="316.0" y="524.0" type="line"/>
      <point x="317.0" y="503.0"/>
      <point x="315.0" y="469.0"/>
      <point x="315.0" y="305.0" type="curve" smooth="yes"/>
      <point x="315.0" y="160.0" type="line" smooth="yes"/>
      <point x="315.0" y="147.0"/>
      <point x="310.0" y="82.0"/>
      <point x="308.0" y="75.0" type="curve"/>
      <point x="227.0" y="59.0" type="line"/>
      <point x="230.0" y="0.0" type="line"/>
    </contour>
    <contour>
      <point x="394.0" y="524.0" type="line"/>
      <point x="451.0" y="524.0" type="line"/>
      <point x="446.0" y="63.0" type="line"/>
      <point x="394.0" y="63.0" type="line"/>
    </contour>
  </outline>
</glyph>
<glyph name="AE" format="2">
  <advance width="857.0"/>
  <unicode hex="00C6"/>
  <note>
AE
</note>
  <anchor x="450.0" y="0.0" name="bottom"/>
  <anchor x="450.0" y="587.0" name="top"/>
  <outline>
    <contour>
      <point x="798.0" y="-7.0" type="curve"/>
      <point x="847.0" y="166.0" type="line"/>
      <point x="783.0" y="178.0" type="line"/>
      <point x="725.0" y="75.0" type="line"/>
      <point x="707.0" y="71.0"/>
      <point x="711.0" y="71.0"/>
      <point x="657.0" y="71.0" type="curve" smooth="yes"/>
      <point x="636.0" y="71.0" type="line" smooth="yes"/>
      <point x="604.0" y="71.0"/>
      <point x="570.0" y="73.0"/>
      <point x="534.0" y="75.0" type="curve"/>
      <point x="532.0" y="96.0"/>
      <point x="532.0" y="84.0"/>
      <point x="532.0" y="217.0" type="curve" smooth="yes"/>
      <point x="532.0" y="390.0" type="line" smooth="yes"/>
      <point x="532.0" y="487.0"/>
      <point x="533.0" y="505.0"/>
      <point x="534.0" y="518.0" type="curve"/>
      <point x="545.0" y="521.0"/>
      <point x="575.0" y="522.0"/>
      <point x="603.0" y="522.0" type="curve" smooth="yes"/>
      <point x="644.0" y="522.0" type="line" smooth="yes"/>
      <point x="661.0" y="522.0"/>
      <point x="672.0" y="521.0"/>
      <point x="695.0" y="517.0" type="curve"/>
      <point x="736.0" y="425.0" type="line"/>
      <point x="801.0" y="434.0" type="line"/>
      <point x="770.0" y="593.0" type="line"/>
      <point x="734.0" y="593.0"/>
      <point x="631.0" y="587.0"/>
      <point x="585.0" y="587.0" type="curve" smooth="yes"/>
      <point x="276.0" y="587.0" type="line"/>
      <point x="273.0" y="529.0" type="line"/>
      <point x="370.0" y="511.0" type="line"/>
      <point x="361.0" y="553.0" type="line"/>
      <point x="30.0" y="76.0" type="line"/>
      <point x="-27.0" y="58.0" type="line"/>
      <point x="-24.0" y="0.0" type="line"/>
      <point x="180.0" y="0.0" type="line"/>
      <point x="183.0" y="58.0" type="line"/>
      <point x="119.0" y="76.0" type="line"/>
      <point x="405.0" y="498.0" type="line"/>
      <point x="367.0" y="492.0" type="line"/>
      <point x="367.0" y="208.0" type="line" smooth="yes"/>
      <point x="367.0" y="160.0"/>
      <point x="367.0" y="110.0"/>
      <point x="365.0" y="76.0" type="curve"/>
      <point x="301.0" y="57.0" type="line"/>
      <point x="304.0" y="0.0" type="line"/>
      <point x="632.0" y="0.0" type="line" smooth="yes"/>
      <point x="684.0" y="0.0"/>
      <point x="769.0" y="-6.0"/>
    </contour>
    <contour>
      <point x="149.0" y="150.0" type="line"/>
      <point x="172.0" y="152.0"/>
      <point x="208.0" y="154.0"/>
      <point x="266.0" y="154.0" type="curve" smooth="yes"/>
      <point x="281.0" y="154.0"/>
      <point x="331.0" y="154.0"/>
      <point x="394.0" y="152.0" type="curve"/>
      <point x="394.0" y="228.0" type="line"/>
      <point x="350.0" y="224.0"/>
      <point x="313.0" y="223.0"/>
      <point x="266.0" y="223.0" type="curve" smooth="yes"/>
      <point x="202.0" y="223.0"/>
      <point x="207.0" y="226.0"/>
      <point x="176.0" y="228.0" type="curve"/>
    </contour>
    <contour>
      <point x="660.0" y="196.0" type="line"/>
      <point x="725.0" y="196.0" type="line"/>
      <point x="725.0" y="404.0" type="line"/>
      <point x="660.0" y="404.0" type="line"/>
      <point x="652.0" y="340.0" type="line"/>
      <point x="643.0" y="339.0"/>
      <point x="617.0" y="338.0"/>
      <point x="589.0" y="338.0" type="curve" smooth="yes"/>
      <point x="561.0" y="338.0" type="line" smooth="yes"/>
      <point x="534.0" y="338.0"/>
      <point x="510.0" y="341.0"/>
      <point x="506.0" y="342.0" type="curve"/>
      <point x="506.0" y="261.0" type="line"/>
      <point x="510.0" y="262.0"/>
      <point x="534.0" y="264.0"/>
      <point x="561.0" y="264.0" type="curve" smooth="yes"/>
      <point x="589.0" y="264.0" type="line" smooth="yes"/>
      <point x="617.0" y="264.0"/>
      <point x="643.0" y="263.0"/>
      <point x="652.0" y="263.0" type="curve"/>
    </contour>
  </outline>
</glyph>
<glyph name="multiply" format="2">
  <advance width="540.0"/>
  <unicode hex="00D7"/>
  <outline>
    <contour>
      <point x="408.0" y="464.0" type="line"/>
      <point x="62.0" y="119.0" type="line"/>
      <point x="131.0" y="48.0" type="line"/>
      <point x="478.0" y="392.0" type="line"/>
    </contour>
    <contour>
      <point x="131.0" y="464.0" type="line"/>
      <point x="62.0" y="392.0" type="line"/>
      <point x="408.0" y="48.0" type="line"/>
      <point x="478.0" y="119.0" type="line"/>
    </contour>
  </outline>
</glyph>
<glyph name="eth" format="2">
  <advance width="542.0"/>
  <unicode hex="00F0"/>
  <note>
eth
</note>
  <outline>
    <contour>
      <point x="395.0" y="367.0" type="curve"/>
      <point x="423.0" y="435.0" type="line"/>
      <point x="391.0" y="443.0"/>
      <point x="347.0" y="452.0"/>
      <point x="313.0" y="452.0" type="curve" smooth="yes"/>
      <point x="140.0" y="452.0"/>
      <point x="31.0" y="368.0"/>
      <point x="31.0" y="222.0" type="curve" smooth="yes"/>
      <point x="31.0" y="95.0"/>
      <point x="135.0" y="-8.0"/>
      <point x="278.0" y="-8.0" type="curve" smooth="yes"/>
      <point x="415.0" y="-8.0"/>
      <point x="509.0" y="92.0"/>
      <point x="509.0" y="276.0" type="curve" smooth="yes"/>
      <point x="509.0" y="465.0"/>
      <point x="385.0" y="651.0"/>
      <point x="211.0" y="688.0" type="curve"/>
      <point x="32.0" y="688.0" type="line"/>
      <point x="30.0" y="637.0" type="line"/>
      <point x="257.0" y="582.0"/>
      <point x="345.0" y="454.0"/>
      <point x="345.0" y="223.0" type="curve" smooth="yes"/>
      <point x="345.0" y="112.0"/>
      <point x="328.0" y="68.0"/>
      <point x="297.0" y="68.0" type="curve" smooth="yes"/>
      <point x="257.0" y="68.0"/>
      <point x="204.0" y="113.0"/>
      <point x="204.0" y="240.0" type="curve" smooth="yes"/>
      <point x="204.0" y="327.0"/>
      <point x="245.0" y="380.0"/>
      <point x="312.0" y="380.0" type="curve" smooth="yes"/>
      <point x="337.0" y="380.0"/>
      <point x="370.0" y="375.0"/>
    </contour>
    <contour>
      <point x="85.0" y="463.0" type="line"/>
      <point x="468.0" y="633.0" type="line"/>
      <point x="439.0" y="698.0" type="line"/>
      <point x="56.0" y="528.0" type="line"/>
    </contour>
  </outline>
</glyph>
<glyph name="thorn" format="2">
  <advance width="577.0"/>
  <unicode hex="00FE"/>
  <note>
thorn
</note>
  <outline>
    <contour>
      <point x="4.0" y="-220.0" type="line"/>
      <point x="314.0" y="-220.0" type="line"/>
      <point x="317.0" y="-168.0" type="line"/>
      <point x="235.0" y="-149.0" type="line"/>
      <point x="233.0" y="-137.0"/>
      <point x="231.0" y="-93.0"/>
      <point x="231.0" y="-60.0" type="curve" smooth="yes"/>
      <point x="231.0" y="1.0" type="line"/>
      <point x="252.0" y="-5.0"/>
      <point x="262.0" y="-7.0"/>
      <point x="285.0" y="-7.0" type="curve" smooth="yes"/>
      <point x="450.0" y="-7.0"/>
      <point x="545.0" y="117.0"/>
      <point x="545.0" y="245.0" type="curve" smooth="yes"/>
      <point x="545.0" y="385.0"/>
      <point x="451.0" y="454.0"/>
      <point x="363.0" y="454.0" type="curve" smooth="yes"/>
      <point x="310.0" y="454.0"/>
      <point x="255.0" y="418.0"/>
      <point x="230.0" y="366.0" type="curve"/>
      <point x="227.0" y="367.0" type="line"/>
      <point x="232.0" y="558.0"/>
      <point x="233.0" y="606.0"/>
      <point x="239.0" y="680.0" type="curve"/>
      <point x="208.0" y="700.0" type="line"/>
      <point x="-13.0" y="645.0" type="line"/>
      <point x="-11.0" y="594.0" type="line"/>
      <point x="63.0" y="584.0" type="line"/>
      <point x="67.0" y="527.0"/>
      <point x="67.0" y="452.0"/>
      <point x="69.0" y="360.0" type="curve"/>
      <point x="68.0" y="58.0" type="line" smooth="yes"/>
      <point x="69.0" y="-28.0"/>
      <point x="65.0" y="-126.0"/>
      <point x="62.0" y="-149.0" type="curve"/>
      <point x="0.0" y="-168.0" type="line"/>
    </contour>
    <contour>
      <point x="286.0" y="78.0" type="curve" smooth="yes"/>
      <point x="266.0" y="78.0"/>
      <point x="247.0" y="84.0"/>
      <point x="231.0" y="92.0" type="curve"/>
      <point x="231.0" y="312.0" type="line"/>
      <point x="243.0" y="328.0"/>
      <point x="267.0" y="340.0"/>
      <point x="286.0" y="340.0" type="curve" smooth="yes"/>
      <point x="325.0" y="340.0"/>
      <point x="371.0" y="316.0"/>
      <point x="372.0" y="207.0" type="curve" smooth="yes"/>
      <point x="372.0" y="106.0"/>
      <point x="333.0" y="78.0"/>
    </contour>
  </outline>
</glyph>
<glyph name="Eogonek" format="2">
  <advance width="601.0"/>
  <unicode hex="0118"/>
  <note>
Eogonek
</note>
  <anchor x="304.0" y="0.0" name="bottom"/>
  <anchor x="304.0" y="587.0" name="top"/>
  <anchor x="33.0" y="587.0" name="topleft"/>
  <outline>
    <contour>
      <point x="491.0" y="-223.0" type="curve" smooth="yes"/>
      <point x="540.0" y="-223.0"/>
      <point x="580.0" y="-207.0"/>
      <point x="611.0" y="-173.0" type="curve"/>
      <point x="580.0" y="-127.0" type="line"/>
      <point x="556.0" y="-150.0"/>
      <point x="534.0" y="-161.0"/>
      <point x="513.0" y="-161.0" type="curve" smooth="yes"/>
      <point x="482.0" y="-161.0"/>
      <point x="464.0" y="-139.0"/>
      <point x="464.0" y="-108.0" type="curve" smooth="yes"/>
      <point x="464.0" y="-73.0"/>
      <point x="491.0" y="-36.0"/>
      <point x="546.0" y="0.0" type="curve"/>
      <point x="592.0" y="166.0" type="line"/>
      <point x="528.0" y="178.0" type="line"/>
      <point x="471.0" y="75.0" type="line"/>
      <point x="452.0" y="71.0"/>
      <point x="456.0" y="71.0"/>
      <point x="400.0" y="71.0" type="curve" smooth="yes"/>
      <point x="374.0" y="71.0" type="line" smooth="yes"/>
      <point x="324.0" y="71.0"/>
      <point x="299.0" y="72.0"/>
      <point x="272.0" y="76.0" type="curve"/>
      <point x="270.0" y="97.0"/>
      <point x="269.0" y="137.0"/>
      <point x="269.0" y="217.0" type="curve" smooth="yes"/>
      <point x="269.0" y="390.0" type="line" smooth="yes"/>
      <point x="269.0" y="468.0"/>
      <point x="270.0" y="499.0"/>
      <point x="272.0" y="519.0" type="curve"/>
      <point x="284.0" y="521.0"/>
      <point x="313.0" y="522.0"/>
      <point x="339.0" y="522.0" type="curve" smooth="yes"/>
      <point x="391.0" y="522.0" type="line" smooth="yes"/>
      <point x="407.0" y="522.0"/>
      <point x="419.0" y="521.0"/>
      <point x="441.0" y="517.0" type="curve"/>
      <point x="481.0" y="425.0" type="line"/>
      <point x="547.0" y="434.0" type="line"/>
      <point x="516.0" y="593.0" type="line"/>
      <point x="484.0" y="591.0"/>
      <point x="381.0" y="587.0"/>
      <point x="331.0" y="587.0" type="curve" smooth="yes"/>
      <point x="33.0" y="587.0" type="line"/>
      <point x="30.0" y="530.0" type="line"/>
      <point x="95.0" y="511.0" type="line"/>
      <point x="99.0" y="505.0"/>
      <point x="103.0" y="432.0"/>
      <point x="103.0" y="354.0" type="curve" smooth="yes"/>
      <point x="103.0" y="234.0" type="line" smooth="yes"/>
      <point x="103.0" y="157.0"/>
      <point x="99.0" y="83.0"/>
      <point x="95.0" y="76.0" type="curve"/>
      <point x="30.0" y="57.0" type="line"/>
      <point x="33.0" y="0.0" type="line"/>
      <point x="463.0" y="0.0" type="line"/>
      <point x="389.0" y="-32.0"/>
      <point x="352.0" y="-74.0"/>
      <point x="352.0" y="-116.0" type="curve" smooth="yes"/>
      <point x="352.0" y="-176.0"/>
      <point x="413.0" y="-223.0"/>
    </contour>
    <contour>
      <point x="407.0" y="196.0" type="line"/>
      <point x="471.0" y="196.0" type="line"/>
      <point x="471.0" y="404.0" type="line"/>
      <point x="407.0" y="404.0" type="line"/>
      <point x="398.0" y="339.0" type="line"/>
      <point x="388.0" y="339.0"/>
      <point x="363.0" y="338.0"/>
      <point x="335.0" y="338.0" type="curve" smooth="yes"/>
      <point x="296.0" y="338.0" type="line" smooth="yes"/>
      <point x="269.0" y="338.0"/>
      <point x="247.0" y="341.0"/>
      <point x="243.0" y="342.0" type="curve"/>
      <point x="243.0" y="261.0" type="line"/>
      <point x="247.0" y="262.0"/>
      <point x="269.0" y="264.0"/>
      <point x="296.0" y="264.0" type="curve" smooth="yes"/>
      <point x="335.0" y="264.0" type="line" smooth="yes"/>
      <point x="363.0" y="264.0"/>
      <point x="388.0" y="263.0"/>
      <point x="398.0" y="263.0" type="curve"/>
    </contour>
  </outline>
</glyph>
<glyph name="eogonek" format="2">
  <advance width="497.0"/>
  <unicode hex="0119"/>
  <note>
    eogonek
  </note>
  <anchor x="263.0" y="446.0" name="top"/>
  <outline>
    <contour>
      <point x="443.0" y="-127.0" type="line"/>
      <point x="417.0" y="-151.0"/>
      <point x="395.0" y="-161.0"/>
      <point x="376.0" y="-161.0" type="curve" smooth="yes"/>
      <point x="349.0" y="-161.0"/>
      <point x="327.0" y="-142.0"/>
      <point x="327.0" y="-105.0" type="curve" smooth="yes"/>
      <point x="327.0" y="-60.0"/>
      <point x="354.0" y="-24.0"/>
      <point x="418.0" y="47.0" type="curve" smooth="yes"/>
      <point x="442.0" y="74.0"/>
      <point x="464.0" y="101.0"/>
      <point x="474.0" y="126.0" type="curve"/>
      <point x="440.0" y="159.0" type="line"/>
      <point x="406.0" y="122.0"/>
      <point x="369.0" y="106.0"/>
      <point x="324.0" y="106.0" type="curve" smooth="yes"/>
      <point x="241.0" y="106.0"/>
      <point x="190.0" y="167.0"/>
      <point x="190.0" y="250.0" type="curve" smooth="yes"/>
      <point x="190.0" y="276.0" type="line" smooth="yes"/>
      <point x="190.0" y="353.0"/>
      <point x="219.0" y="389.0"/>
      <point x="263.0" y="389.0" type="curve" smooth="yes"/>
      <point x="305.0" y="389.0"/>
      <point x="326.0" y="350.59900899310765"/>
      <point x="326.0" y="298.0" type="curve" smooth="yes"/>
      <point x="326.0" y="255.0" type="line"/>
      <point x="345.0" y="286.0" type="line"/>
      <point x="177.0" y="286.0" type="line"/>
      <point x="177.0" y="229.0" type="line"/>
      <point x="467.0" y="229.0" type="line"/>
      <point x="467.0" y="257.0" type="line" smooth="yes"/>
      <point x="467.0" y="374.0"/>
      <point x="392.0" y="454.0"/>
      <point x="271.0" y="454.0" type="curve" smooth="yes"/>
      <point x="147.0" y="454.0"/>
      <point x="32.0" y="354.0"/>
      <point x="32.0" y="217.0" type="curve" smooth="yes"/>
      <point x="32.0" y="96.0"/>
      <point x="127.0" y="-8.0"/>
      <point x="265.0" y="-8.0" type="curve" smooth="yes"/>
      <point x="279.0" y="-8.0"/>
      <point x="293.0" y="-10.0"/>
      <point x="337.0" y="4.0" type="curve"/>
      <point x="334.0" y="13.0" type="line"/>
      <point x="240.0" y="-32.0"/>
      <point x="215.0" y="-76.0"/>
      <point x="215.0" y="-116.0" type="curve" smooth="yes"/>
      <point x="215.0" y="-180.0"/>
      <point x="281.0" y="-223.0"/>
      <point x="354.0" y="-223.0" type="curve" smooth="yes"/>
      <point x="403.0" y="-223.0"/>
      <point x="444.0" y="-206.0"/>
      <point x="475.0" y="-173.0" type="curve"/>
    </contour>
  </outline>
</glyph>
<glyph name="Iogonek" format="2">
  <advance width="374.0"/>
  <unicode hex="012E"/>
  <note>
Iogonek
</note>
  <anchor x="187.0" y="587.0" name="top"/>
  <anchor x="34.0" y="587.0" name="topleft"/>
  <outline>
    <contour>
      <point x="270.0" y="234.0" type="curve" smooth="yes"/>
      <point x="270.0" y="354.0" type="line" smooth="yes"/>
      <point x="270.0" y="419.0"/>
      <point x="274.0" y="503.0"/>
      <point x="277.0" y="513.0" type="curve"/>
      <point x="342.0" y="530.0" type="line"/>
      <point x="339.0" y="587.0" type="line"/>
      <point x="33.0" y="587.0" type="line"/>
      <point x="30.0" y="530.0" type="line"/>
      <point x="95.0" y="513.0" type="line"/>
      <point x="99.0" y="507.0"/>
      <point x="103.0" y="432.0"/>
      <point x="103.0" y="354.0" type="curve" smooth="yes"/>
      <point x="103.0" y="234.0" type="line" smooth="yes"/>
      <point x="103.0" y="157.0"/>
      <point x="99.0" y="83.0"/>
      <point x="95.0" y="76.0" type="curve"/>
      <point x="30.0" y="57.0" type="line"/>
      <point x="33.0" y="0.0" type="line"/>
      <point x="225.0" y="0.0" type="line"/>
      <point x="237.0" y="16.0" type="line"/>
      <point x="117.0" y="-11.0"/>
      <point x="50.0" y="-59.0"/>
      <point x="50.0" y="-120.0" type="curve" smooth="yes"/>
      <point x="50.0" y="-181.0"/>
      <point x="109.0" y="-223.0"/>
      <point x="189.0" y="-223.0" type="curve" smooth="yes"/>
      <point x="239.0" y="-223.0"/>
      <point x="280.0" y="-207.0"/>
      <point x="312.0" y="-173.0" type="curve"/>
      <point x="282.0" y="-127.0" type="line"/>
      <point x="262.0" y="-148.0"/>
      <point x="237.0" y="-161.0"/>
      <point x="215.0" y="-161.0" type="curve" smooth="yes"/>
      <point x="184.0" y="-161.0"/>
      <point x="163.0" y="-138.0"/>
      <point x="163.0" y="-106.0" type="curve" smooth="yes"/>
      <point x="163.0" y="-51.0"/>
      <point x="247.0" y="0.0"/>
      <point x="339.0" y="0.0" type="curve"/>
      <point x="342.0" y="57.0" type="line"/>
      <point x="277.0" y="76.0" type="line"/>
      <point x="274.0" y="87.0"/>
      <point x="270.0" y="171.0"/>
    </contour>
  </outline>
</glyph>
<glyph name="iogonek" format="2">
  <advance width="319.0"/>
  <unicode hex="012F"/>
  <note>
iogonek
</note>
  <outline>
    <contour>
      <point x="162.0" y="-223.0" type="curve" smooth="yes"/>
      <point x="211.0" y="-223.0"/>
      <point x="252.0" y="-206.0"/>
      <point x="283.0" y="-173.0" type="curve"/>
      <point x="251.0" y="-127.0" type="line"/>
      <point x="225.0" y="-151.0"/>
      <point x="203.0" y="-161.0"/>
      <point x="184.0" y="-161.0" type="curve" smooth="yes"/>
      <point x="157.0" y="-161.0"/>
      <point x="135.0" y="-142.0"/>
      <point x="135.0" y="-110.0" type="curve" smooth="yes"/>
      <point x="135.0" y="-85.0"/>
      <point x="147.0" y="-3.0"/>
      <point x="307.0" y="0.0" type="curve"/>
      <point x="310.0" y="54.0" type="line"/>
      <point x="245.0" y="70.0" type="line"/>
      <point x="243.0" y="81.0"/>
      <point x="241.0" y="129.0"/>
      <point x="241.0" y="163.0" type="curve" smooth="yes"/>
      <point x="241.0" y="291.0" type="line" smooth="yes"/>
      <point x="241.0" y="346.0"/>
      <point x="243.0" y="389.0"/>
      <point x="247.0" y="434.0" type="curve"/>
      <point x="212.0" y="452.0" type="line"/>
      <point x="4.0" y="401.0" type="line"/>
      <point x="4.0" y="349.0" type="line"/>
      <point x="70.0" y="335.0" type="line"/>
      <point x="77.0" y="295.0"/>
      <point x="77.0" y="278.0"/>
      <point x="78.0" y="241.0" type="curve" smooth="yes"/>
      <point x="77.0" y="167.0" type="line" smooth="yes"/>
      <point x="76.0" y="135.0"/>
      <point x="73.0" y="80.0"/>
      <point x="72.0" y="70.0" type="curve"/>
      <point x="7.0" y="54.0" type="line"/>
      <point x="10.0" y="0.0" type="line"/>
      <point x="195.0" y="0.0" type="line"/>
      <point x="198.0" y="13.0" type="line"/>
      <point x="72.0" y="-16.0"/>
      <point x="23.0" y="-66.0"/>
      <point x="23.0" y="-116.0" type="curve" smooth="yes"/>
      <point x="23.0" y="-180.0"/>
      <point x="89.0" y="-223.0"/>
    </contour>
    <component base="dotaccentcomb.i" xOffset="-140.0"/>
  </outline>
</glyph>
<glyph name="kgreenlandic" format="2">
  <advance width="600.0"/>
  <unicode hex="0138"/>
  <note>
kgreenlandic
</note>
  <outline>
    <contour>
      <point x="12.0" y="0.0" type="line"/>
      <point x="302.0" y="0.0" type="line"/>
      <point x="305.0" y="52.0" type="line"/>
      <point x="243.0" y="70.0" type="line"/>
      <point x="241.0" y="81.0"/>
      <point x="239.0" y="130.0"/>
      <point x="239.0" y="163.0" type="curve" smooth="yes"/>
      <point x="239.0" y="291.0" type="line" smooth="yes"/>
      <point x="239.0" y="346.0"/>
      <point x="241.0" y="389.0"/>
      <point x="245.0" y="434.0" type="curve"/>
      <point x="210.0" y="452.0" type="line"/>
      <point x="5.0" y="401.0" type="line"/>
      <point x="5.0" y="349.0" type="line"/>
      <point x="69.0" y="335.0" type="line"/>
      <point x="76.0" y="295.0"/>
      <point x="77.0" y="278.0"/>
      <point x="77.0" y="241.0" type="curve"/>
      <point x="76.0" y="167.0" type="line" smooth="yes"/>
      <point x="75.0" y="135.0"/>
      <point x="72.0" y="80.0"/>
      <point x="71.0" y="70.0" type="curve"/>
      <point x="9.0" y="52.0" type="line"/>
    </contour>
    <contour>
      <point x="604.0" y="0.0" type="line"/>
      <point x="608.0" y="51.0" type="line"/>
      <point x="576.0" y="58.0" type="line"/>
      <point x="568.0" y="63.0"/>
      <point x="554.0" y="81.0"/>
      <point x="524.0" y="118.0" type="curve" smooth="yes"/>
      <point x="368.0" y="309.0" type="line"/>
      <point x="355.0" y="258.0" type="line"/>
      <point x="511.0" y="381.0" type="line"/>
      <point x="577.0" y="393.0" type="line"/>
      <point x="574.0" y="446.0" type="line"/>
      <point x="337.0" y="446.0" type="line"/>
      <point x="334.0" y="393.0" type="line"/>
      <point x="400.0" y="382.0" type="line"/>
      <point x="251.0" y="241.0" type="line"/>
      <point x="226.0" y="237.0" type="line"/>
      <point x="226.0" y="191.0" type="line"/>
      <point x="248.0" y="191.0" type="line"/>
      <point x="348.0" y="72.0" type="line" smooth="yes"/>
      <point x="368.0" y="48.0"/>
      <point x="384.0" y="24.0"/>
      <point x="400.0" y="0.0" type="curve"/>
    </contour>
  </outline>
</glyph>
<glyph name="oe" format="2">
  <advance width="819.0"/>
  <unicode hex="0153"/>
  <note>
oe
</note>
  <anchor x="433.0" y="0.0" name="bottom"/>
  <anchor x="433.0" y="446.0" name="top"/>
  <outline>
    <contour>
      <point x="280.0" y="-8.0" type="curve" smooth="yes"/>
      <point x="412.0" y="-8.0"/>
      <point x="495.0" y="98.0"/>
      <point x="495.0" y="230.0" type="curve" smooth="yes"/>
      <point x="495.0" y="361.0"/>
      <point x="407.0" y="454.0"/>
      <point x="275.0" y="454.0" type="curve" smooth="yes"/>
      <point x="135.0" y="454.0"/>
      <point x="32.0" y="351.0"/>
      <point x="32.0" y="216.0" type="curve" smooth="yes"/>
      <point x="32.0" y="83.0"/>
      <point x="138.0" y="-8.0"/>
    </contour>
    <contour>
      <point x="295.0" y="66.0" type="curve" smooth="yes"/>
      <point x="242.0" y="66.0"/>
      <point x="208.0" y="152.0"/>
      <point x="208.0" y="256.0" type="curve" smooth="yes"/>
      <point x="208.0" y="352.0"/>
      <point x="238.0" y="385.0"/>
      <point x="269.0" y="385.0" type="curve" smooth="yes"/>
      <point x="320.0" y="385.0"/>
      <point x="353.0" y="304.0"/>
      <point x="353.0" y="188.0" type="curve" smooth="yes"/>
      <point x="353.0" y="97.0"/>
      <point x="329.0" y="66.0"/>
    </contour>
    <contour>
      <point x="605.0" y="-8.0" type="curve" smooth="yes"/>
      <point x="681.0" y="-8.0"/>
      <point x="759.0" y="39.0"/>
      <point x="795.0" y="126.0" type="curve"/>
      <point x="762.0" y="159.0" type="line"/>
      <point x="728.0" y="122.0"/>
      <point x="693.0" y="106.0"/>
      <point x="647.0" y="106.0" type="curve" smooth="yes"/>
      <point x="562.0" y="106.0"/>
      <point x="511.0" y="167.0"/>
      <point x="511.0" y="253.0" type="curve" smooth="yes"/>
      <point x="511.0" y="277.0" type="line" smooth="yes"/>
      <point x="511.0" y="355.0"/>
      <point x="540.0" y="389.0"/>
      <point x="583.0" y="389.0" type="curve" smooth="yes"/>
      <point x="630.0" y="389.0"/>
      <point x="646.0" y="347.0"/>
      <point x="646.0" y="298.0" type="curve" smooth="yes"/>
      <point x="646.0" y="255.0" type="line"/>
      <point x="671.0" y="286.0" type="line"/>
      <point x="502.0" y="286.0" type="line"/>
      <point x="500.0" y="229.0" type="line"/>
      <point x="787.0" y="229.0" type="line"/>
      <point x="787.0" y="257.0" type="line" smooth="yes"/>
      <point x="787.0" y="366.0"/>
      <point x="720.0" y="454.0"/>
      <point x="595.0" y="454.0" type="curve" smooth="yes"/>
      <point x="472.0" y="453.0"/>
      <point x="370.0" y="350.0"/>
      <point x="370.0" y="225.0" type="curve" smooth="yes"/>
      <point x="370.0" y="96.0"/>
      <point x="463.0" y="-8.0"/>
    </contour>
  </outline>
</glyph>
<glyph name="Schwa" format="2">
  <advance width="672.0"/>
  <unicode hex="018F"/>
  <anchor x="336.0" y="0.0" name="bottom"/>
  <anchor x="336.0" y="587.0" name="top"/>
  <outline>
    <contour>
      <point x="325.0" y="596.0" type="curve" smooth="yes"/>
      <point x="198.0" y="596.0"/>
      <point x="93.0" y="529.0"/>
      <point x="45.0" y="417.0" type="curve"/>
      <point x="75.0" y="385.0" type="line"/>
      <point x="125.0" y="434.0"/>
      <point x="184.0" y="460.0"/>
      <point x="265.0" y="460.0" type="curve" smooth="yes"/>
      <point x="374.0" y="460.0"/>
      <point x="440.0" y="388.0"/>
      <point x="440.0" y="280.0" type="curve" smooth="yes"/>
      <point x="440.0" y="238.0" type="line" smooth="yes"/>
      <point x="440.0" y="134.0"/>
      <point x="410.0" y="75.0"/>
      <point x="338.0" y="75.0" type="curve" smooth="yes"/>
      <point x="276.0" y="75.0"/>
      <point x="236.0" y="126.0"/>
      <point x="236.0" y="204.0" type="curve" smooth="yes"/>
      <point x="236.0" y="255.0" type="line"/>
      <point x="214.0" y="210.0" type="line"/>
      <point x="548.0" y="210.0" type="line"/>
      <point x="548.0" y="288.0" type="line"/>
      <point x="41.0" y="288.0" type="line"/>
      <point x="41.0" y="247.0" type="line" smooth="yes"/>
      <point x="41.0" y="92.0"/>
      <point x="165.0" y="-10.0"/>
      <point x="339.0" y="-8.0" type="curve" smooth="yes"/>
      <point x="501.0" y="-7.0"/>
      <point x="630.0" y="136.0"/>
      <point x="630.0" y="300.0" type="curve" smooth="yes"/>
      <point x="630.0" y="466.0"/>
      <point x="497.0" y="596.0"/>
    </contour>
  </outline>
</glyph>
<glyph name="Ohorn" format="2">
  <advance width="726.0"/>
  <unicode hex="01A0"/>
  <note>
Ohorn
</note>
  <anchor x="363.0" y="0.0" name="bottom"/>
  <anchor x="363.0" y="294.0" name="center"/>
  <anchor x="363.0" y="587.0" name="top"/>
  <anchor x="17.0" y="587.0" name="topleft"/>
  <outline>
    <contour>
      <point x="722.0" y="656.0" type="curve" smooth="yes"/>
      <point x="722.0" y="725.0"/>
      <point x="661.0" y="730.0"/>
      <point x="593.0" y="723.0" type="curve"/>
      <point x="591.0" y="657.0" type="line" smooth="yes"/>
      <point x="590.0" y="619.0"/>
      <point x="560.0" y="581.0"/>
      <point x="514.0" y="581.0" type="curve" smooth="yes"/>
      <point x="486.0" y="581.0"/>
      <point x="437.0" y="596.0"/>
      <point x="379.0" y="596.0" type="curve" smooth="yes"/>
      <point x="178.0" y="596.0"/>
      <point x="41.0" y="464.0"/>
      <point x="41.0" y="283.0" type="curve" smooth="yes"/>
      <point x="41.0" y="114.0"/>
      <point x="180.0" y="-9.0"/>
      <point x="370.0" y="-9.0" type="curve" smooth="yes"/>
      <point x="490.0" y="-9.0"/>
      <point x="684.0" y="80.0"/>
      <point x="684.0" y="304.0" type="curve" smooth="yes"/>
      <point x="684.0" y="409.0"/>
      <point x="634.0" y="493.0"/>
      <point x="558.0" y="542.0" type="curve"/>
      <point x="469.0" y="529.0" type="line"/>
      <point x="613.0" y="489.0"/>
      <point x="722.0" y="566.0"/>
    </contour>
    <contour>
      <point x="376.0" y="78.0" type="curve" smooth="yes"/>
      <point x="291.0" y="78.0"/>
      <point x="234.0" y="177.0"/>
      <point x="234.0" y="319.0" type="curve" smooth="yes"/>
      <point x="234.0" y="445.0"/>
      <point x="281.0" y="519.0"/>
      <point x="357.0" y="519.0" type="curve" smooth="yes"/>
      <point x="440.0" y="519.0"/>
      <point x="492.0" y="426.0"/>
      <point x="492.0" y="277.0" type="curve" smooth="yes"/>
      <point x="492.0" y="143.0"/>
      <point x="456.0" y="78.0"/>
    </contour>
  </outline>
</glyph>
<glyph name="Uhorn" format="2">
  <advance width="733.0"/>
  <unicode hex="01AF"/>
  <note>
Uhorn
</note>
  <anchor x="403.0" y="0.0" name="bottom"/>
  <anchor x="402.0" y="587.0" name="top"/>
  <outline>
    <contour>
      <point x="379.0" y="-9.0" type="curve" smooth="yes"/>
      <point x="534.0" y="-9.0"/>
      <point x="632.0" y="94.0"/>
      <point x="632.0" y="255.0" type="curve" smooth="yes"/>
      <point x="632.0" y="336.0" type="line" smooth="yes"/>
      <point x="632.0" y="450.0"/>
      <point x="634.0" y="517.0"/>
      <point x="637.0" y="538.0" type="curve"/>
      <point x="620.0" y="525.0" type="line"/>
      <point x="706.0" y="535.0"/>
      <point x="760.0" y="587.0"/>
      <point x="760.0" y="658.0" type="curve" smooth="yes"/>
      <point x="760.0" y="714.0"/>
      <point x="719.0" y="735.0"/>
      <point x="630.0" y="725.0" type="curve"/>
      <point x="628.0" y="659.0" type="line" smooth="yes"/>
      <point x="626.0" y="624.0"/>
      <point x="595.0" y="587.0"/>
      <point x="573.0" y="587.0" type="curve" smooth="yes"/>
      <point x="462.0" y="587.0" type="line"/>
      <point x="459.0" y="530.0" type="line"/>
      <point x="529.0" y="512.0" type="line"/>
      <point x="533.0" y="508.0"/>
      <point x="536.0" y="423.0"/>
      <point x="536.0" y="336.0" type="curve" smooth="yes"/>
      <point x="536.0" y="279.0" type="line" smooth="yes"/>
      <point x="536.0" y="160.0"/>
      <point x="493.0" y="103.0"/>
      <point x="403.0" y="103.0" type="curve" smooth="yes"/>
      <point x="313.0" y="103.0"/>
      <point x="268.0" y="164.0"/>
      <point x="269.0" y="282.0" type="curve"/>
      <point x="269.0" y="354.0" type="line"/>
      <point x="269.0" y="430.0"/>
      <point x="273.0" y="485.0"/>
      <point x="275.0" y="512.0" type="curve"/>
      <point x="340.0" y="530.0" type="line"/>
      <point x="337.0" y="587.0" type="line"/>
      <point x="32.0" y="587.0" type="line"/>
      <point x="29.0" y="530.0" type="line"/>
      <point x="94.0" y="512.0" type="line"/>
      <point x="98.0" y="506.0"/>
      <point x="101.0" y="432.0"/>
      <point x="101.0" y="354.0" type="curve" smooth="yes"/>
      <point x="101.0" y="262.0" type="line" smooth="yes"/>
      <point x="101.0" y="87.0"/>
      <point x="200.0" y="-9.0"/>
    </contour>
  </outline>
</glyph>
<glyph name="Oogonek" format="2">
  <advance width="726.0"/>
  <unicode hex="01EA"/>
  <anchor x="363.0" y="294.0" name="center"/>
  <anchor x="363.0" y="587.0" name="top"/>
  <anchor x="17.0" y="587.0" name="topleft"/>
  <anchor x="708.0" y="587.0" name="topright"/>
  <outline>
    <contour>
      <point x="393.0" y="-223.0" type="curve" smooth="yes"/>
      <point x="439.0" y="-223.0"/>
      <point x="483.0" y="-209.0"/>
      <point x="513.0" y="-173.0" type="curve"/>
      <point x="482.0" y="-127.0" type="line"/>
      <point x="456.0" y="-151.0"/>
      <point x="434.0" y="-161.0"/>
      <point x="414.0" y="-161.0" type="curve" smooth="yes"/>
      <point x="387.0" y="-161.0"/>
      <point x="366.0" y="-142.0"/>
      <point x="366.0" y="-108.0" type="curve" smooth="yes"/>
      <point x="366.0" y="-69.0"/>
      <point x="392.0" y="-21.0"/>
      <point x="486.0" y="16.0" type="curve" smooth="yes"/>
      <point x="583.0" y="54.0"/>
      <point x="684.0" y="141.0"/>
      <point x="684.0" y="304.0" type="curve" smooth="yes"/>
      <point x="684.0" y="476.0"/>
      <point x="554.0" y="596.0"/>
      <point x="369.0" y="596.0" type="curve" smooth="yes"/>
      <point x="178.0" y="596.0"/>
      <point x="41.0" y="464.0"/>
      <point x="41.0" y="283.0" type="curve" smooth="yes"/>
      <point x="41.0" y="114.0"/>
      <point x="180.0" y="-9.0"/>
      <point x="370.0" y="-9.0" type="curve" smooth="yes"/>
      <point x="388.0" y="-9.0" type="line"/>
      <point x="419.0" y="27.0" type="line"/>
      <point x="313.0" y="-9.0"/>
      <point x="253.0" y="-62.0"/>
      <point x="253.0" y="-116.0" type="curve" smooth="yes"/>
      <point x="253.0" y="-180.0"/>
      <point x="319.0" y="-223.0"/>
    </contour>
    <contour>
      <point x="376.0" y="78.0" type="curve" smooth="yes"/>
      <point x="291.0" y="78.0"/>
      <point x="234.0" y="177.0"/>
      <point x="234.0" y="319.0" type="curve" smooth="yes"/>
      <point x="234.0" y="445.0"/>
      <point x="281.0" y="519.0"/>
      <point x="357.0" y="519.0" type="curve" smooth="yes"/>
      <point x="440.0" y="519.0"/>
      <point x="492.0" y="426.0"/>
      <point x="492.0" y="277.0" type="curve" smooth="yes"/>
      <point x="492.0" y="143.0"/>
      <point x="456.0" y="78.0"/>
    </contour>
  </outline>
</glyph>
<glyph name="oogonek" format="2">
  <advance width="551.0"/>
  <unicode hex="01EB"/>
  <anchor x="277.0" y="223.0" name="center"/>
  <anchor x="277.0" y="446.0" name="top"/>
  <anchor x="533.0" y="446.0" name="topright"/>
  <outline>
    <contour>
      <point x="295.0" y="-223.0" type="curve" smooth="yes"/>
      <point x="344.0" y="-223.0"/>
      <point x="385.0" y="-206.0"/>
      <point x="416.0" y="-173.0" type="curve"/>
      <point x="384.0" y="-127.0" type="line"/>
      <point x="358.0" y="-151.0"/>
      <point x="336.0" y="-161.0"/>
      <point x="317.0" y="-161.0" type="curve" smooth="yes"/>
      <point x="290.0" y="-161.0"/>
      <point x="268.0" y="-142.0"/>
      <point x="268.0" y="-108.0" type="curve" smooth="yes"/>
      <point x="268.0" y="-73.0"/>
      <point x="291.0" y="-28.0"/>
      <point x="390.0" y="18.0" type="curve" smooth="yes"/>
      <point x="460.0" y="51.0"/>
      <point x="520.0" y="131.0"/>
      <point x="520.0" y="229.0" type="curve" smooth="yes"/>
      <point x="520.0" y="360.0"/>
      <point x="422.0" y="454.0"/>
      <point x="284.0" y="454.0" type="curve" smooth="yes"/>
      <point x="156.0" y="454.0"/>
      <point x="31.0" y="371.0"/>
      <point x="31.0" y="216.0" type="curve" smooth="yes"/>
      <point x="31.0" y="85.0"/>
      <point x="134.0" y="-8.0"/>
      <point x="279.0" y="-8.0" type="curve" smooth="yes"/>
      <point x="316.0" y="-8.0" type="line"/>
      <point x="336.0" y="25.0" type="line"/>
      <point x="216.0" y="-12.0"/>
      <point x="156.0" y="-62.0"/>
      <point x="156.0" y="-116.0" type="curve" smooth="yes"/>
      <point x="156.0" y="-180.0"/>
      <point x="222.0" y="-223.0"/>
    </contour>
    <contour>
      <point x="290.0" y="67.0" type="curve" smooth="yes"/>
      <point x="242.0" y="67.0"/>
      <point x="206.0" y="149.0"/>
      <point x="206.0" y="254.0" type="curve" smooth="yes"/>
      <point x="206.0" y="335.0"/>
      <point x="228.0" y="384.0"/>
      <point x="265.0" y="384.0" type="curve" smooth="yes"/>
      <point x="314.0" y="384.0"/>
      <point x="347.0" y="305.0"/>
      <point x="347.0" y="189.0" type="curve" smooth="yes"/>
      <point x="347.0" y="108.0"/>
      <point x="329.0" y="67.0"/>
    </contour>
  </outline>
</glyph>
<glyph name="ringhalfright" format="2">
  <advance width="600.0"/>
  <unicode hex="02BE"/>
  <anchor x="300.0" y="446.0" name="_top"/>
  <anchor x="300.0" y="648.0" name="top"/>
  <outline>
    <contour>
      <point x="300.0" y="479.0" type="line"/>
      <point x="369.0" y="479.0"/>
      <point x="420.0" y="527.0"/>
      <point x="420.0" y="591.0" type="curve" smooth="yes"/>
      <point x="420.0" y="654.0"/>
      <point x="369.0" y="702.0"/>
      <point x="300.0" y="702.0" type="curve"/>
      <point x="300.0" y="651.0" type="line"/>
      <point x="333.0" y="651.0"/>
      <point x="357.0" y="625.0"/>
      <point x="357.0" y="592.0" type="curve" smooth="yes"/>
      <point x="357.0" y="557.0"/>
      <point x="333.0" y="532.0"/>
      <point x="300.0" y="532.0" type="curve"/>
    </contour>
  </outline>
</glyph>
<glyph name="verticallinemod" format="2">
  <advance width="600.0"/>
  <unicode hex="02C8"/>
  <anchor x="300.0" y="446.0" name="_top"/>
  <anchor x="300.0" y="687.0" name="top"/>
  <outline>
    <contour>
      <point x="259.0" y="546.0" type="line"/>
      <point x="342.0" y="546.0" type="line"/>
      <point x="342.0" y="666.0" type="line"/>
      <point x="259.0" y="666.0" type="line"/>
    </contour>
  </outline>
</glyph>
<glyph name="circumflexcomb" format="2">
  <unicode hex="0302"/>
  <note>
uni0302
</note>
  <anchor x="300.0" y="446.0" name="_top"/>
  <anchor x="300.0" y="687.0" name="top"/>
  <outline>
    <contour>
      <point x="475.0" y="509.0" type="line"/>
      <point x="365.0" y="668.0" type="line"/>
      <point x="235.0" y="668.0" type="line"/>
      <point x="125.0" y="509.0" type="line"/>
      <point x="197.0" y="484.0" type="line"/>
      <point x="335.0" y="614.0" type="line"/>
      <point x="265.0" y="614.0" type="line"/>
      <point x="403.0" y="484.0" type="line"/>
    </contour>
  </outline>
</glyph>
<glyph name="dotaccentcomb" format="2">
  <unicode hex="0307"/>
  <note>
uni0307
</note>
  <anchor x="300.0" y="446.0" name="_top"/>
  <anchor x="300.0" y="659.0" name="top"/>
  <outline>
    <contour>
      <point x="301.0" y="491.0" type="curve" smooth="yes"/>
      <point x="361.0" y="491.0"/>
      <point x="392.0" y="534.0"/>
      <point x="392.0" y="578.0" type="curve" smooth="yes"/>
      <point x="392.0" y="623.0"/>
      <point x="361.0" y="665.0"/>
      <point x="301.0" y="665.0" type="curve" smooth="yes"/>
      <point x="240.0" y="665.0"/>
      <point x="208.0" y="623.0"/>
      <point x="208.0" y="578.0" type="curve" smooth="yes"/>
      <point x="208.0" y="534.0"/>
      <point x="240.0" y="491.0"/>
    </contour>
  </outline>
</glyph>
<glyph name="hookabovecomb" format="2">
  <unicode hex="0309"/>
  <note>
hookabovecomb
</note>
  <anchor x="300.0" y="446.0" name="_top"/>
  <anchor x="300.0" y="687.0" name="top"/>
  <outline>
    <contour>
      <point x="300.0" y="673.0" type="curve" smooth="yes"/>
      <point x="231.0" y="673.0"/>
      <point x="186.0" y="643.0"/>
      <point x="186.0" y="609.0" type="curve" smooth="yes"/>
      <point x="186.0" y="591.0"/>
      <point x="201.0" y="579.0"/>
      <point x="222.0" y="579.0" type="curve" smooth="yes"/>
      <point x="240.0" y="579.0"/>
      <point x="252.0" y="586.0"/>
      <point x="262.0" y="596.0" type="curve" smooth="yes"/>
      <point x="306.0" y="646.0" type="line"/>
      <point x="261.0" y="626.0" type="line"/>
      <point x="300.0" y="636.0"/>
      <point x="316.0" y="631.0"/>
      <point x="316.0" y="611.0" type="curve" smooth="yes"/>
      <point x="316.0" y="584.0"/>
      <point x="273.0" y="557.0"/>
      <point x="273.0" y="511.0" type="curve" smooth="yes"/>
      <point x="273.0" y="494.0" type="line"/>
      <point x="326.0" y="494.0" type="line"/>
      <point x="326.0" y="531.0"/>
      <point x="421.0" y="545.0"/>
      <point x="421.0" y="603.0" type="curve" smooth="yes"/>
      <point x="421.0" y="647.0"/>
      <point x="375.0" y="673.0"/>
    </contour>
  </outline>
</glyph>
<glyph name="hungarumlautcomb" format="2">
  <unicode hex="030B"/>
  <note>
uni030B
</note>
  <anchor x="300.0" y="446.0" name="_top"/>
  <anchor x="300.0" y="687.0" name="top"/>
  <outline>
    <contour>
      <point x="399.0" y="484.0" type="line"/>
      <point x="494.0" y="656.0" type="line"/>
      <point x="388.0" y="677.0" type="line"/>
      <point x="332.0" y="506.0" type="line"/>
    </contour>
    <contour>
      <point x="268.0" y="484.0" type="line"/>
      <point x="362.0" y="656.0" type="line"/>
      <point x="257.0" y="677.0" type="line"/>
      <point x="201.0" y="506.0" type="line"/>
    </contour>
  </outline>
</glyph>
<glyph name="caroncomb" format="2">
  <unicode hex="030C"/>
  <note>
uni030C
</note>
  <anchor x="300.0" y="446.0" name="_top"/>
  <anchor x="300.0" y="687.0" name="top"/>
  <outline>
    <contour>
      <point x="475.0" y="652.0" type="line"/>
      <point x="403.0" y="677.0" type="line"/>
      <point x="264.0" y="546.0" type="line"/>
      <point x="334.0" y="546.0" type="line"/>
      <point x="197.0" y="677.0" type="line"/>
      <point x="125.0" y="652.0" type="line"/>
      <point x="235.0" y="493.0" type="line"/>
      <point x="365.0" y="493.0" type="line"/>
    </contour>
  </outline>
</glyph>
<glyph name="horncomb" format="2">
  <unicode hex="031B"/>
  <anchor x="368.0" y="439.0" name="_topright"/>
  <outline>
    <contour>
      <point x="368.0" y="439.0" type="curve" smooth="yes"/>
      <point x="337.0" y="439.0" type="line"/>
      <point x="337.0" y="385.0" type="line"/>
      <point x="409.0" y="385.0" type="line" smooth="yes"/>
      <point x="433.0" y="385.0"/>
      <point x="544.0" y="417.0"/>
      <point x="544.0" y="484.0" type="curve" smooth="yes"/>
      <point x="544.0" y="530.0"/>
      <point x="495.0" y="558.0"/>
      <point x="413.0" y="547.0" type="curve"/>
      <point x="406.0" y="469.0" type="line" smooth="yes"/>
      <point x="404.0" y="445.0"/>
      <point x="398.0" y="439.0"/>
    </contour>
  </outline>
</glyph>
<glyph name="Omega" format="2">
  <advance width="898.0"/>
  <unicode hex="03A9"/>
  <outline>
    <contour>
      <point x="68.0" y="-7.0" type="line"/>
      <point x="98.0" y="-4.0"/>
      <point x="204.0" y="0.0"/>
      <point x="262.0" y="0.0" type="curve" smooth="yes"/>
      <point x="407.0" y="0.0" type="line"/>
      <point x="420.0" y="54.0" type="line"/>
      <point x="345.0" y="157.0"/>
      <point x="307.0" y="241.0"/>
      <point x="307.0" y="339.0" type="curve" smooth="yes"/>
      <point x="307.0" y="454.0"/>
      <point x="357.0" y="518.0"/>
      <point x="449.0" y="518.0" type="curve" smooth="yes"/>
      <point x="542.0" y="518.0"/>
      <point x="592.0" y="454.0"/>
      <point x="592.0" y="339.0" type="curve" smooth="yes"/>
      <point x="592.0" y="241.0"/>
      <point x="554.0" y="157.0"/>
      <point x="479.0" y="54.0" type="curve"/>
      <point x="492.0" y="0.0" type="line"/>
      <point x="637.0" y="0.0" type="line" smooth="yes"/>
      <point x="695.0" y="0.0"/>
      <point x="801.0" y="-4.0"/>
      <point x="832.0" y="-7.0" type="curve"/>
      <point x="886.0" y="189.0" type="line"/>
      <point x="813.0" y="207.0" type="line"/>
      <point x="752.0" y="87.0" type="line"/>
      <point x="561.0" y="87.0" type="line"/>
      <point x="597.0" y="73.0" type="line"/>
      <point x="706.0" y="129.0"/>
      <point x="787.0" y="246.0"/>
      <point x="787.0" y="358.0" type="curve" smooth="yes"/>
      <point x="787.0" y="488.0"/>
      <point x="652.0" y="596.0"/>
      <point x="449.0" y="596.0" type="curve" smooth="yes"/>
      <point x="247.0" y="596.0"/>
      <point x="113.0" y="479.0"/>
      <point x="113.0" y="347.0" type="curve" smooth="yes"/>
      <point x="113.0" y="240.0"/>
      <point x="196.0" y="144.0"/>
      <point x="301.0" y="73.0" type="curve"/>
      <point x="338.0" y="87.0" type="line"/>
      <point x="147.0" y="87.0" type="line"/>
      <point x="85.0" y="207.0" type="line"/>
      <point x="12.0" y="189.0" type="line"/>
    </contour>
  </outline>
</glyph>
<glyph name="pi" format="2">
  <advance width="624.364719981977"/>
  <unicode hex="03C0"/>
  <outline>
    <contour>
      <point x="449.71115656107054" y="-11.0" type="curve" smooth="yes"/>
      <point x="515.2494239843802" y="-11.0"/>
      <point x="567.8393312610365" y="41.44448426155532"/>
      <point x="590.364719981977" y="85.5753828153754" type="curve"/>
      <point x="554.595531411693" y="119.55611195714528" type="line"/>
      <point x="540.5048964685916" y="102.60234815293506"/>
      <point x="524.3071268418091" y="92.72922052943227"/>
      <point x="506.3071268418091" y="92.72922052943227" type="curve" smooth="yes"/>
      <point x="479.8624910172575" y="92.72922052943227"/>
      <point x="455.0074188074109" y="113.28759332879902"/>
      <point x="454.54757370064044" y="165.66946046199723" type="curve" smooth="yes"/>
      <point x="452.6208854416999" y="385.14233709150676" type="line"/>
      <point x="321.6021993346633" y="383.1410249397975" type="line"/>
      <point x="323.88426513335935" y="148.17146281337273" type="line" smooth="yes"/>
      <point x="324.76851161044476" y="57.12631957021141"/>
      <point x="357.86499427512945" y="-11.0"/>
    </contour>
    <contour>
      <point x="123.28798229567076" y="-10.0" type="curve" smooth="yes"/>
      <point x="188.17786922462108" y="-10.0"/>
      <point x="216.9045476716882" y="44.081581867089454"/>
      <point x="216.9045476716882" y="139.4259347573079" type="curve" smooth="yes"/>
      <point x="216.9045476716882" y="389.7643799358939" type="line"/>
      <point x="150.45119077755783" y="386.7462456601288" type="line"/>
      <point x="150.45119077755783" y="227.19538522941912" type="line" smooth="yes"/>
      <point x="150.45119077755783" y="138.16042409434544"/>
      <point x="103.46941692923008" y="106.5028421004206"/>
      <point x="68.64240101454129" y="100.47231146569288" type="curve"/>
      <point x="60.23711575062748" y="91.70366232576202"/>
      <point x="54.97409805631253" y="77.82344645008857"/>
      <point x="54.97409805631253" y="60.25871151658271" type="curve" smooth="yes"/>
      <point x="54.97409805631253" y="20.827741454278566"/>
      <point x="81.95185942684589" y="-10.0"/>
    </contour>
    <contour>
      <point x="66.34610742731275" y="287.6712982374813" type="line"/>
      <point x="102.36369314044623" y="323.6888839506148"/>
      <point x="149.42088278248676" y="335.7869654083742"/>
      <point x="184.38442970925075" y="337.38395830127206" type="curve"/>
      <point x="567.2205176970358" y="337.1520090930419" type="line"/>
      <point x="590.1724136963014" y="434.3249713756477" type="line"/>
      <point x="562.284483503332" y="453.2504245855282" type="line"/>
      <point x="455.0379565577357" y="446.3308332800252" type="line"/>
      <point x="193.4005273391134" y="443.8269433214491" type="line"/>
      <point x="112.91985305597393" y="443.8269433214491"/>
      <point x="59.19226971325588" y="394.97886394833404"/>
      <point x="27.0" y="325.22894623627985" type="curve"/>
    </contour>
  </outline>
</glyph>
<glyph name="endash" format="2">
  <advance width="500.0"/>
  <unicode hex="2013"/>
  <note>
endash
</note>
  <outline>
    <contour>
      <point x="0.0" y="195.0" type="line"/>
      <point x="500.0" y="195.0" type="line"/>
      <point x="500.0" y="267.0" type="line"/>
      <point x="0.0" y="267.0" type="line"/>
    </contour>
  </outline>
</glyph>
<glyph name="quoteleft" format="2">
  <advance width="329.0"/>
  <unicode hex="2018"/>
  <note>
quoteleft
</note>
  <outline>
    <contour>
      <point x="271.0" y="698.0" type="line"/>
      <point x="111.0" y="633.0"/>
      <point x="44.0" y="532.0"/>
      <point x="44.0" y="407.0" type="curve" smooth="yes"/>
      <point x="44.0" y="291.0"/>
      <point x="110.0" y="251.0"/>
      <point x="169.0" y="251.0" type="curve" smooth="yes"/>
      <point x="232.0" y="251.0"/>
      <point x="279.0" y="295.0"/>
      <point x="279.0" y="352.0" type="curve" smooth="yes"/>
      <point x="279.0" y="447.0"/>
      <point x="174.0" y="440.0"/>
      <point x="174.0" y="524.0" type="curve" smooth="yes"/>
      <point x="174.0" y="569.0"/>
      <point x="200.0" y="610.0"/>
      <point x="294.0" y="649.0" type="curve"/>
    </contour>
  </outline>
</glyph>
<glyph name="daggerdbl" format="2">
  <advance width="529.0"/>
  <unicode hex="2021"/>
  <note>
daggerdbl
</note>
  <outline>
    <contour>
      <point x="438.0" y="307.0" type="curve" smooth="yes"/>
      <point x="406.0" y="307.0"/>
      <point x="353.0" y="281.0"/>
      <point x="308.0" y="268.0" type="curve"/>
      <point x="321.0" y="285.0"/>
      <point x="334.0" y="306.0"/>
      <point x="353.0" y="343.0" type="curve"/>
      <point x="334.0" y="381.0"/>
      <point x="321.0" y="402.0"/>
      <point x="308.0" y="419.0" type="curve"/>
      <point x="353.0" y="406.0"/>
      <point x="406.0" y="380.0"/>
      <point x="438.0" y="380.0" type="curve" smooth="yes"/>
      <point x="489.0" y="380.0"/>
      <point x="510.0" y="411.0"/>
      <point x="510.0" y="453.0" type="curve" smooth="yes"/>
      <point x="510.0" y="494.0"/>
      <point x="489.0" y="526.0"/>
      <point x="438.0" y="526.0" type="curve" smooth="yes"/>
      <point x="403.0" y="526.0"/>
      <point x="344.0" y="497.0"/>
      <point x="297.0" y="485.0" type="curve"/>
      <point x="309.0" y="533.0"/>
      <point x="338.0" y="591.0"/>
      <point x="338.0" y="626.0" type="curve" smooth="yes"/>
      <point x="338.0" y="677.0"/>
      <point x="306.0" y="698.0"/>
      <point x="265.0" y="698.0" type="curve" smooth="yes"/>
      <point x="223.0" y="698.0"/>
      <point x="191.0" y="677.0"/>
      <point x="191.0" y="626.0" type="curve" smooth="yes"/>
      <point x="191.0" y="591.0"/>
      <point x="220.0" y="533.0"/>
      <point x="232.0" y="485.0" type="curve"/>
      <point x="185.0" y="497.0"/>
      <point x="126.0" y="526.0"/>
      <point x="91.0" y="526.0" type="curve" smooth="yes"/>
      <point x="40.0" y="526.0"/>
      <point x="19.0" y="494.0"/>
      <point x="19.0" y="453.0" type="curve" smooth="yes"/>
      <point x="19.0" y="411.0"/>
      <point x="40.0" y="380.0"/>
      <point x="91.0" y="380.0" type="curve" smooth="yes"/>
      <point x="123.0" y="380.0"/>
      <point x="176.0" y="406.0"/>
      <point x="221.0" y="419.0" type="curve"/>
      <point x="209.0" y="402.0"/>
      <point x="195.0" y="381.0"/>
      <point x="176.0" y="343.0" type="curve"/>
      <point x="195.0" y="306.0"/>
      <point x="209.0" y="285.0"/>
      <point x="221.0" y="268.0" type="curve"/>
      <point x="176.0" y="281.0"/>
      <point x="123.0" y="307.0"/>
      <point x="91.0" y="307.0" type="curve" smooth="yes"/>
      <point x="40.0" y="307.0"/>
      <point x="19.0" y="275.0"/>
      <point x="19.0" y="234.0" type="curve" smooth="yes"/>
      <point x="19.0" y="193.0"/>
      <point x="40.0" y="161.0"/>
      <point x="91.0" y="161.0" type="curve" smooth="yes"/>
      <point x="126.0" y="161.0"/>
      <point x="185.0" y="190.0"/>
      <point x="232.0" y="202.0" type="curve"/>
      <point x="220.0" y="154.0"/>
      <point x="191.0" y="95.0"/>
      <point x="191.0" y="61.0" type="curve" smooth="yes"/>
      <point x="191.0" y="10.0"/>
      <point x="223.0" y="-11.0"/>
      <point x="265.0" y="-11.0" type="curve" smooth="yes"/>
      <point x="306.0" y="-11.0"/>
      <point x="338.0" y="10.0"/>
      <point x="338.0" y="61.0" type="curve" smooth="yes"/>
      <point x="338.0" y="95.0"/>
      <point x="309.0" y="154.0"/>
      <point x="297.0" y="202.0" type="curve"/>
      <point x="344.0" y="190.0"/>
      <point x="403.0" y="161.0"/>
      <point x="438.0" y="161.0" type="curve" smooth="yes"/>
      <point x="489.0" y="161.0"/>
      <point x="510.0" y="193.0"/>
      <point x="510.0" y="234.0" type="curve" smooth="yes"/>
      <point x="510.0" y="275.0"/>
      <point x="489.0" y="307.0"/>
    </contour>
  </outline>
</glyph>
<glyph name="bullet" format="2">
  <advance width="420.0"/>
  <unicode hex="2022"/>
  <note>
bullet
</note>
  <outline>
    <contour>
      <point x="210.0" y="76.0" type="curve" smooth="yes"/>
      <point x="296.0" y="76.0"/>
      <point x="365.0" y="142.0"/>
      <point x="365.0" y="227.0" type="curve" smooth="yes"/>
      <point x="365.0" y="314.0"/>
      <point x="296.0" y="383.0"/>
      <point x="210.0" y="383.0" type="curve" smooth="yes"/>
      <point x="125.0" y="383.0"/>
      <point x="55.0" y="314.0"/>
      <point x="55.0" y="227.0" type="curve" smooth="yes"/>
      <point x="55.0" y="142.0"/>
      <point x="125.0" y="76.0"/>
    </contour>
  </outline>
</glyph>
<glyph name="perthousand" format="2">
  <advance width="1172.0"/>
  <unicode hex="2030"/>
  <note>
perthousand
</note>
  <outline>
    <contour>
      <point x="965.0" y="-10.0" type="curve" smooth="yes"/>
      <point x="1058.0" y="-10.0"/>
      <point x="1133.0" y="58.0"/>
      <point x="1133.0" y="148.0" type="curve" smooth="yes"/>
      <point x="1133.0" y="241.0"/>
      <point x="1063.0" y="305.0"/>
      <point x="965.0" y="305.0" type="curve" smooth="yes"/>
      <point x="875.0" y="305.0"/>
      <point x="799.0" y="236.0"/>
      <point x="799.0" y="148.0" type="curve" smooth="yes"/>
      <point x="799.0" y="55.0"/>
      <point x="868.0" y="-10.0"/>
    </contour>
    <contour>
      <point x="967.0" y="90.0" type="curve" smooth="yes"/>
      <point x="938.0" y="90.0"/>
      <point x="914.0" y="112.0"/>
      <point x="914.0" y="149.0" type="curve" smooth="yes"/>
      <point x="914.0" y="185.0"/>
      <point x="938.0" y="206.0"/>
      <point x="967.0" y="206.0" type="curve" smooth="yes"/>
      <point x="996.0" y="206.0"/>
      <point x="1021.0" y="186.0"/>
      <point x="1021.0" y="149.0" type="curve" smooth="yes"/>
      <point x="1021.0" y="111.0"/>
      <point x="996.0" y="90.0"/>
    </contour>
    <component base="percent"/>
  </outline>
</glyph>
<glyph name="commercialMinusSign" format="2">
  <advance width="540.0"/>
  <unicode hex="2052"/>
  <outline>
    <contour>
      <point x="114.0" y="0.0" type="line"/>
      <point x="230.0" y="0.0" type="line"/>
      <point x="424.0" y="587.0" type="line"/>
      <point x="308.0" y="587.0" type="line"/>
    </contour>
    <contour>
      <point x="403.0" y="-12.0" type="curve" smooth="yes"/>
      <point x="466.0" y="-12.0"/>
      <point x="517.0" y="36.0"/>
      <point x="517.0" y="97.0" type="curve" smooth="yes"/>
      <point x="517.0" y="160.0"/>
      <point x="466.0" y="210.0"/>
      <point x="403.0" y="210.0" type="curve" smooth="yes"/>
      <point x="341.0" y="210.0"/>
      <point x="289.0" y="160.0"/>
      <point x="289.0" y="97.0" type="curve" smooth="yes"/>
      <point x="289.0" y="36.0"/>
      <point x="341.0" y="-12.0"/>
    </contour>
    <contour>
      <point x="135.0" y="377.0" type="curve" smooth="yes"/>
      <point x="199.0" y="377.0"/>
      <point x="249.0" y="425.0"/>
      <point x="249.0" y="485.0" type="curve" smooth="yes"/>
      <point x="249.0" y="548.0"/>
      <point x="199.0" y="598.0"/>
      <point x="135.0" y="598.0" type="curve" smooth="yes"/>
      <point x="74.0" y="598.0"/>
      <point x="21.0" y="548.0"/>
      <point x="21.0" y="485.0" type="curve" smooth="yes"/>
      <point x="21.0" y="425.0"/>
      <point x="74.0" y="377.0"/>
    </contour>
  </outline>
</glyph>
<glyph name="fivesuperior" format="2">
  <advance width="400.0"/>
  <unicode hex="2075"/>
  <note>
uni2085
</note>
  <outline>
    <contour>
      <point x="153.0" y="193.0" type="curve" smooth="yes"/>
      <point x="301.0" y="193.0"/>
      <point x="361.0" y="264.0"/>
      <point x="361.0" y="327.0" type="curve" smooth="yes"/>
      <point x="361.0" y="403.0"/>
      <point x="281.0" y="450.0"/>
      <point x="135.0" y="450.0" type="curve"/>
      <point x="140.0" y="434.0" type="line"/>
      <point x="146.0" y="485.0" type="line"/>
      <point x="333.0" y="485.0" type="line"/>
      <point x="341.0" y="587.0" type="line"/>
      <point x="97.0" y="587.0" type="line"/>
      <point x="70.0" y="347.0" type="line"/>
      <point x="170.0" y="349.0"/>
      <point x="213.0" y="328.0"/>
      <point x="213.0" y="290.0" type="curve" smooth="yes"/>
      <point x="213.0" y="257.0"/>
      <point x="178.0" y="238.0"/>
      <point x="147.0" y="260.0" type="curve"/>
      <point x="175.0" y="241.0" type="line"/>
      <point x="119.0" y="290.0" type="line" smooth="yes"/>
      <point x="100.0" y="304.0"/>
      <point x="85.0" y="313.0"/>
      <point x="68.0" y="313.0" type="curve" smooth="yes"/>
      <point x="37.0" y="313.0"/>
      <point x="20.0" y="291.0"/>
      <point x="20.0" y="266.0" type="curve" smooth="yes"/>
      <point x="20.0" y="225.0"/>
      <point x="77.0" y="193.0"/>
    </contour>
  </outline>
</glyph>
<glyph name="sixsuperior" format="2">
  <advance width="400.0"/>
  <unicode hex="2076"/>
  <note>
uni2086
</note>
  <outline>
    <contour>
      <point x="151.0" y="379.0" type="curve"/>
      <point x="156.0" y="340.0" type="line"/>
      <point x="163.0" y="354.0"/>
      <point x="187.0" y="370.0"/>
      <point x="201.0" y="370.0" type="curve" smooth="yes"/>
      <point x="222.0" y="370.0"/>
      <point x="238.0" y="346.0"/>
      <point x="238.0" y="309.0" type="curve" smooth="yes"/>
      <point x="238.0" y="271.0"/>
      <point x="224.0" y="246.0"/>
      <point x="206.0" y="246.0" type="curve" smooth="yes"/>
      <point x="177.0" y="246.0"/>
      <point x="163.0" y="299.0"/>
      <point x="163.0" y="341.0" type="curve" smooth="yes"/>
      <point x="163.0" y="469.0"/>
      <point x="213.0" y="529.0"/>
      <point x="349.0" y="544.0" type="curve"/>
      <point x="337.0" y="599.0" type="line"/>
      <point x="155.0" y="603.0"/>
      <point x="21.0" y="498.0"/>
      <point x="21.0" y="365.0" type="curve" smooth="yes"/>
      <point x="21.0" y="271.0"/>
      <point x="89.0" y="193.0"/>
      <point x="199.0" y="193.0" type="curve" smooth="yes"/>
      <point x="288.0" y="193.0"/>
      <point x="378.0" y="253.0"/>
      <point x="378.0" y="339.0" type="curve" smooth="yes"/>
      <point x="378.0" y="420.0"/>
      <point x="314.0" y="458.0"/>
      <point x="262.0" y="458.0" type="curve" smooth="yes"/>
      <point x="227.0" y="458.0"/>
      <point x="184.0" y="428.0"/>
    </contour>
  </outline>
</glyph>
<glyph name="ninesuperior" format="2">
  <advance width="400.0"/>
  <unicode hex="2079"/>
  <note>
uni2089
</note>
  <outline>
    <contour>
      <point x="249.0" y="407.0" type="curve"/>
      <point x="244.0" y="446.0" type="line"/>
      <point x="237.0" y="432.0"/>
      <point x="213.0" y="416.0"/>
      <point x="199.0" y="416.0" type="curve" smooth="yes"/>
      <point x="178.0" y="416.0"/>
      <point x="162.0" y="440.0"/>
      <point x="162.0" y="477.0" type="curve" smooth="yes"/>
      <point x="162.0" y="515.0"/>
      <point x="176.0" y="540.0"/>
      <point x="194.0" y="540.0" type="curve" smooth="yes"/>
      <point x="223.0" y="540.0"/>
      <point x="237.0" y="487.0"/>
      <point x="237.0" y="445.0" type="curve" smooth="yes"/>
      <point x="237.0" y="317.0"/>
      <point x="187.0" y="257.0"/>
      <point x="51.0" y="242.0" type="curve"/>
      <point x="63.0" y="187.0" type="line"/>
      <point x="245.0" y="183.0"/>
      <point x="379.0" y="288.0"/>
      <point x="379.0" y="421.0" type="curve" smooth="yes"/>
      <point x="379.0" y="515.0"/>
      <point x="311.0" y="593.0"/>
      <point x="201.0" y="593.0" type="curve" smooth="yes"/>
      <point x="112.0" y="593.0"/>
      <point x="22.0" y="533.0"/>
      <point x="22.0" y="447.0" type="curve" smooth="yes"/>
      <point x="22.0" y="366.0"/>
      <point x="86.0" y="328.0"/>
      <point x="138.0" y="328.0" type="curve" smooth="yes"/>
      <point x="173.0" y="328.0"/>
      <point x="216.0" y="358.0"/>
    </contour>
  </outline>
</glyph>
<glyph name="peseta" format="2">
  <advance width="681.0"/>
  <unicode hex="20A7"/>
  <outline>
    <contour>
      <point x="12.0" y="365.0" type="line"/>
      <point x="649.0" y="365.0" type="line"/>
      <point x="649.0" y="433.0" type="line"/>
      <point x="12.0" y="433.0" type="line"/>
    </contour>
    <contour>
      <point x="32.0" y="0.0" type="line"/>
      <point x="352.0" y="0.0" type="line"/>
      <point x="355.0" y="59.0" type="line"/>
      <point x="274.0" y="75.0" type="line"/>
      <point x="271.0" y="84.0"/>
      <point x="267.0" y="163.0"/>
      <point x="267.0" y="229.0" type="curve"/>
      <point x="266.0" y="362.0" type="line"/>
      <point x="266.0" y="468.0"/>
      <point x="265.0" y="506.0"/>
      <point x="266.0" y="524.0" type="curve"/>
      <point x="279.0" y="524.0" type="line" smooth="yes"/>
      <point x="358.0" y="524.0"/>
      <point x="398.0" y="486.0"/>
      <point x="398.0" y="399.0" type="curve" smooth="yes"/>
      <point x="398.0" y="328.0"/>
      <point x="368.0" y="286.0"/>
      <point x="314.0" y="286.0" type="curve" smooth="yes"/>
      <point x="282.0" y="286.0"/>
      <point x="260.0" y="292.0"/>
      <point x="253.0" y="300.0" type="curve"/>
      <point x="253.0" y="218.0" type="line"/>
      <point x="272.0" y="214.0"/>
      <point x="295.0" y="211.0"/>
      <point x="312.0" y="211.0" type="curve" smooth="yes"/>
      <point x="489.0" y="211.0"/>
      <point x="576.0" y="303.0"/>
      <point x="576.0" y="413.0" type="curve" smooth="yes"/>
      <point x="576.0" y="525.0"/>
      <point x="493.0" y="587.0"/>
      <point x="309.0" y="587.0" type="curve" smooth="yes"/>
      <point x="29.0" y="587.0" type="line"/>
      <point x="26.0" y="530.0" type="line"/>
      <point x="91.0" y="517.0" type="line"/>
      <point x="96.0" y="509.0"/>
      <point x="99.0" y="425.0"/>
      <point x="99.0" y="362.0" type="curve"/>
      <point x="98.0" y="229.0" type="line"/>
      <point x="98.0" y="163.0"/>
      <point x="95.0" y="84.0"/>
      <point x="90.0" y="76.0" type="curve"/>
      <point x="29.0" y="57.0" type="line"/>
    </contour>
  </outline>
</glyph>
<glyph name="liraTurkish" format="2">
  <advance width="583.0"/>
  <unicode hex="20BA"/>
  <outline>
    <contour>
      <point x="297.0" y="-9.0" type="curve" smooth="yes"/>
      <point x="430.0" y="-9.0"/>
      <point x="521.0" y="37.0"/>
      <point x="569.0" y="153.0" type="curve"/>
      <point x="510.0" y="197.0" type="line"/>
      <point x="469.0" y="130.0"/>
      <point x="419.0" y="101.0"/>
      <point x="355.0" y="101.0" type="curve" smooth="yes"/>
      <point x="322.0" y="101.0"/>
      <point x="284.0" y="112.0"/>
      <point x="255.0" y="131.0" type="curve"/>
      <point x="258.0" y="354.0" type="line" smooth="yes"/>
      <point x="258.0" y="427.0"/>
      <point x="258.0" y="486.0"/>
      <point x="265.0" y="512.0" type="curve"/>
      <point x="330.0" y="530.0" type="line"/>
      <point x="327.0" y="587.0" type="line"/>
      <point x="19.0" y="587.0" type="line"/>
      <point x="16.0" y="530.0" type="line"/>
      <point x="81.0" y="512.0" type="line"/>
      <point x="86.0" y="485.0"/>
      <point x="88.0" y="407.0"/>
      <point x="88.0" y="354.0" type="curve" smooth="yes"/>
      <point x="88.0" y="60.0" type="line"/>
      <point x="140.0" y="10.0"/>
      <point x="233.0" y="-9.0"/>
    </contour>
    <contour>
      <point x="3.0" y="166.0" type="line"/>
      <point x="435.0" y="334.0" type="line"/>
      <point x="435.0" y="404.0" type="line"/>
      <point x="3.0" y="236.0" type="line"/>
    </contour>
    <contour>
      <point x="3.0" y="279.0" type="line"/>
      <point x="435.0" y="446.0" type="line"/>
      <point x="435.0" y="517.0" type="line"/>
      <point x="3.0" y="349.0" type="line"/>
    </contour>
  </outline>
</glyph>
<glyph name="manat" format="2">
  <advance width="750.0"/>
  <unicode hex="20BC"/>
  <outline>
    <contour>
      <point x="718.0" y="0.0" type="line"/>
      <point x="721.0" y="57.0" type="line"/>
      <point x="656.0" y="77.0" type="line"/>
      <point x="653.0" y="101.0"/>
      <point x="649.0" y="164.0"/>
      <point x="649.0" y="235.0" type="curve" smooth="yes"/>
      <point x="649.0" y="328.0" type="line" smooth="yes"/>
      <point x="649.0" y="486.0"/>
      <point x="538.0" y="599.0"/>
      <point x="369.0" y="599.0" type="curve" smooth="yes"/>
      <point x="211.0" y="599.0"/>
      <point x="100.0" y="489.0"/>
      <point x="100.0" y="335.0" type="curve" smooth="yes"/>
      <point x="100.0" y="253.0" type="line" smooth="yes"/>
      <point x="100.0" y="202.0"/>
      <point x="97.0" y="85.0"/>
      <point x="93.0" y="77.0" type="curve"/>
      <point x="28.0" y="57.0" type="line"/>
      <point x="31.0" y="0.0" type="line"/>
      <point x="270.0" y="0.0" type="line"/>
      <point x="273.0" y="57.0" type="line"/>
      <point x="203.0" y="77.0" type="line"/>
      <point x="198.0" y="85.0"/>
      <point x="196.0" y="202.0"/>
      <point x="196.0" y="253.0" type="curve" smooth="yes"/>
      <point x="196.0" y="311.0" type="line" smooth="yes"/>
      <point x="196.0" y="420.0"/>
      <point x="246.0" y="488.0"/>
      <point x="339.0" y="488.0" type="curve" smooth="yes"/>
      <point x="421.0" y="488.0"/>
      <point x="483.0" y="417.0"/>
      <point x="481.0" y="309.0" type="curve" smooth="yes"/>
      <point x="478.0" y="235.0" type="line" smooth="yes"/>
      <point x="476.0" y="164.0"/>
      <point x="474.0" y="104.0"/>
      <point x="471.0" y="77.0" type="curve"/>
      <point x="406.0" y="57.0" type="line"/>
      <point x="409.0" y="0.0" type="line"/>
    </contour>
    <contour>
      <point x="296.0" y="178.0" type="line"/>
      <point x="378.0" y="178.0" type="line"/>
      <point x="378.0" y="703.0" type="line"/>
      <point x="296.0" y="703.0" type="line"/>
    </contour>
  </outline>
</glyph>
<glyph name="ruble" format="2">
  <advance width="611.0"/>
  <unicode hex="20BD"/>
  <outline>
    <contour>
      <point x="22.0" y="128.0" type="line"/>
      <point x="421.0" y="128.0" type="line"/>
      <point x="421.0" y="196.0" type="line"/>
      <point x="22.0" y="196.0" type="line"/>
    </contour>
    <contour>
      <point x="37.0" y="0.0" type="line"/>
      <point x="357.0" y="0.0" type="line"/>
      <point x="360.0" y="59.0" type="line"/>
      <point x="279.0" y="75.0" type="line"/>
      <point x="276.0" y="84.0"/>
      <point x="272.0" y="163.0"/>
      <point x="272.0" y="229.0" type="curve"/>
      <point x="271.0" y="362.0" type="line"/>
      <point x="271.0" y="468.0"/>
      <point x="270.0" y="506.0"/>
      <point x="271.0" y="524.0" type="curve"/>
      <point x="284.0" y="524.0" type="line" smooth="yes"/>
      <point x="363.0" y="524.0"/>
      <point x="403.0" y="489.0"/>
      <point x="403.0" y="412.0" type="curve" smooth="yes"/>
      <point x="403.0" y="349.0"/>
      <point x="373.0" y="310.0"/>
      <point x="319.0" y="310.0" type="curve" smooth="yes"/>
      <point x="22.0" y="310.0" type="line"/>
      <point x="22.0" y="241.0" type="line"/>
      <point x="317.0" y="241.0" type="line" smooth="yes"/>
      <point x="494.0" y="241.0"/>
      <point x="581.0" y="326.0"/>
      <point x="581.0" y="428.0" type="curve" smooth="yes"/>
      <point x="581.0" y="530.0"/>
      <point x="498.0" y="587.0"/>
      <point x="314.0" y="587.0" type="curve" smooth="yes"/>
      <point x="34.0" y="587.0" type="line"/>
      <point x="31.0" y="530.0" type="line"/>
      <point x="96.0" y="517.0" type="line"/>
      <point x="101.0" y="509.0"/>
      <point x="104.0" y="425.0"/>
      <point x="104.0" y="362.0" type="curve"/>
      <point x="103.0" y="229.0" type="line"/>
      <point x="103.0" y="163.0"/>
      <point x="100.0" y="84.0"/>
      <point x="95.0" y="76.0" type="curve"/>
      <point x="34.0" y="57.0" type="line"/>
    </contour>
  </outline>
</glyph>
<glyph name="literSign" format="2">
  <advance width="558.0"/>
  <unicode hex="2113"/>
  <outline>
    <contour>
      <point x="10.0" y="162.0" type="curve"/>
      <point x="44.0" y="98.0" type="line"/>
      <point x="329.0" y="268.0"/>
      <point x="488.0" y="451.0"/>
      <point x="488.0" y="591.0" type="curve" smooth="yes"/>
      <point x="488.0" y="663.0"/>
      <point x="451.0" y="696.0"/>
      <point x="374.0" y="696.0" type="curve" smooth="yes"/>
      <point x="201.0" y="696.0"/>
      <point x="109.0" y="376.0"/>
      <point x="109.0" y="228.0" type="curve" smooth="yes"/>
      <point x="109.0" y="66.0"/>
      <point x="169.0" y="-15.0"/>
      <point x="278.0" y="-15.0" type="curve" smooth="yes"/>
      <point x="344.0" y="-15.0"/>
      <point x="427.0" y="36.0"/>
      <point x="462.0" y="101.0" type="curve"/>
      <point x="415.0" y="142.0" type="line"/>
      <point x="383.0" y="97.0"/>
      <point x="353.0" y="73.0"/>
      <point x="323.0" y="73.0" type="curve" smooth="yes"/>
      <point x="289.0" y="73.0"/>
      <point x="271.0" y="115.0"/>
      <point x="271.0" y="215.0" type="curve" smooth="yes"/>
      <point x="271.0" y="267.0"/>
      <point x="293.0" y="631.0"/>
      <point x="351.0" y="631.0" type="curve" smooth="yes"/>
      <point x="366.0" y="631.0"/>
      <point x="377.0" y="600.0"/>
      <point x="376.0" y="566.0" type="curve" smooth="yes"/>
      <point x="371.0" y="433.0"/>
      <point x="251.0" y="304.0"/>
    </contour>
  </outline>
</glyph>
<glyph name="product" format="2">
  <advance width="710.0"/>
  <unicode hex="220F"/>
  <outline>
    <contour>
      <point x="611.0" y="144.0" type="curve" smooth="yes"/>
      <point x="611.0" y="354.0" type="line" smooth="yes"/>
      <point x="611.0" y="408.0"/>
      <point x="616.0" y="503.0"/>
      <point x="619.0" y="513.0" type="curve"/>
      <point x="684.0" y="530.0" type="line"/>
      <point x="681.0" y="587.0" type="line"/>
      <point x="29.0" y="587.0" type="line"/>
      <point x="26.0" y="530.0" type="line"/>
      <point x="91.0" y="513.0" type="line"/>
      <point x="95.0" y="507.0"/>
      <point x="99.0" y="431.0"/>
      <point x="99.0" y="354.0" type="curve" smooth="yes"/>
      <point x="99.0" y="144.0" type="line" smooth="yes"/>
      <point x="99.0" y="68.0"/>
      <point x="95.0" y="-7.0"/>
      <point x="91.0" y="-14.0" type="curve"/>
      <point x="26.0" y="-33.0" type="line"/>
      <point x="29.0" y="-90.0" type="line"/>
      <point x="332.0" y="-90.0" type="line"/>
      <point x="335.0" y="-33.0" type="line"/>
      <point x="273.0" y="-14.0" type="line"/>
      <point x="269.0" y="-3.0"/>
      <point x="266.0" y="77.0"/>
      <point x="266.0" y="144.0" type="curve" smooth="yes"/>
      <point x="266.0" y="354.0" type="line" smooth="yes"/>
      <point x="266.0" y="422.0"/>
      <point x="267.0" y="496.0"/>
      <point x="270.0" y="506.0" type="curve"/>
      <point x="294.0" y="508.0"/>
      <point x="329.0" y="508.0"/>
      <point x="354.0" y="508.0" type="curve" smooth="yes"/>
      <point x="380.0" y="508.0"/>
      <point x="415.0" y="508.0"/>
      <point x="438.0" y="506.0" type="curve"/>
      <point x="442.0" y="496.0"/>
      <point x="444.0" y="422.0"/>
      <point x="444.0" y="354.0" type="curve" smooth="yes"/>
      <point x="444.0" y="144.0" type="line" smooth="yes"/>
      <point x="444.0" y="77.0"/>
      <point x="440.0" y="-3.0"/>
      <point x="437.0" y="-14.0" type="curve"/>
      <point x="375.0" y="-33.0" type="line"/>
      <point x="378.0" y="-90.0" type="line"/>
      <point x="681.0" y="-90.0" type="line"/>
      <point x="684.0" y="-33.0" type="line"/>
      <point x="619.0" y="-14.0" type="line"/>
      <point x="616.0" y="-3.0"/>
      <point x="611.0" y="92.0"/>
    </contour>
  </outline>
</glyph>
<glyph name="summation" format="2">
  <advance width="530.0"/>
  <unicode hex="2211"/>
  <note>
summation
</note>
  <outline>
    <contour>
      <point x="423.0" y="134.0" type="line"/>
      <point x="399.0" y="48.0" type="line"/>
      <point x="378.0" y="46.0"/>
      <point x="356.0" y="43.0"/>
      <point x="308.0" y="43.0" type="curve" smooth="yes"/>
      <point x="73.0" y="43.0" type="line"/>
      <point x="85.0" y="-55.0" type="line"/>
      <point x="355.0" y="262.0" type="line"/>
      <point x="157.0" y="570.0" type="line"/>
      <point x="158.0" y="522.0" type="line"/>
      <point x="302.0" y="522.0" type="line" smooth="yes"/>
      <point x="350.0" y="522.0"/>
      <point x="372.0" y="521.0"/>
      <point x="393.0" y="518.0" type="curve"/>
      <point x="416.0" y="412.0" type="line"/>
      <point x="490.0" y="412.0" type="line"/>
      <point x="493.0" y="590.0" type="line"/>
      <point x="461.0" y="587.0"/>
      <point x="411.0" y="587.0"/>
      <point x="385.0" y="587.0" type="curve" smooth="yes"/>
      <point x="84.0" y="587.0" type="line" smooth="yes"/>
      <point x="57.0" y="587.0"/>
      <point x="30.0" y="588.0"/>
      <point x="3.0" y="589.0" type="curve"/>
      <point x="3.0" y="526.0" type="line"/>
      <point x="228.0" y="189.0" type="line"/>
      <point x="259.0" y="282.0" type="line"/>
      <point x="6.0" y="-28.0" type="line"/>
      <point x="6.0" y="-92.0" type="line"/>
      <point x="31.0" y="-91.0"/>
      <point x="58.0" y="-90.0"/>
      <point x="86.0" y="-90.0" type="curve" smooth="yes"/>
      <point x="388.0" y="-90.0" type="line" smooth="yes"/>
      <point x="415.0" y="-90.0"/>
      <point x="465.0" y="-90.0"/>
      <point x="496.0" y="-93.0" type="curve"/>
      <point x="494.0" y="134.0" type="line"/>
    </contour>
  </outline>
</glyph>
<glyph name="approxequal" format="2">
  <advance width="540.0"/>
  <unicode hex="2248"/>
  <outline>
    <contour>
      <point x="438.0" y="404.0" type="line"/>
      <point x="423.0" y="376.0"/>
      <point x="403.0" y="361.0"/>
      <point x="378.0" y="361.0" type="curve" smooth="yes"/>
      <point x="335.0" y="361.0"/>
      <point x="246.0" y="422.0"/>
      <point x="175.0" y="422.0" type="curve" smooth="yes"/>
      <point x="120.0" y="422.0"/>
      <point x="72.0" y="381.0"/>
      <point x="53.0" y="315.0" type="curve"/>
      <point x="102.0" y="282.0" type="line"/>
      <point x="119.0" y="312.0"/>
      <point x="139.0" y="327.0"/>
      <point x="162.0" y="327.0" type="curve" smooth="yes"/>
      <point x="205.0" y="327.0"/>
      <point x="294.0" y="265.0"/>
      <point x="365.0" y="265.0" type="curve" smooth="yes"/>
      <point x="420.0" y="265.0"/>
      <point x="468.0" y="307.0"/>
      <point x="487.0" y="371.0" type="curve"/>
    </contour>
    <contour>
      <point x="438.0" y="226.0" type="line"/>
      <point x="423.0" y="198.0"/>
      <point x="403.0" y="183.0"/>
      <point x="378.0" y="183.0" type="curve" smooth="yes"/>
      <point x="335.0" y="183.0"/>
      <point x="246.0" y="244.0"/>
      <point x="175.0" y="244.0" type="curve" smooth="yes"/>
      <point x="120.0" y="244.0"/>
      <point x="72.0" y="203.0"/>
      <point x="53.0" y="137.0" type="curve"/>
      <point x="102.0" y="104.0" type="line"/>
      <point x="119.0" y="134.0"/>
      <point x="139.0" y="149.0"/>
      <point x="162.0" y="149.0" type="curve" smooth="yes"/>
      <point x="205.0" y="149.0"/>
      <point x="294.0" y="87.0"/>
      <point x="365.0" y="87.0" type="curve" smooth="yes"/>
      <point x="420.0" y="87.0"/>
      <point x="468.0" y="129.0"/>
      <point x="487.0" y="193.0" type="curve"/>
    </contour>
  </outline>
</glyph>
<glyph name="notequal" format="2">
  <advance width="540.0"/>
  <unicode hex="2260"/>
  <outline>
    <contour>
      <point x="317.0" y="510.0" type="line"/>
      <point x="123.0" y="41.0" type="line"/>
      <point x="214.0" y="2.0" type="line"/>
      <point x="407.0" y="471.0" type="line"/>
    </contour>
    <contour>
      <point x="487.0" y="395.0" type="line"/>
      <point x="53.0" y="395.0" type="line"/>
      <point x="53.0" y="294.0" type="line"/>
      <point x="487.0" y="294.0" type="line"/>
    </contour>
    <contour>
      <point x="487.0" y="217.0" type="line"/>
      <point x="53.0" y="217.0" type="line"/>
      <point x="53.0" y="116.0" type="line"/>
      <point x="487.0" y="116.0" type="line"/>
    </contour>
  </outline>
</glyph>
<glyph name="rightanglebracket-math" format="2">
  <advance width="540.0"/>
  <unicode hex="27E9"/>
  <outline>
    <contour>
      <point x="395.0" y="244.0" type="line"/>
      <point x="261.0" y="648.0" type="line"/>
      <point x="147.0" y="648.0" type="line"/>
      <point x="280.0" y="244.0" type="line"/>
      <point x="147.0" y="-160.0" type="line"/>
      <point x="261.0" y="-160.0" type="line"/>
    </contour>
  </outline>
</glyph>
<glyph name="brevecomb_acutecomb" format="2">
  <anchor x="300.0" y="446.0" name="_top"/>
  <outline>
    <contour>
      <point x="399.0" y="677.0" type="line"/>
      <point x="387.0" y="617.0"/>
      <point x="351.0" y="586.0"/>
      <point x="304.0" y="586.0" type="curve" smooth="yes"/>
      <point x="258.0" y="586.0"/>
      <point x="222.0" y="617.0"/>
      <point x="209.0" y="677.0" type="curve"/>
      <point x="129.0" y="652.0" type="line"/>
      <point x="136.0" y="556.0"/>
      <point x="207.0" y="489.0"/>
      <point x="301.0" y="489.0" type="curve" smooth="yes"/>
      <point x="395.0" y="489.0"/>
      <point x="464.0" y="556.0"/>
      <point x="471.0" y="652.0" type="curve"/>
    </contour>
    <contour>
      <point x="326.0" y="636.0" type="line"/>
      <point x="467.0" y="767.0" type="line"/>
      <point x="323.0" y="790.0" type="line"/>
      <point x="254.0" y="661.0" type="line"/>
    </contour>
  </outline>
</glyph>
<glyph name="caroncomb.case" format="2">
  <note>
uni030C.cap
</note>
  <anchor x="300.0" y="660.0" name="_top"/>
  <anchor x="300.0" y="867.0" name="top"/>
  <outline>
    <contour>
      <point x="95.0" y="818.0" type="line"/>
      <point x="235.0" y="718.0" type="line"/>
      <point x="365.0" y="718.0" type="line"/>
      <point x="505.0" y="818.0" type="line"/>
      <point x="446.0" y="853.0" type="line"/>
      <point x="265.0" y="774.0" type="line"/>
      <point x="335.0" y="774.0" type="line"/>
      <point x="154.0" y="853.0" type="line"/>
    </contour>
  </outline>
</glyph>
<glyph name="caroncomb_dotaccentcomb.case" format="2">
  <advance width="600.0"/>
  <anchor x="300.0" y="660.0" name="_top"/>
  <outline>
    <contour>
      <point x="301.0" y="829.0" type="curve" smooth="yes"/>
      <point x="352.0" y="829.0"/>
      <point x="379.0" y="866.0"/>
      <point x="379.0" y="902.0" type="curve" smooth="yes"/>
      <point x="379.0" y="940.0"/>
      <point x="352.0" y="976.0"/>
      <point x="301.0" y="976.0" type="curve" smooth="yes"/>
      <point x="247.0" y="976.0"/>
      <point x="221.0" y="940.0"/>
      <point x="221.0" y="902.0" type="curve" smooth="yes"/>
      <point x="221.0" y="866.0"/>
      <point x="247.0" y="829.0"/>
    </contour>
    <contour>
      <point x="95.0" y="818.0" type="line"/>
      <point x="235.0" y="718.0" type="line"/>
      <point x="365.0" y="718.0" type="line"/>
      <point x="505.0" y="818.0" type="line"/>
      <point x="446.0" y="853.0" type="line"/>
      <point x="265.0" y="774.0" type="line"/>
      <point x="335.0" y="774.0" type="line"/>
      <point x="154.0" y="853.0" type="line"/>
    </contour>
  </outline>
</glyph>
<glyph name="caroncomb_dotaccentcomb" format="2">
  <advance width="600.0"/>
  <anchor x="300.0" y="446.0" name="_top"/>
  <outline>
    <contour>
      <point x="475.0" y="652.0" type="line"/>
      <point x="403.0" y="677.0" type="line"/>
      <point x="264.0" y="546.0" type="line"/>
      <point x="334.0" y="546.0" type="line"/>
      <point x="197.0" y="677.0" type="line"/>
      <point x="125.0" y="652.0" type="line"/>
      <point x="235.0" y="493.0" type="line"/>
      <point x="365.0" y="493.0" type="line"/>
    </contour>
    <contour>
      <point x="301.0" y="646.0" type="curve" smooth="yes"/>
      <point x="352.0" y="646.0"/>
      <point x="379.0" y="682.0"/>
      <point x="379.0" y="719.0" type="curve" smooth="yes"/>
      <point x="379.0" y="757.0"/>
      <point x="352.0" y="793.0"/>
      <point x="301.0" y="793.0" type="curve" smooth="yes"/>
      <point x="247.0" y="793.0"/>
      <point x="221.0" y="757.0"/>
      <point x="221.0" y="719.0" type="curve" smooth="yes"/>
      <point x="221.0" y="682.0"/>
      <point x="247.0" y="646.0"/>
    </contour>
  </outline>
</glyph>
<glyph name="circumflexcomb.case" format="2">
  <note>
uni0302.cap
</note>
  <anchor x="300.0" y="660.0" name="_top"/>
  <anchor x="300.0" y="867.0" name="top"/>
  <outline>
    <contour>
      <point x="505.0" y="744.0" type="line"/>
      <point x="365.0" y="843.0" type="line"/>
      <point x="235.0" y="843.0" type="line"/>
      <point x="95.0" y="744.0" type="line"/>
      <point x="154.0" y="709.0" type="line"/>
      <point x="335.0" y="787.0" type="line"/>
      <point x="265.0" y="787.0" type="line"/>
      <point x="446.0" y="709.0" type="line"/>
    </contour>
  </outline>
</glyph>
<glyph name="circumflexcomb_gravecomb" format="2">
  <anchor x="300.0" y="446.0" name="_top"/>
  <outline>
    <contour>
      <point x="475.0" y="509.0" type="line"/>
      <point x="365.0" y="668.0" type="line"/>
      <point x="235.0" y="668.0" type="line"/>
      <point x="125.0" y="509.0" type="line"/>
      <point x="197.0" y="484.0" type="line"/>
      <point x="335.0" y="614.0" type="line"/>
      <point x="265.0" y="614.0" type="line"/>
      <point x="403.0" y="484.0" type="line"/>
    </contour>
    <contour>
      <point x="462.0" y="636.0" type="line"/>
      <point x="538.0" y="661.0" type="line"/>
      <point x="470.0" y="790.0" type="line"/>
      <point x="321.0" y="767.0" type="line"/>
    </contour>
  </outline>
</glyph>
<glyph name="circumflexcomb_hookabovecomb" format="2">
  <anchor x="300.0" y="446.0" name="_top"/>
  <outline>
    <contour>
      <point x="475.0" y="509.0" type="line"/>
      <point x="365.0" y="668.0" type="line"/>
      <point x="235.0" y="668.0" type="line"/>
      <point x="125.0" y="509.0" type="line"/>
      <point x="197.0" y="484.0" type="line"/>
      <point x="335.0" y="614.0" type="line"/>
      <point x="265.0" y="614.0" type="line"/>
      <point x="403.0" y="484.0" type="line"/>
    </contour>
    <contour>
      <point x="462.0" y="790.0" type="curve" smooth="yes"/>
      <point x="394.0" y="790.0"/>
      <point x="349.0" y="760.0"/>
      <point x="349.0" y="726.0" type="curve" smooth="yes"/>
      <point x="349.0" y="708.0"/>
      <point x="364.0" y="697.0"/>
      <point x="384.0" y="697.0" type="curve" smooth="yes"/>
      <point x="403.0" y="697.0"/>
      <point x="415.0" y="703.0"/>
      <point x="425.0" y="714.0" type="curve" smooth="yes"/>
      <point x="469.0" y="763.0" type="line"/>
      <point x="424.0" y="743.0" type="line"/>
      <point x="462.0" y="753.0"/>
      <point x="479.0" y="748.0"/>
      <point x="479.0" y="728.0" type="curve" smooth="yes"/>
      <point x="479.0" y="701.0"/>
      <point x="436.0" y="674.0"/>
      <point x="436.0" y="628.0" type="curve" smooth="yes"/>
      <point x="436.0" y="611.0" type="line"/>
      <point x="489.0" y="611.0" type="line"/>
      <point x="489.0" y="648.0"/>
      <point x="583.0" y="662.0"/>
      <point x="583.0" y="721.0" type="curve" smooth="yes"/>
      <point x="583.0" y="764.0"/>
      <point x="537.0" y="790.0"/>
    </contour>
  </outline>
</glyph>
<glyph name="circumflexcomb_tildecomb.case" format="2">
  <anchor x="300.0" y="660.0" name="_top"/>
  <outline>
    <contour>
      <point x="154.0" y="709.0" type="line"/>
      <point x="335.0" y="787.0" type="line"/>
      <point x="265.0" y="787.0" type="line"/>
      <point x="446.0" y="709.0" type="line"/>
      <point x="505.0" y="744.0" type="line"/>
      <point x="365.0" y="843.0" type="line"/>
      <point x="235.0" y="843.0" type="line"/>
      <point x="95.0" y="744.0" type="line"/>
    </contour>
    <contour>
      <point x="370.0" y="856.0" type="curve" smooth="yes"/>
      <point x="430.0" y="856.0"/>
      <point x="477.0" y="888.0"/>
      <point x="500.0" y="947.0" type="curve"/>
      <point x="456.0" y="974.0" type="line"/>
      <point x="436.0" y="958.0"/>
      <point x="417.0" y="949.0"/>
      <point x="393.0" y="949.0" type="curve" smooth="yes"/>
      <point x="354.0" y="949.0"/>
      <point x="282.0" y="976.0"/>
      <point x="232.0" y="976.0" type="curve" smooth="yes"/>
      <point x="171.0" y="976.0"/>
      <point x="124.0" y="944.0"/>
      <point x="101.0" y="885.0" type="curve"/>
      <point x="145.0" y="858.0" type="line"/>
      <point x="164.0" y="874.0"/>
      <point x="185.0" y="883.0"/>
      <point x="208.0" y="883.0" type="curve" smooth="yes"/>
      <point x="247.0" y="883.0"/>
      <point x="320.0" y="856.0"/>
    </contour>
  </outline>
</glyph>
<glyph name="commaaccentcomb.alt" format="2">
  <note>
uni0326
</note>
  <anchor x="300.0" y="0.0" name="_bottom"/>
  <anchor x="300.0" y="-220.0" name="bottom"/>
  <outline>
    <contour>
      <point x="215.0" y="-295.0" type="line"/>
      <point x="338.0" y="-272.0"/>
      <point x="389.0" y="-196.0"/>
      <point x="389.0" y="-137.0" type="curve" smooth="yes"/>
      <point x="389.0" y="-70.0"/>
      <point x="338.0" y="-48.0"/>
      <point x="295.0" y="-48.0" type="curve" smooth="yes"/>
      <point x="245.0" y="-48.0"/>
      <point x="211.0" y="-76.0"/>
      <point x="211.0" y="-112.0" type="curve" smooth="yes"/>
      <point x="211.0" y="-183.0"/>
      <point x="290.0" y="-168.0"/>
      <point x="290.0" y="-202.0" type="curve" smooth="yes"/>
      <point x="290.0" y="-219.0"/>
      <point x="275.0" y="-241.0"/>
      <point x="198.0" y="-255.0" type="curve"/>
    </contour>
  </outline>
</glyph>
<glyph name="dblgravecomb.case" format="2">
  <anchor x="300.0" y="660.0" name="_top"/>
  <anchor x="300.0" y="861.0" name="top"/>
  <outline>
    <contour>
      <point x="348.0" y="709.0" type="line"/>
      <point x="415.0" y="731.0" type="line"/>
      <point x="375.0" y="855.0" type="line"/>
      <point x="269.0" y="834.0" type="line"/>
    </contour>
    <contour>
      <point x="185.0" y="709.0" type="line"/>
      <point x="252.0" y="731.0" type="line"/>
      <point x="212.0" y="855.0" type="line"/>
      <point x="106.0" y="834.0" type="line"/>
    </contour>
  </outline>
</glyph>
<glyph name="dieresisbelowcomb.case" format="2">
  <anchor x="300.0" y="0.0" name="_bottom"/>
  <anchor x="300.0" y="-220.0" name="bottom"/>
  <outline>
    <contour>
      <point x="197.0" y="-209.0" type="curve" smooth="yes"/>
      <point x="250.0" y="-209.0"/>
      <point x="279.0" y="-171.0"/>
      <point x="279.0" y="-132.0" type="curve" smooth="yes"/>
      <point x="279.0" y="-93.0"/>
      <point x="250.0" y="-56.0"/>
      <point x="197.0" y="-56.0" type="curve" smooth="yes"/>
      <point x="142.0" y="-56.0"/>
      <point x="114.0" y="-93.0"/>
      <point x="114.0" y="-132.0" type="curve" smooth="yes"/>
      <point x="114.0" y="-171.0"/>
      <point x="142.0" y="-209.0"/>
    </contour>
    <contour>
      <point x="405.0" y="-209.0" type="curve" smooth="yes"/>
      <point x="457.0" y="-209.0"/>
      <point x="486.0" y="-171.0"/>
      <point x="486.0" y="-132.0" type="curve" smooth="yes"/>
      <point x="486.0" y="-93.0"/>
      <point x="457.0" y="-56.0"/>
      <point x="405.0" y="-56.0" type="curve" smooth="yes"/>
      <point x="349.0" y="-56.0"/>
      <point x="321.0" y="-93.0"/>
      <point x="321.0" y="-132.0" type="curve" smooth="yes"/>
      <point x="321.0" y="-171.0"/>
      <point x="349.0" y="-209.0"/>
    </contour>
  </outline>
</glyph>
<glyph name="dieresiscomb_acutecomb.case" format="2">
  <anchor x="300.0" y="660.0" name="_top"/>
  <outline>
    <contour>
      <point x="336.0" y="847.0" type="line"/>
      <point x="470.0" y="953.0" type="line"/>
      <point x="326.0" y="976.0" type="line"/>
      <point x="264.0" y="872.0" type="line"/>
    </contour>
    <contour>
      <point x="177.0" y="706.0" type="curve" smooth="yes"/>
      <point x="230.0" y="706.0"/>
      <point x="259.0" y="745.0"/>
      <point x="259.0" y="783.0" type="curve" smooth="yes"/>
      <point x="259.0" y="822.0"/>
      <point x="230.0" y="860.0"/>
      <point x="177.0" y="860.0" type="curve" smooth="yes"/>
      <point x="122.0" y="860.0"/>
      <point x="94.0" y="822.0"/>
      <point x="94.0" y="783.0" type="curve" smooth="yes"/>
      <point x="94.0" y="745.0"/>
      <point x="122.0" y="706.0"/>
    </contour>
    <contour>
      <point x="425.0" y="706.0" type="curve" smooth="yes"/>
      <point x="477.0" y="706.0"/>
      <point x="506.0" y="745.0"/>
      <point x="506.0" y="783.0" type="curve" smooth="yes"/>
      <point x="506.0" y="822.0"/>
      <point x="477.0" y="860.0"/>
      <point x="425.0" y="860.0" type="curve" smooth="yes"/>
      <point x="369.0" y="860.0"/>
      <point x="341.0" y="822.0"/>
      <point x="341.0" y="783.0" type="curve" smooth="yes"/>
      <point x="341.0" y="745.0"/>
      <point x="369.0" y="706.0"/>
    </contour>
  </outline>
</glyph>
<glyph name="dieresiscomb_macroncomb" format="2">
  <advance width="600.0"/>
  <anchor x="300.0" y="446.0" name="_top"/>
  <outline>
    <contour>
      <point x="197.0" y="501.0" type="curve" smooth="yes"/>
      <point x="250.0" y="501.0"/>
      <point x="279.0" y="540.0"/>
      <point x="279.0" y="578.0" type="curve" smooth="yes"/>
      <point x="279.0" y="617.0"/>
      <point x="250.0" y="655.0"/>
      <point x="197.0" y="655.0" type="curve" smooth="yes"/>
      <point x="142.0" y="655.0"/>
      <point x="114.0" y="617.0"/>
      <point x="114.0" y="578.0" type="curve" smooth="yes"/>
      <point x="114.0" y="540.0"/>
      <point x="142.0" y="501.0"/>
    </contour>
    <contour>
      <point x="405.0" y="501.0" type="curve" smooth="yes"/>
      <point x="457.0" y="501.0"/>
      <point x="486.0" y="540.0"/>
      <point x="486.0" y="578.0" type="curve" smooth="yes"/>
      <point x="486.0" y="617.0"/>
      <point x="457.0" y="655.0"/>
      <point x="405.0" y="655.0" type="curve" smooth="yes"/>
      <point x="349.0" y="655.0"/>
      <point x="321.0" y="617.0"/>
      <point x="321.0" y="578.0" type="curve" smooth="yes"/>
      <point x="321.0" y="540.0"/>
      <point x="349.0" y="501.0"/>
    </contour>
    <contour>
      <point x="137.0" y="764.0" type="line"/>
      <point x="137.0" y="681.0" type="line"/>
      <point x="463.0" y="681.0" type="line"/>
      <point x="463.0" y="764.0" type="line"/>
    </contour>
  </outline>
</glyph>
<glyph name="dotaccentcomb.i" format="2">
  <note>
uni0307
</note>
  <anchor x="300.0" y="446.0" name="_top"/>
  <anchor x="300.0" y="659.0" name="top"/>
  <outline>
    <contour>
      <point x="301.0" y="512.0" type="curve" smooth="yes"/>
      <point x="369.0" y="512.0"/>
      <point x="403.0" y="558.0"/>
      <point x="403.0" y="608.0" type="curve" smooth="yes"/>
      <point x="403.0" y="658.0"/>
      <point x="369.0" y="704.0"/>
      <point x="301.0" y="704.0" type="curve" smooth="yes"/>
      <point x="233.0" y="704.0"/>
      <point x="197.0" y="658.0"/>
      <point x="197.0" y="608.0" type="curve" smooth="yes"/>
      <point x="197.0" y="558.0"/>
      <point x="233.0" y="512.0"/>
    </contour>
  </outline>
</glyph>
<glyph name="f_j" format="2">
  <advance width="634.0"/>
  <note>
    f_j
  </note>
  <outline>
    <contour>
      <point x="335.0" y="-229.0" type="line"/>
      <point x="448.0" y="-195.0"/>
      <point x="565.0" y="-77.0"/>
      <point x="565.0" y="44.0" type="curve"/>
      <point x="562.0" y="291.0" type="line"/>
      <point x="562.0" y="336.492184"/>
      <point x="565.6170554701642" y="397.2590102181162"/>
      <point x="568.8257338910455" y="438.3367227592382" type="curve"/>
      <point x="540.2245895189603" y="453.69659658869136" type="line"/>
      <point x="387.6851528678392" y="444.0" type="line"/>
      <point x="127.0" y="444.0" type="line"/>
      <point x="79.0" y="449.0" type="line"/>
      <point x="4.0" y="427.0" type="line"/>
      <point x="4.0" y="372.0" type="line"/>
      <point x="388.0" y="372.0" type="line"/>
      <point x="394.0" y="330.0"/>
      <point x="395.0" y="311.0"/>
      <point x="395.0" y="287.0" type="curve" smooth="yes"/>
      <point x="394.0" y="-8.0" type="line" smooth="yes"/>
      <point x="394.0" y="-84.0"/>
      <point x="370.0" y="-138.0"/>
      <point x="307.0" y="-178.0" type="curve"/>
    </contour>
    <contour>
      <point x="16.0" y="0.0" type="line"/>
      <point x="302.0" y="0.0" type="line"/>
      <point x="305.0" y="52.0" type="line"/>
      <point x="249.0" y="70.0" type="line"/>
      <point x="247.0" y="85.0"/>
      <point x="242.0" y="116.0"/>
      <point x="242.0" y="252.0" type="curve" smooth="yes"/>
      <point x="242.0" y="444.0" type="line"/>
      <point x="242.0" y="483.0" type="line" smooth="yes"/>
      <point x="242.0" y="604.7768401969261"/>
      <point x="298.60861784930194" y="631.0"/>
      <point x="341.3200279535174" y="631.0" type="curve" smooth="yes"/>
      <point x="389.4839584965637" y="631.0"/>
      <point x="413.1115470648506" y="585.693018661002"/>
      <point x="424.92534134899415" y="547.525375589154" type="curve"/>
      <point x="441.4014052316222" y="537.3790316141094"/>
      <point x="459.3696197693208" y="531.6817928582532"/>
      <point x="485.66456787327434" y="531.6817928582532" type="curve" smooth="yes"/>
      <point x="524.2304917590704" y="531.6817928582532"/>
      <point x="565.782119352243" y="552.7002213760057"/>
      <point x="565.782119352243" y="601.9243642266094" type="curve" smooth="yes"/>
      <point x="565.782119352243" y="647.9931133047328"/>
      <point x="503.0" y="698.0"/>
      <point x="381.0" y="698.0" type="curve" smooth="yes"/>
      <point x="174.0" y="698.0"/>
      <point x="79.0" y="578.0"/>
      <point x="79.0" y="457.0" type="curve" smooth="yes"/>
      <point x="79.0" y="207.0" type="line" smooth="yes"/>
      <point x="79.0" y="116.0"/>
      <point x="76.0" y="76.0"/>
      <point x="75.0" y="70.0" type="curve"/>
      <point x="13.0" y="52.0" type="line"/>
    </contour>
  </outline>
</glyph>
<glyph name="five.tosf" format="2">
  <advance width="540.0"/>
  <note>
    five.onum
  </note>
  <outline>
    <contour>
      <point x="188.0" y="-228.0" type="curve" smooth="yes"/>
      <point x="380.0" y="-228.0"/>
      <point x="480.0" y="-127.0"/>
      <point x="480.0" y="-12.0" type="curve" smooth="yes"/>
      <point x="480.0" y="109.896615"/>
      <point x="372.26653901582984" y="185.29418556517737"/>
      <point x="160.30455486464803" y="204.20416256054614" type="curve"/>
      <point x="182.0" y="317.0" type="line"/>
      <point x="433.0" y="317.0" type="line"/>
      <point x="444.0" y="446.0" type="line"/>
      <point x="121.0" y="446.0" type="line"/>
      <point x="61.0" y="77.0" type="line"/>
      <point x="238.0" y="63.0"/>
      <point x="311.0" y="23.0"/>
      <point x="311.0" y="-56.0" type="curve" smooth="yes"/>
      <point x="311.0" y="-121.0"/>
      <point x="259.8766538096354" y="-158.08689302718471"/>
      <point x="202.86838876445245" y="-158.08689302718471" type="curve" smooth="yes"/>
      <point x="195.3707673925569" y="-158.08689302718471"/>
      <point x="187.32504012244272" y="-156.96640213204796"/>
      <point x="182.12062157286186" y="-154.8496995762987" type="curve"/>
      <point x="165.88012332976723" y="-143.84141242058354"/>
      <point x="137.38916211656397" y="-117.3498169065524"/>
      <point x="116.26269835669336" y="-83.85067088258825" type="curve"/>
      <point x="105.75248442284169" y="-77.8234116617009"/>
      <point x="92.05725384490961" y="-74.18295608206427"/>
      <point x="73.79128305366066" y="-74.18295608206427" type="curve" smooth="yes"/>
      <point x="42.79128305366066" y="-74.18295608206427"/>
      <point x="5.9019413876152385" y="-95.35679421565874"/>
      <point x="5.9019413876152385" y="-132.86418508072256" type="curve" smooth="yes"/>
      <point x="5.9019413876152385" y="-185.86418508072256"/>
      <point x="73.0" y="-228.0"/>
    </contour>
  </outline>
</glyph>
<glyph name="four.osf" format="2">
  <advance width="602.0"/>
  <note>
four.onum
</note>
  <outline>
    <contour>
      <point x="479.0" y="-226.0" type="line"/>
      <point x="478.0" y="257.0" type="line"/>
      <point x="478.0" y="327.0"/>
      <point x="480.0" y="396.0"/>
      <point x="484.0" y="450.0" type="curve"/>
      <point x="387.0" y="450.0" type="line"/>
      <point x="26.0" y="47.0" type="line"/>
      <point x="36.0" y="-7.0" type="line"/>
      <point x="569.0" y="-7.0" type="line"/>
      <point x="569.0" y="91.0" type="line"/>
      <point x="157.0" y="91.0" type="line"/>
      <point x="157.0" y="70.0" type="line"/>
      <point x="331.0" y="294.0" type="line"/>
      <point x="315.0" y="301.0" type="line"/>
      <point x="315.0" y="-226.0" type="line"/>
    </contour>
  </outline>
</glyph>
<glyph name="four.tf" format="2">
  <advance width="540.0"/>
  <note>
four
</note>
  <outline>
    <contour>
      <point x="439.0" y="139.0" type="curve"/>
      <point x="438.0" y="411.0" type="line"/>
      <point x="438.0" y="477.0"/>
      <point x="441.0" y="543.0"/>
      <point x="445.0" y="591.0" type="curve"/>
      <point x="344.0" y="591.0" type="line"/>
      <point x="11.0" y="193.0" type="line"/>
      <point x="21.0" y="139.0" type="line"/>
      <point x="522.0" y="139.0" type="line"/>
      <point x="522.0" y="238.0" type="line"/>
      <point x="127.0" y="238.0" type="line"/>
      <point x="135.0" y="217.0" type="line"/>
      <point x="295.0" y="440.0" type="line"/>
      <point x="275.0" y="432.0" type="line"/>
      <point x="275.0" y="139.0" type="line"/>
      <point x="275.0" y="100.0"/>
      <point x="275.0" y="90.0"/>
      <point x="274.0" y="76.0" type="curve"/>
      <point x="186.0" y="57.0" type="line"/>
      <point x="189.0" y="0.0" type="line"/>
      <point x="505.0" y="0.0" type="line"/>
      <point x="508.0" y="57.0" type="line"/>
      <point x="441.0" y="76.0" type="line"/>
      <point x="440.0" y="90.0"/>
      <point x="439.0" y="100.0"/>
    </contour>
  </outline>
</glyph>
<glyph name="hookabovecomb.case" format="2">
  <note>
hookabovecomb.cap
</note>
  <anchor x="300.0" y="660.0" name="_top"/>
  <anchor x="300.0" y="861.0" name="top"/>
  <outline>
    <contour>
      <point x="300.0" y="887.0" type="curve" smooth="yes"/>
      <point x="231.0" y="887.0"/>
      <point x="186.0" y="857.0"/>
      <point x="186.0" y="823.0" type="curve" smooth="yes"/>
      <point x="186.0" y="805.0"/>
      <point x="201.0" y="794.0"/>
      <point x="222.0" y="794.0" type="curve" smooth="yes"/>
      <point x="240.0" y="794.0"/>
      <point x="252.0" y="800.0"/>
      <point x="262.0" y="811.0" type="curve" smooth="yes"/>
      <point x="306.0" y="860.0" type="line"/>
      <point x="261.0" y="840.0" type="line"/>
      <point x="300.0" y="850.0"/>
      <point x="316.0" y="845.0"/>
      <point x="316.0" y="825.0" type="curve" smooth="yes"/>
      <point x="316.0" y="798.0"/>
      <point x="273.0" y="771.0"/>
      <point x="273.0" y="725.0" type="curve" smooth="yes"/>
      <point x="273.0" y="708.0" type="line"/>
      <point x="326.0" y="708.0" type="line"/>
      <point x="326.0" y="745.0"/>
      <point x="421.0" y="759.0"/>
      <point x="421.0" y="818.0" type="curve" smooth="yes"/>
      <point x="421.0" y="861.0"/>
      <point x="375.0" y="887.0"/>
    </contour>
  </outline>
</glyph>
<glyph name="nine.osf" format="2">
  <advance width="597.0"/>
  <note>
nine.onum
</note>
  <outline>
    <contour>
      <point x="408.0" y="168.0" type="curve"/>
      <point x="415.0" y="234.0" type="line"/>
      <point x="375.0" y="184.0"/>
      <point x="330.0" y="150.0"/>
      <point x="294.0" y="150.0" type="curve" smooth="yes"/>
      <point x="239.0" y="150.0"/>
      <point x="209.0" y="195.0"/>
      <point x="209.0" y="278.0" type="curve" smooth="yes"/>
      <point x="209.0" y="345.0"/>
      <point x="240.0" y="391.0"/>
      <point x="280.0" y="391.0" type="curve" smooth="yes"/>
      <point x="333.0" y="391.0"/>
      <point x="377.0" y="310.0"/>
      <point x="377.0" y="211.0" type="curve" smooth="yes"/>
      <point x="377.0" y="10.0"/>
      <point x="285.0" y="-104.0"/>
      <point x="82.0" y="-164.0" type="curve"/>
      <point x="106.0" y="-238.0" type="line"/>
      <point x="377.0" y="-201.0"/>
      <point x="549.0" y="-2.0"/>
      <point x="549.0" y="193.0" type="curve" smooth="yes"/>
      <point x="549.0" y="353.0"/>
      <point x="436.0" y="462.0"/>
      <point x="291.0" y="462.0" type="curve" smooth="yes"/>
      <point x="153.0" y="462.0"/>
      <point x="44.0" y="365.0"/>
      <point x="44.0" y="232.0" type="curve" smooth="yes"/>
      <point x="44.0" y="117.0"/>
      <point x="132.0" y="37.0"/>
      <point x="228.0" y="37.0" type="curve" smooth="yes"/>
      <point x="287.0" y="37.0"/>
      <point x="353.0" y="94.0"/>
    </contour>
  </outline>
</glyph>
<glyph name="one.numr" format="2">
  <advance width="400.0"/>
  <note>
uni2081
</note>
  <outline>
    <contour>
      <point x="298.0" y="366.0" type="curve" smooth="yes"/>
      <point x="298.0" y="389.0" type="line" smooth="yes"/>
      <point x="298.0" y="431.0"/>
      <point x="298.0" y="525.0"/>
      <point x="310.0" y="598.0" type="curve"/>
      <point x="68.0" y="518.0" type="line"/>
      <point x="72.0" y="465.0" type="line"/>
      <point x="147.0" y="476.0" type="line"/>
      <point x="149.0" y="456.0"/>
      <point x="152.0" y="394.0"/>
      <point x="152.0" y="376.0" type="curve" smooth="yes"/>
      <point x="152.0" y="355.0" type="line" smooth="yes"/>
      <point x="152.0" y="325.0"/>
      <point x="149.0" y="268.0"/>
      <point x="147.0" y="261.0" type="curve"/>
      <point x="78.0" y="250.0" type="line"/>
      <point x="81.0" y="199.0" type="line"/>
      <point x="369.0" y="199.0" type="line"/>
      <point x="372.0" y="250.0" type="line"/>
      <point x="303.0" y="261.0" type="line"/>
      <point x="301.0" y="268.0"/>
      <point x="298.0" y="331.0"/>
    </contour>
  </outline>
</glyph>
<glyph name="one.tosf" format="2">
  <advance width="540.0"/>
  <note>
one.onum
</note>
  <outline>
    <contour>
      <point x="368.0" y="70.0" type="line"/>
      <point x="367.0" y="84.0"/>
      <point x="363.0" y="142.0"/>
      <point x="363.0" y="189.0" type="curve" smooth="yes"/>
      <point x="363.0" y="280.0" type="line" smooth="yes"/>
      <point x="363.0" y="359.0"/>
      <point x="367.0" y="419.0"/>
      <point x="373.0" y="460.0" type="curve"/>
      <point x="77.0" y="352.0" type="line"/>
      <point x="82.0" y="286.0" type="line"/>
      <point x="193.0" y="306.0" type="line"/>
      <point x="195.0" y="291.0"/>
      <point x="197.0" y="252.0"/>
      <point x="197.0" y="228.0" type="curve" smooth="yes"/>
      <point x="197.0" y="168.0" type="line" smooth="yes"/>
      <point x="197.0" y="129.0"/>
      <point x="193.0" y="81.0"/>
      <point x="192.0" y="70.0" type="curve"/>
      <point x="90.0" y="54.0" type="line"/>
      <point x="93.0" y="0.0" type="line"/>
      <point x="467.0" y="0.0" type="line"/>
      <point x="470.0" y="54.0" type="line"/>
    </contour>
  </outline>
</glyph>
<glyph name="ringcomb.case" format="2">
  <note>
uni030A.cap
</note>
  <anchor x="300.0" y="660.0" name="_top"/>
  <anchor x="300.0" y="885.0" name="top"/>
  <outline>
    <contour>
      <point x="301.0" y="704.0" type="curve" smooth="yes"/>
      <point x="371.0" y="704.0"/>
      <point x="420.0" y="751.0"/>
      <point x="420.0" y="816.0" type="curve" smooth="yes"/>
      <point x="420.0" y="881.0"/>
      <point x="371.0" y="928.0"/>
      <point x="301.0" y="928.0" type="curve" smooth="yes"/>
      <point x="231.0" y="928.0"/>
      <point x="180.0" y="880.0"/>
      <point x="180.0" y="816.0" type="curve" smooth="yes"/>
      <point x="180.0" y="753.0"/>
      <point x="231.0" y="704.0"/>
    </contour>
    <contour>
      <point x="302.0" y="757.0" type="curve" smooth="yes"/>
      <point x="267.0" y="757.0"/>
      <point x="243.0" y="783.0"/>
      <point x="243.0" y="817.0" type="curve" smooth="yes"/>
      <point x="243.0" y="851.0"/>
      <point x="267.0" y="877.0"/>
      <point x="302.0" y="877.0" type="curve" smooth="yes"/>
      <point x="335.0" y="877.0"/>
      <point x="359.0" y="852.0"/>
      <point x="359.0" y="817.0" type="curve" smooth="yes"/>
      <point x="359.0" y="782.0"/>
      <point x="335.0" y="757.0"/>
    </contour>
  </outline>
</glyph>
<glyph name="seven.osf" format="2">
  <advance width="501.0"/>
  <note>
seven.onum
</note>
  <outline>
    <contour>
      <point x="244.0" y="-220.0" type="line"/>
      <point x="473.0" y="387.0" type="line"/>
      <point x="469.0" y="447.0" type="line"/>
      <point x="441.0" y="447.0"/>
      <point x="411.0" y="446.0"/>
      <point x="384.0" y="446.0" type="curve" smooth="yes"/>
      <point x="172.0" y="446.0" type="line" smooth="yes"/>
      <point x="138.0" y="446.0"/>
      <point x="86.0" y="447.0"/>
      <point x="53.0" y="448.0" type="curve"/>
      <point x="38.0" y="247.0" type="line"/>
      <point x="111.0" y="240.0" type="line"/>
      <point x="124.0" y="315.0" type="line"/>
      <point x="144.0" y="317.0"/>
      <point x="172.0" y="318.0"/>
      <point x="188.0" y="318.0" type="curve" smooth="yes"/>
      <point x="380.0" y="318.0" type="line"/>
      <point x="378.0" y="359.0" type="line"/>
      <point x="117.0" y="-175.0" type="line"/>
      <point x="117.0" y="-220.0" type="line"/>
    </contour>
  </outline>
</glyph>
<glyph name="six.tf" format="2">
  <advance width="540.0"/>
  <note>
six
</note>
  <outline>
    <contour>
      <point x="174.0" y="273.0" type="curve"/>
      <point x="170.0" y="211.0" type="line"/>
      <point x="182.0" y="232.0"/>
      <point x="225.0" y="265.0"/>
      <point x="268.0" y="265.0" type="curve" smooth="yes"/>
      <point x="316.0" y="265.0"/>
      <point x="344.0" y="222.0"/>
      <point x="344.0" y="151.0" type="curve" smooth="yes"/>
      <point x="344.0" y="102.0"/>
      <point x="315.0" y="61.0"/>
      <point x="280.0" y="61.0" type="curve" smooth="yes"/>
      <point x="238.0" y="61.0"/>
      <point x="198.0" y="134.0"/>
      <point x="198.0" y="215.0" type="curve" smooth="yes"/>
      <point x="198.0" y="403.0"/>
      <point x="276.0" y="493.0"/>
      <point x="469.0" y="534.0" type="curve"/>
      <point x="450.0" y="605.0" type="line"/>
      <point x="180.0" y="590.0"/>
      <point x="30.0" y="413.0"/>
      <point x="30.0" y="239.0" type="curve" smooth="yes"/>
      <point x="30.0" y="107.0"/>
      <point x="128.0" y="-9.0"/>
      <point x="270.0" y="-9.0" type="curve" smooth="yes"/>
      <point x="408.0" y="-9.0"/>
      <point x="506.0" y="82.0"/>
      <point x="506.0" y="201.0" type="curve" smooth="yes"/>
      <point x="506.0" y="299.0"/>
      <point x="432.0" y="377.0"/>
      <point x="338.0" y="377.0" type="curve" smooth="yes"/>
      <point x="286.0" y="377.0"/>
      <point x="224.0" y="330.0"/>
    </contour>
  </outline>
</glyph>
<glyph name="slashlongcomb.case" format="2">
  <anchor x="300.0" y="294.0" name="_center"/>
  <outline>
    <contour>
      <point x="117.0" y="-77.0" type="line"/>
      <point x="554.0" y="623.0" type="line"/>
      <point x="483.0" y="665.0" type="line"/>
      <point x="46.0" y="-35.0" type="line"/>
    </contour>
  </outline>
</glyph>
<glyph name="three.osf" format="2">
  <advance width="500.0"/>
  <note>
    three.onum
  </note>
  <outline>
    <contour>
      <point x="181.0" y="-228.0" type="curve" smooth="yes"/>
      <point x="363.0" y="-228.0"/>
      <point x="458.0" y="-127.0"/>
      <point x="458.0" y="-28.0" type="curve" smooth="yes"/>
      <point x="458.0" y="72.0"/>
      <point x="367.0" y="136.0"/>
      <point x="212.0" y="145.0" type="curve"/>
      <point x="189.0" y="113.0" type="line"/>
      <point x="337.0" y="142.0"/>
      <point x="423.0" y="215.0"/>
      <point x="423.0" y="309.0" type="curve" smooth="yes"/>
      <point x="423.0" y="395.0"/>
      <point x="344.0" y="454.0"/>
      <point x="238.0" y="454.0" type="curve" smooth="yes"/>
      <point x="136.0" y="454.0"/>
      <point x="64.0" y="405.0"/>
      <point x="25.0" y="324.0" type="curve"/>
      <point x="59.0" y="292.0" type="line"/>
      <point x="82.0" y="322.0"/>
      <point x="118.0" y="341.0"/>
      <point x="161.0" y="341.0" type="curve" smooth="yes"/>
      <point x="220.0" y="341.0"/>
      <point x="254.0" y="309.0"/>
      <point x="254.0" y="266.0" type="curve" smooth="yes"/>
      <point x="254.0" y="186.0"/>
      <point x="184.0" y="149.0"/>
      <point x="102.0" y="140.0" type="curve"/>
      <point x="110.0" y="71.0" type="line"/>
      <point x="120.0" y="71.0"/>
      <point x="127.0" y="72.0"/>
      <point x="156.0" y="72.0" type="curve" smooth="yes"/>
      <point x="235.0" y="72.0"/>
      <point x="289.0" y="31.0"/>
      <point x="289.0" y="-40.0" type="curve" smooth="yes"/>
      <point x="289.0" y="-121.0"/>
      <point x="240.52644170835993" y="-159.77635704298586"/>
      <point x="203.45820164570796" y="-159.77635704298586" type="curve" smooth="yes"/>
      <point x="198.80187176864445" y="-159.77635704298586"/>
      <point x="190.14242608922132" y="-158.6966995654327"/>
      <point x="186.18368200486043" y="-157.61704208787978" type="curve"/>
      <point x="167.75752772128976" y="-147.2523303033713"/>
      <point x="132.14082715623704" y="-108.89416613713661"/>
      <point x="116.90134189863466" y="-85.68594230339113" type="curve"/>
      <point x="108.81686670671797" y="-80.08899793975638"/>
      <point x="89.4460387884983" y="-75.11393628319229"/>
      <point x="75.23520052491062" y="-75.11393628319229" type="curve" smooth="yes"/>
      <point x="40.78980836106098" y="-75.11393628319229"/>
      <point x="8.071868161295583" y="-95.57091074782034"/>
      <point x="8.071868161295583" y="-133.57091074782034" type="curve" smooth="yes"/>
      <point x="8.071868161295583" y="-186.57091074782034"/>
      <point x="76.0" y="-228.0"/>
    </contour>
  </outline>
</glyph>
<glyph name="three.tosf" format="2">
  <advance width="540.0"/>
  <note>
    three.onum
  </note>
  <outline>
    <contour>
      <point x="187.0" y="-228.0" type="curve" smooth="yes"/>
      <point x="379.0" y="-228.0"/>
      <point x="479.0" y="-127.0"/>
      <point x="479.0" y="-28.0" type="curve" smooth="yes"/>
      <point x="479.0" y="72.0"/>
      <point x="383.0" y="136.0"/>
      <point x="219.0" y="145.0" type="curve"/>
      <point x="185.0" y="113.0" type="line"/>
      <point x="371.0" y="155.0"/>
      <point x="444.0" y="227.0"/>
      <point x="444.0" y="309.0" type="curve" smooth="yes"/>
      <point x="444.0" y="395.0"/>
      <point x="360.0" y="454.0"/>
      <point x="249.0" y="454.0" type="curve" smooth="yes"/>
      <point x="140.0" y="454.0"/>
      <point x="64.0" y="405.0"/>
      <point x="23.0" y="324.0" type="curve"/>
      <point x="57.0" y="292.0" type="line"/>
      <point x="83.0" y="322.0"/>
      <point x="124.0" y="341.0"/>
      <point x="172.0" y="341.0" type="curve" smooth="yes"/>
      <point x="237.0" y="341.0"/>
      <point x="275.0" y="309.0"/>
      <point x="275.0" y="266.0" type="curve" smooth="yes"/>
      <point x="275.0" y="190.0"/>
      <point x="188.0" y="150.0"/>
      <point x="101.0" y="140.0" type="curve"/>
      <point x="108.0" y="71.0" type="line"/>
      <point x="131.0" y="72.0"/>
      <point x="140.0" y="72.0"/>
      <point x="165.0" y="72.0" type="curve" smooth="yes"/>
      <point x="256.0" y="72.0"/>
      <point x="310.0" y="31.0"/>
      <point x="310.0" y="-40.0" type="curve" smooth="yes"/>
      <point x="310.0" y="-121.0"/>
      <point x="233.89387411684106" y="-158.13527767710525"/>
      <point x="205.41598053833718" y="-158.13527767710525" type="curve" smooth="yes"/>
      <point x="195.87060881734965" y="-158.13527767710525"/>
      <point x="187.87314602066112" y="-156.33744804040953"/>
      <point x="184.37425604710984" y="-154.83792376603037" type="curve"/>
      <point x="160.01718335351484" y="-138.25438491081673"/>
      <point x="135.55782311074995" y="-109.93936787914095"/>
      <point x="118.52514674487452" y="-83.84044778842713" type="curve"/>
      <point x="111.37061652695684" y="-79.36346811484077"/>
      <point x="96.93199719381505" y="-74.12353049045032"/>
      <point x="75.33884764275581" y="-74.12353049045032" type="curve" smooth="yes"/>
      <point x="47.33884764275581" y="-74.12353049045032"/>
      <point x="8.071868161295583" y="-94.32714533367925"/>
      <point x="8.071868161295583" y="-132.32714533367925" type="curve" smooth="yes"/>
      <point x="8.071868161295583" y="-185.32714533367925"/>
      <point x="72.0" y="-228.0"/>
    </contour>
  </outline>
</glyph>
<glyph name="tildecomb.case" format="2">
  <note>
tildecomb.cap
</note>
  <anchor x="300.0" y="660.0" name="_top"/>
  <anchor x="300.0" y="861.0" name="top"/>
  <outline>
    <contour>
      <point x="476.0" y="856.0" type="line"/>
      <point x="454.0" y="826.0"/>
      <point x="431.0" y="815.0"/>
      <point x="404.0" y="815.0" type="curve" smooth="yes"/>
      <point x="361.0" y="815.0"/>
      <point x="278.0" y="855.0"/>
      <point x="221.0" y="855.0" type="curve" smooth="yes"/>
      <point x="153.0" y="855.0"/>
      <point x="98.0" y="813.0"/>
      <point x="72.0" y="739.0" type="curve"/>
      <point x="124.0" y="708.0" type="line"/>
      <point x="146.0" y="738.0"/>
      <point x="170.0" y="749.0"/>
      <point x="196.0" y="749.0" type="curve" smooth="yes"/>
      <point x="239.0" y="749.0"/>
      <point x="322.0" y="710.0"/>
      <point x="379.0" y="710.0" type="curve" smooth="yes"/>
      <point x="447.0" y="710.0"/>
      <point x="502.0" y="751.0"/>
      <point x="528.0" y="826.0" type="curve"/>
    </contour>
  </outline>
</glyph>
<glyph name="tildecomb_dieresiscomb.case" format="2">
  <anchor x="301.0" y="660.0" name="_top"/>
  <outline>
    <contour>
      <point x="174.0" y="845.0" type="curve" smooth="yes"/>
      <point x="225.0" y="845.0"/>
      <point x="253.0" y="881.0"/>
      <point x="253.0" y="918.0" type="curve" smooth="yes"/>
      <point x="253.0" y="956.0"/>
      <point x="225.0" y="992.0"/>
      <point x="174.0" y="992.0" type="curve" smooth="yes"/>
      <point x="121.0" y="992.0"/>
      <point x="94.0" y="956.0"/>
      <point x="94.0" y="918.0" type="curve" smooth="yes"/>
      <point x="94.0" y="881.0"/>
      <point x="121.0" y="845.0"/>
    </contour>
    <contour>
      <point x="428.0" y="845.0" type="curve" smooth="yes"/>
      <point x="479.0" y="845.0"/>
      <point x="506.0" y="881.0"/>
      <point x="506.0" y="918.0" type="curve" smooth="yes"/>
      <point x="506.0" y="956.0"/>
      <point x="479.0" y="992.0"/>
      <point x="428.0" y="992.0" type="curve" smooth="yes"/>
      <point x="374.0" y="992.0"/>
      <point x="347.0" y="956.0"/>
      <point x="347.0" y="918.0" type="curve" smooth="yes"/>
      <point x="347.0" y="881.0"/>
      <point x="374.0" y="845.0"/>
    </contour>
    <contour>
      <point x="370.0" y="716.0" type="curve" smooth="yes"/>
      <point x="430.0" y="716.0"/>
      <point x="477.0" y="748.0"/>
      <point x="500.0" y="807.0" type="curve"/>
      <point x="456.0" y="835.0" type="line"/>
      <point x="436.0" y="819.0"/>
      <point x="417.0" y="809.0"/>
      <point x="393.0" y="809.0" type="curve" smooth="yes"/>
      <point x="354.0" y="809.0"/>
      <point x="282.0" y="836.0"/>
      <point x="232.0" y="836.0" type="curve" smooth="yes"/>
      <point x="171.0" y="836.0"/>
      <point x="124.0" y="805.0"/>
      <point x="101.0" y="745.0" type="curve"/>
      <point x="145.0" y="718.0" type="line"/>
      <point x="164.0" y="734.0"/>
      <point x="185.0" y="744.0"/>
      <point x="208.0" y="744.0" type="curve" smooth="yes"/>
      <point x="247.0" y="744.0"/>
      <point x="320.0" y="716.0"/>
    </contour>
  </outline>
</glyph>
<glyph name="tildecomb_dieresiscomb" format="2">
  <anchor x="301.0" y="446.0" name="_top"/>
  <outline>
    <contour>
      <point x="360.0" y="501.0" type="curve" smooth="yes"/>
      <point x="411.0" y="501.0"/>
      <point x="449.0" y="539.0"/>
      <point x="468.0" y="609.0" type="curve"/>
      <point x="424.0" y="635.0" type="line"/>
      <point x="407.0" y="606.0"/>
      <point x="391.0" y="597.0"/>
      <point x="372.0" y="597.0" type="curve" smooth="yes"/>
      <point x="341.0" y="597.0"/>
      <point x="281.0" y="633.0"/>
      <point x="240.0" y="633.0" type="curve" smooth="yes"/>
      <point x="189.0" y="633.0"/>
      <point x="151.0" y="595.0"/>
      <point x="132.0" y="525.0" type="curve"/>
      <point x="176.0" y="499.0" type="line"/>
      <point x="192.0" y="527.0"/>
      <point x="210.0" y="537.0"/>
      <point x="228.0" y="537.0" type="curve" smooth="yes"/>
      <point x="259.0" y="537.0"/>
      <point x="319.0" y="501.0"/>
    </contour>
    <contour>
      <point x="197.0" y="646.0" type="curve" smooth="yes"/>
      <point x="248.0" y="646.0"/>
      <point x="276.0" y="682.0"/>
      <point x="276.0" y="719.0" type="curve" smooth="yes"/>
      <point x="276.0" y="757.0"/>
      <point x="248.0" y="793.0"/>
      <point x="197.0" y="793.0" type="curve" smooth="yes"/>
      <point x="144.0" y="793.0"/>
      <point x="117.0" y="757.0"/>
      <point x="117.0" y="719.0" type="curve" smooth="yes"/>
      <point x="117.0" y="682.0"/>
      <point x="144.0" y="646.0"/>
    </contour>
    <contour>
      <point x="405.0" y="646.0" type="curve" smooth="yes"/>
      <point x="456.0" y="646.0"/>
      <point x="483.0" y="682.0"/>
      <point x="483.0" y="719.0" type="curve" smooth="yes"/>
      <point x="483.0" y="757.0"/>
      <point x="456.0" y="793.0"/>
      <point x="405.0" y="793.0" type="curve" smooth="yes"/>
      <point x="351.0" y="793.0"/>
      <point x="324.0" y="757.0"/>
      <point x="324.0" y="719.0" type="curve" smooth="yes"/>
      <point x="324.0" y="682.0"/>
      <point x="351.0" y="646.0"/>
    </contour>
  </outline>
</glyph>
<glyph name="zero.dnom" format="2">
  <advance width="400.0"/>
  <note>
uni2080
</note>
  <outline>
    <contour>
      <point x="203.0" y="-6.0" type="curve" smooth="yes"/>
      <point x="309.0" y="-6.0"/>
      <point x="386.0" y="83.0"/>
      <point x="386.0" y="204.0" type="curve" smooth="yes"/>
      <point x="386.0" y="323.0"/>
      <point x="318.0" y="394.0"/>
      <point x="203.0" y="394.0" type="curve" smooth="yes"/>
      <point x="87.0" y="394.0"/>
      <point x="14.0" y="314.0"/>
      <point x="14.0" y="184.0" type="curve" smooth="yes"/>
      <point x="14.0" y="70.0"/>
      <point x="91.0" y="-6.0"/>
    </contour>
    <contour>
      <point x="210.0" y="57.0" type="curve" smooth="yes"/>
      <point x="184.0" y="57.0"/>
      <point x="167.0" y="114.0"/>
      <point x="167.0" y="214.0" type="curve" smooth="yes"/>
      <point x="167.0" y="303.0"/>
      <point x="178.0" y="337.0"/>
      <point x="201.0" y="337.0" type="curve" smooth="yes"/>
      <point x="223.0" y="337.0"/>
      <point x="235.0" y="282.0"/>
      <point x="235.0" y="184.0" type="curve" smooth="yes"/>
      <point x="235.0" y="73.0"/>
      <point x="225.0" y="57.0"/>
    </contour>
  </outline>
</glyph>
